<svg width="32" height="32" viewBox="0 0 32 32" fill="none" xmlns="http://www.w3.org/2000/svg">
<path d="M26.1652 7.41344C23.6722 4.91531 20.4246 3.44869 16.9374 3.22519V1.875H18.3124C18.8302 1.875 19.2499 1.45525 19.2499 0.9375C19.2499 0.41975 18.8302 0 18.3124 0H13.6874C13.1697 0 12.7499 0.41975 12.7499 0.9375C12.7499 1.45525 13.1697 1.875 13.6874 1.875H15.0624V3.22519C12.6714 3.37844 10.3932 4.11625 8.3935 5.37044L7.50294 4.47806C7.0695 4.04375 6.49294 3.80463 5.87937 3.80463C5.26581 3.80463 4.68925 4.04381 4.25588 4.47806L2.90144 5.83544C2.00987 6.72875 2.00987 8.18237 2.90144 9.07575L3.79806 9.97425C2.38288 12.2387 1.625 14.8594 1.625 17.5971C1.625 21.4439 3.12 25.0606 5.83463 27.7808C8.54975 30.5016 12.1599 32 15.9999 32C19.84 32 23.4501 30.5016 26.1652 27.7808C28.8799 25.0606 30.3749 21.4439 30.3749 17.5971C30.3749 13.7504 28.8799 10.1337 26.1652 7.41344ZM4.22862 7.15994L5.58313 5.80263C5.68988 5.69569 5.81456 5.67969 5.87944 5.67969C5.94431 5.67969 6.06906 5.69563 6.17581 5.80263L6.85519 6.48338C6.50287 6.77544 6.16213 7.08537 5.83469 7.4135C5.50819 7.74069 5.19975 8.08112 4.90906 8.43312L4.22862 7.75131C4.06587 7.58825 4.06587 7.32294 4.22862 7.15994ZM15.9999 30.125C9.10744 30.125 3.5 24.505 3.5 17.5971C3.5 10.6892 9.10744 5.06925 15.9999 5.06925C22.8924 5.06925 28.4999 10.6892 28.4999 17.5971C28.4999 24.5051 22.8924 30.125 15.9999 30.125Z" fill="#DFB044"/>
<path d="M16.0001 6.82655C10.0724 6.82655 5.25 11.6582 5.25 17.5971C5.25 23.5359 10.0724 28.3676 16.0001 28.3676C21.9277 28.3676 26.7501 23.5359 26.7501 17.5971C26.7501 11.6582 21.9277 6.82655 16.0001 6.82655ZM16.9376 26.4429V25.3471C16.9376 24.8294 16.5178 24.4096 16.0001 24.4096C15.4823 24.4096 15.0626 24.8294 15.0626 25.3471V26.4429C10.9153 26.0045 7.61069 22.6916 7.17425 18.5346H8.25006C8.76781 18.5346 9.18756 18.1148 9.18756 17.5971C9.18756 17.0793 8.76781 16.6596 8.25006 16.6596H7.17431C7.61069 12.5025 10.9153 9.18962 15.0626 8.75118V9.84699C15.0626 10.3647 15.4823 10.7845 16.0001 10.7845C16.5178 10.7845 16.9376 10.3647 16.9376 9.84699V8.75118C21.0848 9.18962 24.3894 12.5025 24.8259 16.6596H23.7501C23.2323 16.6596 22.8126 17.0793 22.8126 17.5971C22.8126 18.1148 23.2323 18.5346 23.7501 18.5346H24.8258C24.3894 22.6916 21.0848 26.0045 16.9376 26.4429Z" fill="#DFB044"/>
<path d="M18.3124 17.0561H16.9898V13.2644C16.9898 12.7466 16.57 12.3269 16.0523 12.3269C15.5345 12.3269 15.1147 12.7466 15.1147 13.2644V17.9936C15.1147 18.5113 15.5345 18.9311 16.0523 18.9311H18.3124C18.8301 18.9311 19.2499 18.5113 19.2499 17.9936C19.2499 17.4758 18.8301 17.0561 18.3124 17.0561Z" fill="#DFB044"/>
</svg>
