<svg width="32" height="32" viewBox="0 0 32 32" fill="none" xmlns="http://www.w3.org/2000/svg">
<path d="M16 0C7.17749 0 0 7.17749 0 16C0 24.8225 7.17749 32 16 32C24.8225 32 32 24.8225 32 16C32 7.17749 24.8225 0 16 0ZM15.0625 7.85352C13.6362 7.79224 12.2244 7.5918 10.8762 7.26587C11.0916 6.75562 11.3252 6.26562 11.5771 5.80127C12.6108 3.89648 13.8799 2.55981 15.0625 2.07568V7.85352ZM15.0625 9.72998V15.0625H9.20679C9.28931 12.9812 9.64404 10.915 10.2307 9.03564C11.7854 9.42725 13.4175 9.66431 15.0625 9.72998ZM15.0625 16.9375V22.27C13.4175 22.3357 11.7854 22.5728 10.2307 22.9644C9.64404 21.085 9.28931 19.0188 9.20679 16.9375H15.0625ZM15.0625 24.1465V29.9243C13.8799 29.4402 12.6108 28.1035 11.5771 26.1987C11.3252 25.7344 11.0916 25.2444 10.8762 24.7341C12.2244 24.4082 13.636 24.2078 15.0625 24.1465ZM16.9375 24.1465C18.3638 24.2078 19.7756 24.4082 21.1238 24.7341C20.9084 25.2444 20.6748 25.7344 20.4229 26.1987C19.3892 28.1035 18.1201 29.4402 16.9375 29.9243V24.1465ZM16.9375 22.27V16.9375H22.7932C22.7107 19.0188 22.356 21.085 21.7693 22.9644C20.2146 22.5728 18.5825 22.3357 16.9375 22.27ZM16.9375 15.0625V9.72998C18.5825 9.66431 20.2146 9.42725 21.7693 9.03564C22.356 10.915 22.7107 12.9812 22.7932 15.0625H16.9375ZM16.9375 7.85352V2.07568C18.1201 2.55981 19.3892 3.89648 20.4229 5.80127C20.6748 6.26562 20.9084 6.75562 21.1238 7.26587C19.7756 7.5918 18.3638 7.79224 16.9375 7.85352ZM22.0708 4.90698C21.6013 4.04175 21.0913 3.27905 20.5537 2.62842C22.4282 3.26855 24.1262 4.29272 25.5542 5.6062C24.7397 6.04248 23.8621 6.42139 22.9387 6.73804C22.6768 6.10181 22.3872 5.48975 22.0708 4.90698ZM9.9292 4.90698C9.61279 5.48975 9.32324 6.10181 9.06128 6.73804C8.13794 6.42139 7.26025 6.04224 6.4458 5.6062C7.87378 4.29272 9.57178 3.26855 11.4463 2.62842C10.9087 3.27905 10.3989 4.0415 9.9292 4.90698ZM8.427 8.50024C7.78711 10.5474 7.41089 12.7791 7.32983 15.0625H1.90698C2.10767 12.0154 3.27783 9.22876 5.11279 7.0105C6.1311 7.59448 7.24634 8.09399 8.427 8.50024ZM7.32983 16.9375C7.41089 19.2212 7.78711 21.4526 8.427 23.4998C7.24634 23.906 6.1311 24.4055 5.11279 24.9895C3.27783 22.7712 2.10767 19.9846 1.90698 16.9375H7.32983ZM9.06128 25.262C9.32324 25.8982 9.61279 26.5103 9.9292 27.093C10.3989 27.9583 10.9087 28.7209 11.4463 29.3716C9.57178 28.7314 7.87378 27.7073 6.44604 26.3938C7.26001 25.9578 8.13794 25.5786 9.06128 25.262ZM22.0708 27.093C22.3872 26.5103 22.6768 25.8982 22.9387 25.262C23.8621 25.5786 24.7397 25.9578 25.5542 26.3938C24.1262 27.7073 22.4282 28.7314 20.5537 29.3716C21.0913 28.7209 21.6011 27.9585 22.0708 27.093ZM23.573 23.4998C24.2129 21.4526 24.5891 19.2209 24.6702 16.9375H30.093C29.8923 19.9846 28.7222 22.7712 26.8872 24.9895C25.8689 24.4055 24.7537 23.906 23.573 23.4998ZM24.6702 15.0625C24.5891 12.7788 24.2129 10.5474 23.573 8.50024C24.7537 8.09399 25.8689 7.59448 26.8872 7.0105C28.7222 9.22876 29.8923 12.0154 30.093 15.0625H24.6702Z" fill="#DFB044"/>
</svg>
