<svg width="32" height="32" viewBox="0 0 32 32" fill="none" xmlns="http://www.w3.org/2000/svg">
<g clip-path="url(#clip0)">
<path d="M27.5965 8.38535C26.4557 4.6996 23.4923 1.71178 19.8627 0.587722C15.9977 -0.609216 11.9682 0.040534 8.80773 2.37035C7.29336 3.48666 6.03673 4.9591 5.1738 6.62828C4.28192 8.35347 3.81055 10.2957 3.81055 12.2452C3.81055 14.9044 4.65173 17.4315 6.24323 19.5533L16.0011 32.0001L25.7469 19.5692L25.759 19.5533C28.1407 16.3778 28.8105 12.3072 27.5965 8.38535ZM24.2644 18.4203L16.0011 28.9614L7.73773 18.4203C6.39555 16.6273 5.68605 14.4921 5.68605 12.2452C5.68605 8.96185 7.26905 5.83466 9.92061 3.88003C12.5965 1.90747 16.018 1.36053 19.308 2.37928C22.355 3.32291 24.8445 5.83678 25.805 8.93985C26.838 12.2775 26.2765 15.7325 24.2644 18.4203Z" fill="#DFB044"/>
<path d="M16.0011 5.68092C12.3817 5.68092 9.43701 8.6256 9.43701 12.245C9.43701 15.8645 12.3817 18.8092 16.0011 18.8092C19.6206 18.8092 22.5652 15.8645 22.5652 12.245C22.5652 8.6256 19.6206 5.68092 16.0011 5.68092ZM16.0011 16.9337C13.4158 16.9337 11.3124 14.8304 11.3124 12.245C11.3124 9.65973 13.4158 7.55635 16.0011 7.55635C18.5865 7.55635 20.6898 9.65967 20.6898 12.245C20.6898 14.8304 18.5864 16.9337 16.0011 16.9337Z" fill="#DFB044"/>
</g>
<defs>
<clipPath id="clip0">
<rect width="32" height="32" fill="white"/>
</clipPath>
</defs>
</svg>
