<svg width="32" height="32" viewBox="0 0 32 32" fill="none" xmlns="http://www.w3.org/2000/svg">
<path d="M27.2969 11.2969H24.4688V8.46875C24.4688 3.79906 20.6697 0 16 0C11.3303 0 7.53125 3.79906 7.53125 8.46875V11.2969H4.70312C4.18537 11.2969 3.76562 11.7166 3.76562 12.2344V31.0625C3.76562 31.5802 4.18537 32 4.70312 32H27.2969C27.8146 32 28.2344 31.5802 28.2344 31.0625V12.2344C28.2344 11.7166 27.8146 11.2969 27.2969 11.2969ZM18.8281 11.2969H13.1719V8.46875C13.1719 6.90931 14.4406 5.64062 16 5.64062C17.5594 5.64062 18.8281 6.90931 18.8281 8.46875V11.2969ZM9.40625 8.46875C9.40625 4.83294 12.3642 1.875 16 1.875C19.6358 1.875 22.5938 4.83294 22.5938 8.46875V11.2969H20.7031V8.46875C20.7031 5.87544 18.5933 3.76562 16 3.76562C13.4067 3.76562 11.2969 5.87544 11.2969 8.46875V11.2969H9.40625V8.46875ZM26.3594 30.125H5.64062V13.1719H26.3594V30.125Z" fill="#DFB044"/>
<path d="M15.0625 22.5462V25.2929C15.0625 25.8107 15.4822 26.2304 16 26.2304C16.5178 26.2304 16.9375 25.8107 16.9375 25.2929V22.5462C18.0331 22.1588 18.8203 21.1133 18.8203 19.8867C18.8203 18.3316 17.5551 17.0664 16 17.0664C14.4449 17.0664 13.1797 18.3316 13.1797 19.8867C13.1797 21.1133 13.9669 22.1589 15.0625 22.5462ZM16 18.9414C16.5213 18.9414 16.9453 19.3654 16.9453 19.8867C16.9453 20.4079 16.5213 20.832 16 20.832C15.4787 20.832 15.0547 20.4079 15.0547 19.8867C15.0547 19.3654 15.4787 18.9414 16 18.9414Z" fill="#DFB044"/>
</svg>
