<svg width="32" height="32" viewBox="0 0 32 32" fill="none" xmlns="http://www.w3.org/2000/svg">
<g clip-path="url(#clip0)">
<path d="M31.842 18.7722C31.8357 18.7596 26.6505 5.04368 26.6316 5.01218C26.1717 4.13013 25.2644 3.582 24.269 3.582H7.73684C6.74138 3.582 5.83413 4.13013 5.3742 5.01218C5.3553 5.04368 0.163809 18.7596 0.163809 18.7722C0.0630035 19.0557 0 19.3644 0 19.6794V25.7529C0 27.2209 1.19707 28.418 2.66505 28.418H29.3344C30.8024 28.418 31.9995 27.2209 31.9995 25.7529V19.6794C32.0058 19.3581 31.9491 19.0557 31.842 18.7722ZM4.33464 12.7553H6.91149C7.40292 12.7553 7.79984 12.3584 7.79984 11.867C7.79984 11.3755 7.40292 10.9786 6.91149 10.9786H5.00878L5.68292 9.19562H9.58284C10.0743 9.19562 10.4712 8.79869 10.4712 8.30727C10.4712 7.81584 10.0743 7.41892 9.58284 7.41892H6.35706L6.96819 5.79343C7.1257 5.52251 7.41552 5.3587 7.73684 5.3587H24.2753C24.5903 5.3587 24.8801 5.52251 25.0439 5.79973L29.284 17.0144H2.72805L4.33464 12.7553ZM29.3407 26.6413H2.66505C2.17362 26.6413 1.7767 26.2444 1.7767 25.7529V19.6794C1.7767 19.188 2.17362 18.7911 2.66505 18.7911H29.3344C29.8259 18.7911 30.2228 19.188 30.2228 19.6794V25.7529H30.2291C30.2291 26.2444 29.8322 26.6413 29.3407 26.6413Z" fill="#DFB044"/>
<path d="M17.4517 21.8277H4.23991C3.74848 21.8277 3.35156 22.2247 3.35156 22.7161C3.35156 23.2075 3.74848 23.6044 4.23991 23.6044H17.4517C17.9432 23.6044 18.3401 23.2075 18.3401 22.7161C18.3401 22.2247 17.9432 21.8277 17.4517 21.8277Z" fill="#DFB044"/>
<path d="M27.7658 21.8277H26.405C25.9135 21.8277 25.5166 22.2247 25.5166 22.7161C25.5166 23.2075 25.9135 23.6044 26.405 23.6044H27.7658C28.2573 23.6044 28.6542 23.2075 28.6542 22.7161C28.6542 22.2247 28.2573 21.8277 27.7658 21.8277Z" fill="#DFB044"/>
<path d="M22.4294 21.8277H21.0685C20.5771 21.8277 20.1802 22.2247 20.1802 22.7161C20.1802 23.2075 20.5771 23.6044 21.0685 23.6044H22.4294C22.9208 23.6044 23.3178 23.2075 23.3178 22.7161C23.3178 22.2247 22.9208 21.8277 22.4294 21.8277Z" fill="#DFB044"/>
</g>
<defs>
<clipPath id="clip0">
<rect width="32" height="32" fill="white"/>
</clipPath>
</defs>
</svg>
