<svg width="38" height="38" viewBox="0 0 38 38" fill="none" xmlns="http://www.w3.org/2000/svg">
<path d="M31.8857 15.4264C32.169 15.4264 32.3984 15.1978 32.3984 14.9158C32.3984 14.6338 32.169 14.4052 31.8857 14.4052H28.6045C28.3213 14.4052 28.0918 14.6338 28.0918 14.9158C28.0918 15.1978 28.3213 15.4264 28.6045 15.4264H31.8857ZM7.75488 12.7712C7.47167 12.7712 7.24219 12.9998 7.24219 13.2818V14.4052H6.11426C5.83105 14.4052 5.60156 14.6338 5.60156 14.9158C5.60156 15.1978 5.83105 15.4264 6.11426 15.4264H7.24219V16.5497C7.24219 16.8317 7.47167 17.0604 7.75488 17.0604C8.0381 17.0604 8.26758 16.8317 8.26758 16.5497V15.4264H9.39551C9.67872 15.4264 9.9082 15.1978 9.9082 14.9158C9.9082 14.6338 9.67872 14.4052 9.39551 14.4052H8.26758V13.2818C8.26758 12.9998 8.0381 12.7712 7.75488 12.7712ZM34.9619 11.75C35.81 11.75 36.5 11.0628 36.5 10.2181V9.00311C36.5 8.15841 35.81 7.47126 34.9619 7.47126H32.3984V5.96283C32.3984 5.30591 31.8617 4.77139 31.2021 4.77139H28.3713C27.7117 4.77139 27.175 5.30591 27.175 5.96283V7.47126H24.1969V5.60812C24.1969 4.9512 23.6602 4.41669 23.0006 4.41669H14.9995C14.3399 4.41669 13.8032 4.9512 13.8032 5.60812V7.47126H10.8251V5.96283C10.8251 5.30591 10.2884 4.77139 9.62882 4.77139H6.79785C6.13825 4.77139 5.60156 5.30591 5.60156 5.96283V7.47126H3.03809C2.19002 7.47126 1.5 8.15841 1.5 9.00311V10.2181C1.5 11.0628 2.19002 11.75 3.03809 11.75H3.55078V25.0508C3.55078 25.3328 3.78026 25.5614 4.06348 25.5614C4.34669 25.5614 4.57617 25.3328 4.57617 25.0508V11.75H20.7813C21.0645 11.75 21.294 11.5213 21.294 11.2393C21.294 10.9573 21.0645 10.7287 20.7813 10.7287H3.03809C2.75535 10.7287 2.52539 10.4996 2.52539 10.2181V9.00311C2.52539 8.72159 2.75535 8.49249 3.03809 8.49249H34.9619C35.2446 8.49249 35.4746 8.72159 35.4746 9.00311V10.2181C35.4746 10.4996 35.2446 10.7287 34.9619 10.7287H23.1739C22.8907 10.7287 22.6612 10.9573 22.6612 11.2393C22.6612 11.5213 22.8907 11.75 23.1739 11.75H33.4238V29.3047H4.57617V27.4337C4.57617 27.1517 4.34669 26.9231 4.06348 26.9231C3.78026 26.9231 3.55078 27.1517 3.55078 27.4337V29.3047H3.03809C2.19002 29.3047 1.5 29.9918 1.5 30.8365V32.0515C1.5 32.8962 2.19002 33.5834 3.03809 33.5834H34.9619C35.81 33.5834 36.5 32.8962 36.5 32.0515V30.8365C36.5 29.9918 35.81 29.3047 34.9619 29.3047H34.4492V11.75H34.9619ZM9.79965 7.47126H6.62695V5.96283C6.62695 5.86902 6.70358 5.79263 6.79785 5.79263H9.62875C9.72302 5.79263 9.79965 5.86902 9.79965 5.96283V7.47126ZM23.1714 7.47126H14.8286V5.60812C14.8286 5.51431 14.9052 5.43792 14.9995 5.43792H23.0006C23.0949 5.43792 23.1715 5.51431 23.1715 5.60812V7.47126H23.1714ZM31.373 7.47126H28.2004V5.96283C28.2004 5.86902 28.277 5.79263 28.3713 5.79263H31.2021C31.2964 5.79263 31.373 5.86902 31.373 5.96283V7.47126ZM34.9619 30.3259C35.2446 30.3259 35.4746 30.555 35.4746 30.8365V32.0515C35.4746 32.333 35.2446 32.5621 34.9619 32.5621H3.03809C2.75535 32.5621 2.52539 32.333 2.52539 32.0515V30.8365C2.52539 30.555 2.75535 30.3259 3.03809 30.3259H34.9619ZM22.2662 14.5055C22.42 14.11 22.3673 13.6656 22.1253 13.3167C21.872 12.9517 21.4465 12.7348 20.985 12.7348C20.9771 12.7348 20.9688 12.7348 20.9608 12.735C20.6425 12.7453 20.3288 12.8948 20.0285 13.1793C18.7839 14.3587 17.5143 15.5539 16.2866 16.7099C15.5464 17.4068 14.8063 18.1036 14.0669 18.8013C13.7402 19.1096 13.5788 19.5258 13.6241 19.9432C13.6689 20.3559 13.9116 20.7231 14.29 20.9506C15.3017 21.5589 16.3192 22.1281 17.3324 22.7058C16.764 24.0467 16.2438 25.2323 15.7332 26.5462C15.4869 27.1797 15.7697 27.8833 16.391 28.1829C16.9514 28.4531 17.6166 28.2069 17.9704 27.8735C19.8922 26.0623 21.9995 24.078 23.9332 22.2511C24.2635 21.939 24.4243 21.5205 24.3743 21.1028C24.3236 20.6795 24.0634 20.3043 23.6605 20.0735C23.0154 19.704 22.3713 19.3324 21.7274 18.9608C21.3744 18.7571 21.0214 18.5534 20.6681 18.35C20.7332 18.1972 20.7985 18.0444 20.8637 17.8916C21.3354 16.7871 21.823 15.6452 22.2662 14.5055ZM19.8644 19.0668C20.9599 19.6966 22.0531 20.3303 23.1495 20.9587C23.3878 21.0952 23.4285 21.3203 23.2277 21.5101C21.2639 23.3653 19.2378 25.2743 17.2659 27.1316C16.936 27.4423 16.563 27.2408 16.6895 26.9147C17.234 25.5119 17.8008 24.2249 18.4121 22.7841C18.5127 22.5472 18.5002 22.1961 18.1343 21.9865C17.0306 21.3544 15.9171 20.7361 14.82 20.0763C14.6005 19.9442 14.5875 19.7169 14.7722 19.5426C16.7636 17.6633 18.7347 15.8142 20.7353 13.9192C20.886 13.7764 20.9679 13.7581 20.9902 13.7559C21.1143 13.7572 21.2202 13.8084 21.2818 13.8971C21.3173 13.9483 21.3511 14.0315 21.3101 14.1366C20.7713 15.5216 20.1674 16.9085 19.5895 18.2675C19.4563 18.5806 19.5642 18.8943 19.8644 19.0668Z" fill="#22184B"/>
</svg>
