<svg width="52" height="52" viewBox="0 0 52 52" fill="none" xmlns="http://www.w3.org/2000/svg">
<path d="M34.832 45.128C34.8412 45.0387 34.8309 44.9482 34.8007 44.8616L33.3992 32.9426C33.3992 32.9419 33.3991 32.9412 33.399 32.9405L31.4524 16.3856H34.2594C34.7209 16.3856 35.0949 16.0672 35.0949 15.6745C35.0949 15.2818 34.7209 14.9634 34.2594 14.9634H29.8882C29.5068 13.5302 27.9993 12.4566 26.2018 12.4566C24.4041 12.4566 22.8966 13.5302 22.5152 14.9634H17.5171C17.0556 14.9634 16.6816 15.2818 16.6816 15.6745C16.6816 16.0672 17.0556 16.3856 17.5171 16.3856H20.951L18.5623 36.702C18.5164 37.0928 18.8513 37.4412 19.3104 37.4803C19.3386 37.4827 19.3667 37.4839 19.3946 37.4839C19.8185 37.4839 20.1817 37.2103 20.2249 36.8436L20.4918 34.5734L25.0202 38.4277L19.4846 43.1393L19.846 40.065C19.8919 39.6742 19.557 39.3258 19.0979 39.2868C18.6393 39.2472 18.2293 39.5327 18.1834 39.9235L17.6028 44.8617C17.5727 44.9481 17.5623 45.0385 17.5715 45.1277L17.0907 49.2181C17.0672 49.4181 17.1441 49.6171 17.3024 49.766C17.4608 49.915 17.6858 50 17.922 50H34.4816C34.7176 50 34.9427 49.9151 35.1011 49.766C35.2595 49.6171 35.3364 49.4181 35.3129 49.2181L34.832 45.128ZM31.4486 30.635L27.3833 27.1749L30.709 24.3443L31.4486 30.635ZM31.9118 34.5736L32.919 43.1394L27.3834 38.4279L31.9118 34.5736ZM26.2018 13.8787C27.365 13.8787 28.3115 14.6843 28.3115 15.6745C28.3115 16.6647 27.365 17.4703 26.2018 17.4703C25.0384 17.4703 24.0919 16.6647 24.0919 15.6745C24.0919 14.6843 25.0384 13.8787 26.2018 13.8787ZM26.2018 18.8924C27.8869 18.8924 29.3176 17.9489 29.8043 16.6502L30.494 22.516L26.2018 26.1693L21.9095 22.5159L22.5993 16.6502C23.0859 17.9489 24.5166 18.8924 26.2018 18.8924ZM21.6946 24.3442L25.0202 27.1749L20.9548 30.635L21.6946 24.3442ZM20.7728 32.8013L26.2019 28.1805L31.631 32.8014L26.202 37.4222L20.7728 32.8013ZM18.8452 48.578L19.2219 45.3742L26.2018 39.4334L33.1816 45.3742L33.5583 48.578H18.8452Z" fill="#22184B"/>
<path d="M22.8564 10.5114C22.8564 9.03582 24.2668 7.83536 26.0005 7.83536C27.7342 7.83536 29.1447 9.03582 29.1447 10.5114C29.1447 10.9041 29.5186 11.2225 29.9801 11.2225C30.4416 11.2225 30.8155 10.9041 30.8155 10.5114C30.8155 8.25166 28.6555 6.41324 26.0005 6.41324C23.3455 6.41324 21.1855 8.25166 21.1855 10.5114C21.1855 10.9041 21.5595 11.2225 22.021 11.2225C22.4825 11.2225 22.8564 10.9041 22.8564 10.5114Z" fill="#22184B"/>
<path d="M26 2C20.4859 2 16 5.81821 16 10.5114C16 10.9041 16.3739 11.2225 16.8354 11.2225C17.2969 11.2225 17.6709 10.9041 17.6709 10.5114C17.6709 6.60237 21.4074 3.42212 26 3.42212C30.5926 3.42212 34.3291 6.60237 34.3291 10.5114C34.3291 10.9041 34.7031 11.2225 35.1646 11.2225C35.6261 11.2225 36 10.9041 36 10.5114C36 5.81821 31.5141 2 26 2Z" fill="#22184B"/>
</svg>
