<svg width="38" height="38" viewBox="0 0 38 38" fill="none" xmlns="http://www.w3.org/2000/svg">
<path d="M29.5564 6.0788V2.18369C29.5564 1.91066 29.3902 1.66389 29.1337 1.55581C28.8772 1.44774 28.5796 1.49935 28.3767 1.68699L26.2718 3.63332L24.167 1.68699C23.9641 1.49942 23.6664 1.44774 23.41 1.55581C23.1535 1.66382 22.9873 1.9106 22.9873 2.18369V6.0788C22.9873 6.26672 23.0664 6.44637 23.206 6.5755L24.8693 8.11344C23.7964 8.62367 23.0551 9.7002 23.0551 10.9429V15.0444C23.0551 16.7783 24.498 18.189 26.2714 18.189C28.0449 18.189 29.4878 16.7783 29.4878 15.0444V10.9429C29.4878 9.7004 28.7467 8.62408 27.6741 8.11371L29.3376 6.5755C29.4773 6.44637 29.5564 6.26672 29.5564 6.0788ZM24.3857 5.78444V3.77113L25.5727 4.8687V6.88202L24.3857 5.78444ZM26.2714 16.8219C25.4158 16.8219 24.6968 16.2407 24.5044 15.4611H28.0384C27.8461 16.2407 27.1271 16.8219 26.2714 16.8219ZM28.0894 14.0939H24.4535V11.7697H28.0894V14.0939ZM28.0031 10.4025H24.5397C24.7742 9.68598 25.4617 9.16563 26.2714 9.16563C27.081 9.16563 27.7686 9.68598 28.0031 10.4025ZM28.158 5.78444L26.971 6.88202V4.86864L28.158 3.77106V5.78444Z" fill="#22184B"/>
<path d="M21.4821 7.31046H16.5527C16.1665 7.31046 15.8535 7.61657 15.8535 7.99405C15.8535 8.37153 16.1665 8.67764 16.5527 8.67764H21.4821C21.8682 8.67764 22.1813 8.37153 22.1813 7.99405C22.1813 7.61657 21.8682 7.31046 21.4821 7.31046Z" fill="#22184B"/>
<path d="M31.3758 7.31046H29.6278C29.2416 7.31046 28.9286 7.61657 28.9286 7.99405C28.9286 8.37153 29.2416 8.67764 29.6278 8.67764H31.3758C32.224 8.67764 32.914 9.35228 32.914 10.1815V24.7452C32.8929 24.7434 32.8717 24.7421 32.8501 24.7421H15.7094C16.0654 24.2361 16.2743 23.6239 16.2743 22.9647V18.8632C16.2743 17.6207 15.5333 16.5444 14.4607 16.034L16.1242 14.4958C16.2639 14.3666 16.3429 14.187 16.3429 13.9991V10.104C16.3429 9.83093 16.1768 9.58415 15.9203 9.47608C15.6637 9.368 15.3662 9.41968 15.1632 9.60726L13.0584 11.5536L10.9535 9.60726C10.7506 9.41968 10.4529 9.368 10.1965 9.47608C9.94002 9.58408 9.77382 9.83086 9.77382 10.104V13.9991C9.77382 14.187 9.8529 14.3666 9.99253 14.4958L11.6558 16.0337C10.5829 16.5439 9.84157 17.6205 9.84157 18.8632V22.9647C9.84157 23.6239 10.0505 24.2361 10.4065 24.7421H5.0859V10.1815C5.0859 9.35228 5.77594 8.67764 6.62414 8.67764H9.77053C10.1567 8.67764 10.4697 8.37153 10.4697 7.99405C10.4697 7.61657 10.1567 7.31046 9.77053 7.31046H6.62414C5.00486 7.31046 3.6875 8.59841 3.6875 10.1815V27.2031C3.6875 28.7863 5.00486 30.0742 6.62414 30.0742H15.5066V32.3982H12.778C12.3918 32.3982 12.0788 32.7043 12.0788 33.0818V35.8164C12.0788 36.1939 12.3918 36.5 12.778 36.5H25.2272C25.6133 36.5 25.9264 36.1939 25.9264 35.8164V33.0818C25.9264 32.7043 25.6133 32.3982 25.2272 32.3982H22.4986V30.0742H31.3759C32.9951 30.0742 34.3125 28.7863 34.3125 27.2031V10.1815C34.3124 8.59841 32.995 7.31046 31.3758 7.31046ZM13.7576 12.7889L14.9446 11.6913V13.7046L13.7576 14.8022V12.7889ZM11.1723 13.7046V11.6913L12.3593 12.7889V14.8022L11.1723 13.7046ZM13.058 17.0858C13.8677 17.0858 14.5552 17.6062 14.7897 18.3227H11.3263C11.5608 17.6062 12.2483 17.0858 13.058 17.0858ZM11.2401 19.6899H14.8759V22.0141H11.2401V19.6899ZM14.825 23.3813C14.6327 24.1609 13.9136 24.7421 13.058 24.7421C12.2023 24.7421 11.4833 24.1609 11.291 23.3813H14.825ZM24.5279 33.7653V35.1328H13.4771V33.7653H24.5279ZM16.9049 32.3982V30.0742H21.1001V32.3982H16.9049ZM32.914 27.2031C32.914 28.0324 32.2239 28.707 31.3758 28.707H6.62414C5.77594 28.707 5.0859 28.0324 5.0859 27.2031V26.1092H32.8501C32.8717 26.1092 32.8929 26.108 32.914 26.1061V27.2031Z" fill="#22184B"/>
<path d="M20.8877 10.8653C20.5015 10.8653 20.1885 11.1714 20.1885 11.5489V14.7775C20.1885 15.1549 20.5015 15.461 20.8877 15.461C21.2738 15.461 21.5869 15.1549 21.5869 14.7775V11.5489C21.5869 11.1714 21.2738 10.8653 20.8877 10.8653Z" fill="#22184B"/>
<path d="M21.382 16.6711C21.252 16.5439 21.0716 16.4708 20.8877 16.4708C20.7038 16.4708 20.5234 16.5439 20.3933 16.6711C20.2633 16.7982 20.1885 16.9746 20.1885 17.1544C20.1885 17.3342 20.2633 17.5105 20.3933 17.6376C20.5234 17.7648 20.7038 17.838 20.8877 17.838C21.0716 17.838 21.252 17.7648 21.382 17.6376C21.5121 17.5105 21.5869 17.3342 21.5869 17.1544C21.5869 16.9746 21.5121 16.7982 21.382 16.6711Z" fill="#22184B"/>
<path d="M21.382 19.2687C21.252 19.1416 21.0716 19.0685 20.8877 19.0685C20.7038 19.0685 20.5234 19.1415 20.3933 19.2687C20.2633 19.3959 20.1885 19.5723 20.1885 19.752C20.1885 19.9318 20.2633 20.1082 20.3933 20.2353C20.5234 20.3624 20.7038 20.4356 20.8877 20.4356C21.0716 20.4356 21.252 20.3625 21.382 20.2353C21.5121 20.1082 21.5869 19.9318 21.5869 19.752C21.5869 19.5723 21.5121 19.3959 21.382 19.2687Z" fill="#22184B"/>
<path d="M21.382 21.8664C21.252 21.7392 21.0715 21.6661 20.8877 21.6661C20.7038 21.6661 20.5234 21.7392 20.3933 21.8664C20.2633 21.9935 20.1885 22.1699 20.1885 22.3497C20.1885 22.5295 20.2633 22.7058 20.3933 22.8329C20.5234 22.96 20.7038 23.0333 20.8877 23.0333C21.0716 23.0333 21.252 22.9601 21.382 22.8329C21.5121 22.7058 21.5869 22.5295 21.5869 22.3497C21.5869 22.1699 21.5121 21.9935 21.382 21.8664Z" fill="#22184B"/>
<path d="M13.5529 1.70044C13.4229 1.5733 13.2425 1.50015 13.0586 1.50015C12.8747 1.50015 12.6943 1.57323 12.5642 1.70044C12.4342 1.82759 12.3594 2.00396 12.3594 2.18374C12.3594 2.36353 12.4342 2.5399 12.5642 2.66698C12.6943 2.79419 12.8746 2.86734 13.0586 2.86734C13.2425 2.86734 13.4229 2.79419 13.5529 2.66698C13.683 2.5399 13.7578 2.36353 13.7578 2.18374C13.7578 2.00396 13.683 1.82759 13.5529 1.70044Z" fill="#22184B"/>
<path d="M13.5529 4.60569C13.4229 4.47854 13.2425 4.4054 13.0586 4.4054C12.8747 4.4054 12.6943 4.47847 12.5642 4.60569C12.4342 4.73284 12.3594 4.90852 12.3594 5.08899C12.3594 5.26877 12.4342 5.44514 12.5642 5.57222C12.6943 5.69943 12.8746 5.77258 13.0586 5.77258C13.2425 5.77258 13.4229 5.69943 13.5529 5.57222C13.683 5.44514 13.7578 5.26877 13.7578 5.08899C13.7578 4.9092 13.683 4.73284 13.5529 4.60569Z" fill="#22184B"/>
<path d="M13.5529 7.51096C13.4229 7.38381 13.2425 7.31067 13.0586 7.31067C12.874 7.31067 12.6943 7.38374 12.5642 7.51096C12.4342 7.63811 12.3594 7.81379 12.3594 7.99426C12.3594 8.17405 12.4342 8.35041 12.5642 8.47749C12.6943 8.60471 12.8746 8.67785 13.0586 8.67785C13.2425 8.67785 13.4229 8.60471 13.5529 8.47749C13.683 8.35041 13.7578 8.17405 13.7578 7.99426C13.7578 7.81372 13.683 7.63811 13.5529 7.51096Z" fill="#22184B"/>
</svg>
