<svg width="52" height="52" viewBox="0 0 52 52" fill="none" xmlns="http://www.w3.org/2000/svg">
<path d="M16.6668 18.3909C16.4517 18.1759 16.1459 18.0787 15.8461 18.1298C15.5464 18.181 15.2901 18.3744 15.1587 18.6486L2.30582 45.4603C2.29879 45.4748 2.29213 45.4896 2.28594 45.5046C1.74412 46.8038 1.98138 48.1402 2.92057 49.0794C3.52745 49.6862 4.29988 50 5.12114 50C5.57091 50 6.03549 49.9058 6.49529 49.714C6.51029 49.7078 6.5251 49.701 6.53973 49.6941L33.3514 36.8414C33.6256 36.7099 33.8188 36.4536 33.8701 36.1539C33.9213 35.8542 33.824 35.5482 33.609 35.3332L16.6668 18.3909ZM16.277 20.6526L25.7608 30.1364C22.0913 29.9855 18.0643 28.5733 13.7501 25.9237L16.277 20.6526ZM5.75324 47.9919C5.4063 48.1322 4.7683 48.2756 4.24616 47.7535C3.72431 47.2316 3.86764 46.5935 4.00787 46.2466L6.53832 40.9681C8.34921 42.4851 10.1803 43.8334 12.0069 44.9941L5.75324 47.9919ZM24.1266 39.1842C23.0024 38.9052 21.8391 38.5202 20.6625 38.0352C20.1837 37.8377 19.6358 38.066 19.4385 38.5447C19.2413 39.0233 19.4693 39.5713 19.948 39.7686C20.5033 39.9975 21.0567 40.2051 21.6059 40.3926L14.0172 44.0305C11.8062 42.7112 9.57647 41.0968 7.37562 39.2214L9.9984 33.7501C10.8015 34.3842 11.6112 34.9884 12.4162 35.5527C12.5799 35.6675 12.7676 35.7227 12.9535 35.7227C13.2488 35.7227 13.5395 35.5834 13.7219 35.3232C14.0191 34.8994 13.9164 34.3148 13.4925 34.0175C12.6061 33.3961 11.713 32.7241 10.8299 32.0156L12.9354 27.6234C17.7467 30.5485 22.2695 32.0249 26.417 32.0249C26.8171 32.0249 27.2142 32.0107 27.6076 31.9831L31.3472 35.7227L24.1266 39.1842Z" fill="#22184B"/>
<path d="M20.2053 12.9255C20.3855 13.0892 20.6702 13.3477 20.7814 13.5041C20.6519 13.6496 20.3891 13.8882 20.2046 14.0558C19.6035 14.6028 19.2515 15.3512 19.2131 16.1631C19.1749 16.975 19.4552 17.7532 20.0022 18.3542C20.5491 18.9553 21.2976 19.3075 22.1095 19.3456C22.1585 19.348 22.2072 19.3491 22.256 19.3491C23.0145 19.3491 23.7358 19.0707 24.3004 18.5569C24.793 18.1095 25.3514 17.6023 25.8685 16.84C26.5637 15.8151 26.9016 14.7194 26.9016 13.4904C26.9016 10.7861 25.5194 9.53094 24.2998 8.42329C24.1197 8.25971 23.835 8.00117 23.7238 7.84481C23.853 7.69961 24.1152 7.46141 24.3005 7.29315C25.5413 6.16394 25.6322 4.23569 24.5029 2.99474C23.9559 2.39358 23.2074 2.04149 22.3956 2.00334C21.5853 1.96584 20.8063 2.2451 20.2053 2.79161C19.7127 3.23885 19.1544 3.7457 18.6367 4.50885C17.9415 5.53372 17.6035 6.62946 17.6035 7.85859C17.6036 10.563 18.9858 11.8182 20.2053 12.9255ZM22.1978 17.473C21.8861 17.4583 21.5989 17.3231 21.3889 17.0924C21.1789 16.8616 21.0714 16.5629 21.086 16.2512C21.1007 15.9395 21.2358 15.6522 21.4658 15.4429C21.6998 15.2304 21.9253 15.0254 22.1125 14.8251L23.0035 15.7252C23.4039 16.1297 23.4097 16.7796 23.0211 17.1846C22.7929 17.3846 22.5023 17.4875 22.1978 17.473ZM25.0269 13.4904C25.0269 14.0166 24.9407 14.4958 24.7614 14.9534C24.644 14.7588 24.5027 14.5747 24.336 14.4063L21.9241 11.97C21.9227 11.9686 21.9211 11.9674 21.9196 11.966C21.7718 11.8162 21.6162 11.6744 21.4656 11.5377C20.3554 10.5295 19.4783 9.73304 19.4783 7.85869C19.4783 7.33243 19.5645 6.85322 19.7438 6.39567C19.8612 6.59028 20.0025 6.77438 20.1692 6.94274L22.581 9.37907C22.5826 9.38067 22.5843 9.38198 22.5859 9.38357C22.7337 9.53318 22.8891 9.67483 23.0396 9.81141C24.1499 10.8196 25.0269 11.6161 25.0269 13.4904ZM22.2514 3.87479C22.27 3.87479 22.2888 3.87525 22.3076 3.8761C22.6193 3.89072 22.9066 4.02599 23.1165 4.25669C23.5501 4.73308 23.5152 5.47335 23.0381 5.90747C22.8046 6.11951 22.5797 6.32405 22.3929 6.52391L21.5018 5.62371C21.1013 5.21913 21.0956 4.56913 21.4844 4.16416C21.6985 3.97668 21.9679 3.87479 22.2514 3.87479Z" fill="#22184B"/>
<path d="M38.2508 15.0745C38.799 15.6228 39.5192 15.8968 40.2394 15.8968C40.9595 15.8968 41.6796 15.6227 42.2279 15.0745L43.5537 13.7487C44.6502 12.6522 44.6502 10.8681 43.5537 9.77156L42.2279 8.44587C41.1314 7.34948 39.3473 7.34929 38.2508 8.44587L36.925 9.77165C36.3953 10.3013 36.1035 11.0076 36.1035 11.7603C36.1035 12.5128 36.3952 13.2191 36.925 13.7488L38.2508 15.0745ZM38.2508 11.0973L39.5765 9.77165C39.7521 9.59607 39.9875 9.49933 40.2394 9.49933C40.4913 9.49933 40.7266 9.59607 40.9021 9.77165L42.2279 11.0973C42.4035 11.2729 42.5002 11.5083 42.5002 11.7602C42.5002 12.0121 42.4035 12.2473 42.2279 12.4229L40.9021 13.7487C40.7266 13.9243 40.4912 14.021 40.2394 14.021C39.9874 14.021 39.7521 13.9243 39.5765 13.7487L38.2508 12.4229C38.0752 12.2473 37.9784 12.012 37.9784 11.7602C37.9784 11.5084 38.0751 11.2729 38.2508 11.0973Z" fill="#22184B"/>
<path d="M49.0049 27.4972C48.4038 26.95 47.6258 26.6706 46.8136 26.708C46.0017 26.7463 45.2533 27.0984 44.7057 27.7003C44.5387 27.8841 44.3002 28.1468 44.1548 28.2763C43.9984 28.1651 43.7398 27.8803 43.576 27.7C42.4685 26.4806 41.2133 25.0986 38.5092 25.0986C37.2801 25.0986 36.1843 25.4364 35.1595 26.1317C34.3969 26.6491 33.8897 27.2075 33.443 27.6995C33.4314 27.7122 33.4207 27.7253 33.4095 27.7382C33.4093 27.7384 33.409 27.7386 33.4088 27.7389C32.8846 28.3345 32.6164 29.0963 32.6539 29.8908C32.6921 30.7027 33.0442 31.4512 33.6453 31.998C34.8861 33.1274 36.8144 33.0364 37.9453 31.7941C38.1119 31.6104 38.3501 31.3482 38.4954 31.2189C38.6518 31.33 38.9103 31.6147 39.0739 31.7949C40.1813 33.0145 41.4365 34.3967 44.141 34.3967C45.3701 34.3967 46.4658 34.0588 47.4907 33.3636C48.2529 32.8465 48.76 32.2883 49.2073 31.7958C50.3365 30.5546 50.2458 28.6264 49.0049 27.4972ZM46.093 28.9614C46.3029 28.7306 46.5902 28.5955 46.9019 28.5807C47.2138 28.5674 47.5123 28.6737 47.7431 28.8836C48.2137 29.312 48.2525 30.0393 47.835 30.5162C47.4301 30.9046 46.7803 30.8985 46.3759 30.4983L45.4758 29.6072C45.676 29.4202 45.8809 29.1949 46.093 28.9614ZM36.5573 30.5335C36.3473 30.7643 36.0599 30.8995 35.7483 30.9142C35.4354 30.9295 35.138 30.8213 34.9072 30.6113C34.6764 30.4014 34.5413 30.1141 34.5265 29.8025C34.5123 29.4985 34.615 29.2073 34.8155 28.9783C35.2208 28.5904 35.87 28.5966 36.2741 28.9965L37.1743 29.8877C36.9744 30.0747 36.7696 30.2998 36.5573 30.5335ZM40.4619 30.5344C40.325 30.3835 40.1829 30.2277 40.0329 30.0796C40.0317 30.0785 40.0307 30.0772 40.0296 30.076L37.5933 27.6641C37.4249 27.4974 37.2409 27.3562 37.0463 27.2387C37.5038 27.0594 37.9831 26.9732 38.5093 26.9732C40.3835 26.9732 41.1799 27.8501 42.1883 28.9605C42.3248 29.1107 42.4663 29.2661 42.6159 29.4137C42.6176 29.4154 42.619 29.4173 42.6207 29.4189L45.057 31.8308C45.2254 31.9975 45.4095 32.1388 45.6041 32.2563C45.1465 32.4356 44.6673 32.5218 44.1411 32.5218C42.2665 32.5217 41.4702 31.6447 40.4619 30.5344Z" fill="#22184B"/>
<path d="M46.4544 6.48353C46.972 6.48353 47.3918 6.06375 47.3918 5.54611C47.3918 5.02848 46.972 4.6087 46.4544 4.6087H46.4536C45.936 4.6087 45.5166 5.02848 45.5166 5.54611C45.5166 6.06375 45.9367 6.48353 46.4544 6.48353Z" fill="#22184B"/>
<path d="M33.6468 5.8068C34.1644 5.8068 34.5842 5.38703 34.5842 4.86939C34.5842 4.35175 34.1644 3.93198 33.6468 3.93198H33.6461C33.1285 3.93198 32.709 4.35175 32.709 4.86939C32.709 5.38703 33.1291 5.8068 33.6468 5.8068Z" fill="#22184B"/>
<path d="M30.7141 14.3077C31.2318 14.3077 31.6516 13.8879 31.6516 13.3703C31.6516 12.8527 31.2318 12.4329 30.7141 12.4329H30.7134C30.1958 12.4329 29.7764 12.8527 29.7764 13.3703C29.7764 13.8879 30.1965 14.3077 30.7141 14.3077Z" fill="#22184B"/>
<path d="M29.9983 22.9392C30.516 22.9392 30.9357 22.5194 30.9357 22.0018C30.9357 21.4841 30.516 21.0644 29.9983 21.0644H29.9976C29.4799 21.0644 29.0605 21.4841 29.0605 22.0018C29.0605 22.5194 29.4807 22.9392 29.9983 22.9392Z" fill="#22184B"/>
<path d="M46.1924 18.3528V18.3536C46.1924 18.8712 46.6122 19.2906 47.1298 19.2906C47.6474 19.2906 48.0672 18.8706 48.0672 18.3528C48.0672 17.8351 47.6474 17.4154 47.1298 17.4154C46.6122 17.4154 46.1924 17.8351 46.1924 18.3528Z" fill="#22184B"/>
<path d="M37.6924 21.286V21.2866C37.6924 21.8043 38.1122 22.2238 38.6298 22.2238C39.1474 22.2238 39.5672 21.8037 39.5672 21.286C39.5672 20.7683 39.1474 20.3486 38.6298 20.3486C38.1122 20.3486 37.6924 20.7683 37.6924 21.286Z" fill="#22184B"/>
<path d="M16.5179 36.1069H16.5171C15.9994 36.1069 15.5801 36.5267 15.5801 37.0443C15.5801 37.562 16.0001 37.9817 16.5179 37.9817C17.0356 37.9817 17.4553 37.562 17.4553 37.0443C17.4553 36.5267 17.0356 36.1069 16.5179 36.1069Z" fill="#22184B"/>
</svg>
