<svg width="38" height="38" viewBox="0 0 38 38" fill="none" xmlns="http://www.w3.org/2000/svg">
<path d="M12.1945 13.4518C12.0377 13.295 11.8147 13.2241 11.5961 13.2613C11.3776 13.2987 11.1907 13.4397 11.0949 13.6397L1.72299 33.1898C1.71787 33.2004 1.71301 33.2112 1.7085 33.2222C1.31342 34.1695 1.48642 35.1439 2.17125 35.8287C2.61377 36.2713 3.17699 36.5 3.77583 36.5C4.10379 36.5 4.44255 36.4313 4.77782 36.2915C4.78875 36.287 4.79955 36.2821 4.81022 36.277L24.3604 26.9052C24.5603 26.8094 24.7012 26.6225 24.7386 26.4039C24.776 26.1854 24.705 25.9623 24.5482 25.8055L12.1945 13.4518ZM11.9103 15.1009L18.8256 22.0162C16.1499 21.9061 13.2135 20.8764 10.0678 18.9444L11.9103 15.1009ZM4.23674 35.0358C3.98376 35.1381 3.51855 35.2427 3.13783 34.862C2.75731 34.4814 2.86182 34.0162 2.96408 33.7632L4.80919 29.9143C6.12963 31.0205 7.46477 32.0036 8.79669 32.8499L4.23674 35.0358ZM17.634 28.6135C16.8143 28.4101 15.966 28.1293 15.1081 27.7757C14.759 27.6317 14.3595 27.7982 14.2156 28.1472C14.0718 28.4962 14.2381 28.8958 14.5871 29.0397C14.992 29.2066 15.3955 29.3579 15.796 29.4947L10.2625 32.1473C8.65035 31.1853 7.02451 30.0082 5.41972 28.6407L7.33216 24.6512C7.91774 25.1135 8.50818 25.5541 9.09512 25.9656C9.21453 26.0493 9.35138 26.0895 9.48692 26.0895C9.70223 26.0895 9.91419 25.988 10.0472 25.7982C10.264 25.4892 10.189 25.0629 9.87995 24.8461C9.2336 24.393 8.58241 23.903 7.93845 23.3864L9.47373 20.1838C12.9819 22.3167 16.2798 23.3932 19.304 23.3932C19.5958 23.3932 19.8854 23.3828 20.1722 23.3627L22.899 26.0895L17.634 28.6135Z" fill="#22184B"/>
<path d="M14.7751 9.46649C14.9064 9.58584 15.114 9.77435 15.1952 9.88844C15.1007 9.99452 14.9091 10.1685 14.7746 10.2907C14.3362 10.6895 14.0796 11.2353 14.0516 11.8273C14.0237 12.4193 14.2281 12.9867 14.6269 13.4249C15.0258 13.8632 15.5715 14.12 16.1635 14.1478C16.1993 14.1496 16.2348 14.1504 16.2703 14.1504C16.8235 14.1504 17.3494 13.9474 17.7611 13.5727C18.1203 13.2465 18.5274 12.8767 18.9045 12.3208C19.4114 11.5735 19.6578 10.7746 19.6578 9.87839C19.6578 7.90654 18.6499 6.9913 17.7606 6.18364C17.6293 6.06437 17.4218 5.87585 17.3406 5.76184C17.4349 5.65596 17.6261 5.48227 17.7611 5.35958C18.6659 4.5362 18.7321 3.13018 17.9087 2.22533C17.5099 1.78698 16.9641 1.53025 16.3721 1.50243C15.7813 1.47509 15.2133 1.67871 14.7751 2.07721C14.4159 2.40332 14.0088 2.7729 13.6313 3.32936C13.1243 4.07666 12.8779 4.87564 12.8779 5.77188C12.878 7.74386 13.8859 8.65911 14.7751 9.46649ZM16.2279 12.7824C16.0006 12.7717 15.7912 12.6731 15.6381 12.5048C15.485 12.3366 15.4066 12.1188 15.4172 11.8915C15.428 11.6642 15.5265 11.4547 15.6942 11.3021C15.8648 11.1472 16.0292 10.9977 16.1657 10.8516L16.8154 11.5079C17.1074 11.8029 17.1116 12.2768 16.8282 12.5721C16.6619 12.7179 16.45 12.793 16.2279 12.7824ZM18.2908 9.87839C18.2908 10.2621 18.228 10.6115 18.0972 10.9452C18.0116 10.8033 17.9086 10.669 17.787 10.5463L16.0284 8.76977C16.0274 8.76875 16.0262 8.76786 16.0251 8.76683C15.9173 8.65761 15.8038 8.55426 15.6941 8.45453C14.8845 7.71939 14.245 7.13867 14.245 5.77195C14.245 5.38822 14.3078 5.0388 14.4386 4.70517C14.5241 4.84707 14.6272 4.98131 14.7487 5.10408L16.5073 6.88057C16.5085 6.88173 16.5098 6.88269 16.511 6.88385C16.6187 6.99294 16.732 7.09622 16.8417 7.19581C17.6514 7.93095 18.2908 8.51174 18.2908 9.87839ZM16.267 2.86702C16.2806 2.86702 16.2943 2.86737 16.308 2.86798C16.5353 2.87864 16.7448 2.97728 16.8978 3.14549C17.214 3.49286 17.1885 4.03264 16.8406 4.34919C16.6704 4.5038 16.5064 4.65295 16.3702 4.79868L15.7205 4.14228C15.4284 3.84727 15.4242 3.37331 15.7077 3.07803C15.8639 2.94132 16.0603 2.86702 16.267 2.86702Z" fill="#22184B"/>
<path d="M27.9329 11.0336C28.3327 11.4334 28.8578 11.6332 29.3829 11.6332C29.908 11.6332 30.4331 11.4333 30.8329 11.0336L31.7996 10.0669C32.5991 9.26735 32.5991 7.96646 31.7996 7.16687L30.8329 6.20022C30.0334 5.40077 28.7325 5.40063 27.9329 6.20022L26.9662 7.16693C26.58 7.55313 26.3672 8.06817 26.3672 8.61697C26.3672 9.16571 26.5799 9.68068 26.9662 10.0669L27.9329 11.0336ZM27.9329 8.13358L28.8996 7.16693C29.0276 7.03891 29.1993 6.96837 29.3829 6.96837C29.5666 6.96837 29.7382 7.03891 29.8662 7.16693L30.8329 8.13358C30.9609 8.2616 31.0315 8.43324 31.0315 8.6169C31.0315 8.80057 30.9609 8.97213 30.8329 9.10016L29.8662 10.0669C29.7382 10.1949 29.5665 10.2654 29.3829 10.2654C29.1992 10.2654 29.0276 10.1949 28.8996 10.0669L27.9329 9.10016C27.8049 8.97213 27.7343 8.8005 27.7343 8.6169C27.7343 8.43331 27.8048 8.2616 27.9329 8.13358Z" fill="#22184B"/>
<path d="M35.7748 20.0917C35.3364 19.6927 34.7692 19.489 34.177 19.5163C33.585 19.5442 33.0392 19.8009 32.6399 20.2398C32.5182 20.3738 32.3443 20.5653 32.2382 20.6598C32.1242 20.5787 31.9356 20.371 31.8162 20.2396C31.0087 19.3504 30.0934 18.3427 28.1217 18.3427C27.2254 18.3427 26.4264 18.5891 25.6791 19.096C25.1231 19.4733 24.7533 19.8804 24.4275 20.2392C24.4191 20.2485 24.4113 20.258 24.4031 20.2674C24.403 20.2675 24.4028 20.2677 24.4026 20.2679C24.0204 20.7023 23.8248 21.2577 23.8521 21.8371C23.88 22.4291 24.1368 22.9748 24.575 23.3736C25.4798 24.1971 26.8858 24.1307 27.7104 23.2248C27.832 23.0909 28.0057 22.8997 28.1116 22.8054C28.2256 22.8865 28.4141 23.0941 28.5334 23.2254C29.3409 24.1147 30.2562 25.1226 32.2282 25.1226C33.1244 25.1226 33.9234 24.8762 34.6707 24.3693C35.2265 23.9922 35.5962 23.5852 35.9224 23.2261C36.7457 22.3211 36.6796 20.915 35.7748 20.0917ZM33.6515 21.1593C33.8046 20.991 34.0141 20.8926 34.2414 20.8818C34.4688 20.872 34.6864 20.9496 34.8547 21.1026C35.1979 21.415 35.2261 21.9453 34.9217 22.293C34.6265 22.5763 34.1526 22.5718 33.8578 22.28L33.2015 21.6302C33.3474 21.4939 33.4969 21.3296 33.6515 21.1593ZM26.6984 22.3057C26.5453 22.474 26.3357 22.5725 26.1085 22.5833C25.8804 22.5944 25.6635 22.5155 25.4952 22.3624C25.3269 22.2094 25.2284 21.9999 25.2176 21.7727C25.2072 21.551 25.2821 21.3386 25.4283 21.1716C25.7238 20.8888 26.1973 20.8933 26.4919 21.185L27.1483 21.8347C27.0025 21.9711 26.8532 22.1353 26.6984 22.3057ZM29.5455 22.3063C29.4457 22.1963 29.3421 22.0827 29.2327 21.9747C29.2318 21.9739 29.2311 21.9729 29.2303 21.972L27.4538 20.2134C27.331 20.0919 27.1968 19.9889 27.0549 19.9032C27.3886 19.7725 27.7381 19.7096 28.1217 19.7096C29.4883 19.7096 30.069 20.349 30.8044 21.1586C30.9039 21.2682 31.007 21.3815 31.1161 21.4891C31.1174 21.4904 31.1184 21.4917 31.1196 21.493L32.8961 23.2516C33.0189 23.3731 33.1531 23.4762 33.295 23.5619C32.9614 23.6926 32.612 23.7554 32.2282 23.7554C30.8614 23.7554 30.2807 23.1159 29.5455 22.3063Z" fill="#22184B"/>
<path d="M33.9143 4.76931C34.2917 4.76931 34.5978 4.46323 34.5978 4.08578C34.5978 3.70834 34.2917 3.40225 33.9143 3.40225H33.9137C33.5363 3.40225 33.2305 3.70834 33.2305 4.08578C33.2305 4.46323 33.5368 4.76931 33.9143 4.76931Z" fill="#22184B"/>
<path d="M24.5764 4.27589C24.9538 4.27589 25.2599 3.9698 25.2599 3.59236C25.2599 3.21491 24.9538 2.90883 24.5764 2.90883H24.5759C24.1985 2.90883 23.8926 3.21491 23.8926 3.59236C23.8926 3.9698 24.1989 4.27589 24.5764 4.27589Z" fill="#22184B"/>
<path d="M22.4377 10.4744C22.8151 10.4744 23.1212 10.1684 23.1212 9.79091C23.1212 9.41347 22.8151 9.10738 22.4377 9.10738H22.4372C22.0597 9.10738 21.7539 9.41347 21.7539 9.79091C21.7539 10.1684 22.0603 10.4744 22.4377 10.4744Z" fill="#22184B"/>
<path d="M21.9152 16.7681C22.2927 16.7681 22.5988 16.462 22.5988 16.0846C22.5988 15.7071 22.2927 15.4011 21.9152 15.4011H21.9147C21.5373 15.4011 21.2314 15.7071 21.2314 16.0846C21.2314 16.462 21.5378 16.7681 21.9152 16.7681Z" fill="#22184B"/>
<path d="M33.7236 13.424V13.4246C33.7236 13.802 34.0297 14.1078 34.4072 14.1078C34.7846 14.1078 35.0907 13.8015 35.0907 13.424C35.0907 13.0465 34.7846 12.7405 34.4072 12.7405C34.0297 12.7405 33.7236 13.0465 33.7236 13.424Z" fill="#22184B"/>
<path d="M27.5254 15.5627V15.5632C27.5254 15.9406 27.8315 16.2465 28.2089 16.2465C28.5864 16.2465 28.8924 15.9402 28.8924 15.5627C28.8924 15.1852 28.5864 14.8792 28.2089 14.8792C27.8315 14.8792 27.5254 15.1852 27.5254 15.5627Z" fill="#22184B"/>
<path d="M12.0861 26.3698H12.0856C11.7081 26.3698 11.4023 26.6758 11.4023 27.0533C11.4023 27.4307 11.7086 27.7368 12.0861 27.7368C12.4637 27.7368 12.7697 27.4307 12.7697 27.0533C12.7697 26.6758 12.4637 26.3698 12.0861 26.3698Z" fill="#22184B"/>
</svg>
