<svg width="38" height="38" viewBox="0 0 38 38" fill="none" xmlns="http://www.w3.org/2000/svg">
<path d="M25.4407 32.9474C25.4474 32.8823 25.4399 32.8163 25.4179 32.7531L24.3959 24.0622C24.3959 24.0617 24.3958 24.0612 24.3958 24.0607L22.9764 11.9894H25.0232C25.3597 11.9894 25.6324 11.7572 25.6324 11.4709C25.6324 11.1845 25.3597 10.9524 25.0232 10.9524H21.8359C21.5578 9.90734 20.4585 9.1245 19.1478 9.1245C17.837 9.1245 16.7378 9.90734 16.4597 10.9524H12.8152C12.4787 10.9524 12.2061 11.1845 12.2061 11.4709C12.2061 11.7572 12.4787 11.9894 12.8152 11.9894H15.3191L13.5773 26.8034C13.5439 27.0884 13.7881 27.3425 14.1228 27.3709C14.1435 27.3727 14.1639 27.3736 14.1842 27.3736C14.4934 27.3736 14.7581 27.174 14.7897 26.9066L14.9843 25.2513L18.2863 28.0618L14.2499 31.4973L14.5134 29.2557C14.5469 28.9707 14.3027 28.7166 13.9679 28.6882C13.6335 28.6593 13.3346 28.8675 13.3011 29.1524L12.8778 32.7532C12.8558 32.8162 12.8482 32.8821 12.8549 32.9472L12.5043 35.9298C12.4872 36.0756 12.5433 36.2207 12.6587 36.3293C12.7742 36.4379 12.9383 36.4999 13.1105 36.4999H25.1852C25.3573 36.4999 25.5214 36.4379 25.6369 36.3293C25.7524 36.2207 25.8085 36.0756 25.7913 35.9298L25.4407 32.9474ZM22.9736 22.3796L20.0093 19.8566L22.4343 17.7926L22.9736 22.3796ZM23.3114 25.2514L24.0458 31.4974L20.0094 28.0619L23.3114 25.2514ZM19.1478 10.1615C19.996 10.1615 20.6862 10.7489 20.6862 11.4709C20.6862 12.1929 19.996 12.7803 19.1478 12.7803C18.2995 12.7803 17.6094 12.1929 17.6094 11.4709C17.6094 10.7489 18.2995 10.1615 19.1478 10.1615ZM19.1478 13.8172C20.3765 13.8172 21.4198 13.1293 21.7746 12.1823L22.2776 16.4595L19.1478 19.1233L16.0181 16.4594L16.521 12.1823C16.8759 13.1293 17.9191 13.8172 19.1478 13.8172ZM15.8613 17.7926L18.2863 19.8566L15.3219 22.3796L15.8613 17.7926ZM15.1892 23.9592L19.1479 20.5899L23.1066 23.9593L19.148 27.3286L15.1892 23.9592ZM13.7836 35.463L14.0583 33.1269L19.1478 28.7951L24.2373 33.1269L24.512 35.463H13.7836Z" fill="#22184B"/>
<path d="M16.7086 7.70629C16.7086 6.63033 17.737 5.755 19.0012 5.755C20.2653 5.755 21.2938 6.63033 21.2938 7.70629C21.2938 7.99263 21.5664 8.22477 21.9029 8.22477C22.2394 8.22477 22.5121 7.99263 22.5121 7.70629C22.5121 6.05855 20.9371 4.71803 19.0012 4.71803C17.0652 4.71803 15.4902 6.05855 15.4902 7.70629C15.4902 7.99263 15.7629 8.22477 16.0994 8.22477C16.4359 8.22477 16.7086 7.99263 16.7086 7.70629Z" fill="#22184B"/>
<path d="M19.0007 1.5C14.98 1.5 11.709 4.28411 11.709 7.70624C11.709 7.99258 11.9816 8.22472 12.3182 8.22472C12.6547 8.22472 12.9273 7.99258 12.9273 7.70624C12.9273 4.8559 15.6518 2.53697 19.0007 2.53697C22.3495 2.53697 25.074 4.8559 25.074 7.70624C25.074 7.99258 25.3466 8.22472 25.6831 8.22472C26.0197 8.22472 26.2923 7.99258 26.2923 7.70624C26.2923 4.28411 23.0213 1.5 19.0007 1.5Z" fill="#22184B"/>
</svg>
