<svg width="56" height="56" viewBox="0 0 56 56" fill="none" xmlns="http://www.w3.org/2000/svg">
<path d="M53.4536 26.0091L24.0738 9.63648C21.8077 8.3716 18.7059 9.05352 17.212 11.1366L11.5204 19.0645C10.9618 19.8435 10.6667 20.7566 10.6667 21.7068C10.6667 23.3484 11.5723 24.8774 13.029 25.6965L19.2253 29.1831L18.1059 30.6385C17.4997 31.4257 17.1665 32.4018 17.1665 33.3861C17.1665 34.3983 17.5469 35.3505 18.1598 36.1376L16.5106 38.5555H8.49994V35.3784C8.49994 34.7945 8.01539 34.3333 7.41658 34.3333H3.08336C2.48455 34.3333 2 34.7945 2 35.3784V45.9435C2 46.5275 2.48455 47 3.08336 47H7.41669C8.01549 47 8.50004 46.5275 8.50004 45.9435V44.8889H16.5107C18.689 44.8889 20.7107 43.8346 21.9189 42.0673L23.6946 39.4697C24.0365 39.542 24.3814 39.6076 24.7339 39.6076C26.4584 39.6076 28.0812 38.712 28.9679 37.2697L30.1582 35.335L39.3779 40.5229C39.544 40.6168 39.7312 40.6642 39.9195 40.6642C40.0243 40.6642 40.1291 40.6497 40.2316 40.6199C40.5173 40.5352 40.7553 40.3402 40.8886 40.0802L41.6907 38.5138C41.8223 38.5235 41.9489 38.5512 42.083 38.5512C46.264 38.5512 49.6663 35.2332 49.6663 31.1557C49.6663 30.7079 49.5985 30.2464 49.4976 29.7747L53.4008 27.8716C53.7584 27.6973 53.9879 27.3455 53.9996 26.9555C54.0101 26.5663 53.8007 26.2021 53.4536 26.0091ZM6.33333 44.8889H4.16661V36.4445H6.33323V44.8889H6.33333ZM20.116 40.9007C19.311 42.0779 17.9631 42.7809 16.5106 42.7809H8.49994V40.6698H16.5106C17.2385 40.6698 17.9124 40.3183 18.3133 39.7297L19.8135 37.5364L21.6739 38.6238L20.116 40.9007ZM27.1101 36.1919C26.3526 37.4195 24.57 37.8566 23.3089 37.1175L20.5615 35.5115C19.8041 35.0693 19.3332 34.2591 19.3332 33.3984C19.3332 32.8685 19.5131 32.3439 19.8389 31.9191L21.1149 30.2615L28.2811 34.2902L27.1101 36.1919ZM39.4645 38.1402L14.1112 23.887C13.3231 23.4437 12.8333 22.6171 12.8333 21.7295C12.8333 21.2151 12.993 20.7213 13.2956 20.2997L16.0155 16.5146L42.8244 31.5844L39.4645 38.1402ZM42.7892 36.3779L45.0568 31.9531L47.4633 30.7808C47.4754 30.9104 47.4996 31.0444 47.4996 31.1697C47.4996 33.8441 45.4396 36.0365 42.7892 36.3779ZM44.2864 29.9685L17.2631 14.7784L18.9873 12.379C19.5576 11.5853 20.4906 11.1111 21.4851 11.1111C22.0151 11.1111 22.5388 11.2461 22.999 11.5027L50.6216 26.8826L44.2864 29.9685Z" fill="#2333A4"/>
<path d="M37.7494 34.3333C38.3477 34.3333 38.8327 33.8607 38.8327 33.2778C38.8327 32.6948 38.3477 32.2222 37.7494 32.2222C37.1511 32.2222 36.666 32.6948 36.666 33.2778C36.666 33.8607 37.1511 34.3333 37.7494 34.3333Z" fill="#2333A4"/>
</svg>
