<svg width="56" height="56" viewBox="0 0 56 56" fill="none" xmlns="http://www.w3.org/2000/svg">
<path d="M3.73333 49H52.2667C53.224 49 54 48.2325 54 47.2857V39.5714C54 27.532 42.8027 17.6989 28.8667 17.3046V15.3083C30.4807 14.6162 31.5091 13.0251 31.4667 11.2857C31.5774 9.04026 29.8361 7.1268 27.5667 7C26.0348 7.04439 24.6732 7.97692 24.0922 9.37943L22.2072 8.758C21.7525 8.60841 21.2613 8.85171 21.11 9.30143C20.9587 9.75115 21.2048 10.237 21.6595 10.3866L23.6883 11.0551C23.6883 11.134 23.6667 11.2077 23.6667 11.2874C23.5851 13.3596 25.0673 15.1714 27.1333 15.5251V17.3063C13.1973 17.6989 2 27.532 2 39.5714V47.2857C2 48.2325 2.77604 49 3.73333 49ZM22.8 47.2857V31.8571C22.8 31.3838 23.188 31 23.6667 31H32.3333C32.812 31 33.2 31.3838 33.2 31.8571V47.2857H22.8ZM34.9333 47.2857V31.8571C34.9333 30.437 33.7693 29.2857 32.3333 29.2857H23.6667C22.2307 29.2857 21.0667 30.437 21.0667 31.8571V47.2857H7.2V39.5714C7.2 30.1189 16.5314 22.4286 28 22.4286C39.4686 22.4286 48.8 30.1189 48.8 39.5714V47.2857H34.9333ZM25.4295 11.6286L26.8595 12.1C27.3142 12.2496 27.8054 12.0063 27.9567 11.5566C28.1079 11.1069 27.8619 10.621 27.4072 10.4714L25.7371 9.92114C26.0704 9.21181 26.7765 8.74607 27.5667 8.71429C28.8768 8.84407 29.8405 9.98778 29.7333 11.2857C29.8405 12.5837 28.8768 13.7274 27.5667 13.8571C26.3867 13.7563 25.4689 12.7993 25.4295 11.6286ZM3.73333 39.5714C3.73333 28.2289 14.6195 19 28 19C41.3805 19 52.2667 28.2289 52.2667 39.5714V47.2857H50.5333V39.5714C50.5333 29.1734 40.4254 20.7143 28 20.7143C15.5746 20.7143 5.46667 29.1734 5.46667 39.5714V47.2857H3.73333V39.5714Z" fill="#2333A4"/>
<path d="M31.4665 39.5715V33.5715C31.4665 33.0981 31.0785 32.7144 30.5999 32.7144H25.3999C24.9212 32.7144 24.5332 33.0981 24.5332 33.5715V39.5715C24.5332 40.0449 24.9212 40.4287 25.3999 40.4287H30.5999C31.0785 40.4287 31.4665 40.0449 31.4665 39.5715ZM29.7332 38.7144H26.2665V34.4286H29.7332V38.7144Z" fill="#2333A4"/>
<path d="M31.4667 42.1428H30.6001C30.1214 42.1428 29.7334 42.5266 29.7334 43C29.7334 43.4733 30.1214 43.8571 30.6001 43.8571H31.4667C31.9454 43.8571 32.3334 43.4733 32.3334 43C32.3334 42.5266 31.9454 42.1428 31.4667 42.1428Z" fill="#2333A4"/>
<path d="M18.4667 34.0739C17.7898 33.4047 16.6926 33.4047 16.0158 34.0739L15.657 34.4288H10.6667C9.70942 34.4288 8.93338 35.1963 8.93338 36.1431V41.0777L8.57458 41.4325C8.24937 41.754 8.06665 42.1902 8.06665 42.6449C8.06665 43.0997 8.24937 43.5359 8.57458 43.8574L9.80005 45.0694C10.4769 45.7386 11.5741 45.7386 12.251 45.0694L12.6098 44.7145H17.6C18.5573 44.7145 19.3334 43.947 19.3334 43.0002V38.0657L19.6922 37.7108C20.0174 37.3893 20.2001 36.9531 20.2001 36.4984C20.2001 36.0436 20.0174 35.6075 19.6922 35.2859L18.4667 34.0739ZM10.6667 36.1431H13.9236L10.6667 39.3634V36.1431ZM11.0264 43.8574L9.80005 42.6454L17.2412 35.2859L18.4667 36.4979L11.0264 43.8574ZM17.6 43.0002H14.3431L17.6 39.7799V43.0002Z" fill="#2333A4"/>
<path d="M46.1999 34.0739C45.523 33.4047 44.4258 33.4047 43.7489 34.0739L43.3901 34.4288H38.3999C37.4426 34.4288 36.6665 35.1963 36.6665 36.1431V41.0777L36.3077 41.4325C35.9825 41.754 35.7998 42.1902 35.7998 42.6449C35.7998 43.0997 35.9825 43.5359 36.3077 43.8574L37.5332 45.0694C38.2101 45.7386 39.3073 45.7386 39.9841 45.0694L40.3429 44.7145H45.3332C46.2905 44.7145 47.0665 43.947 47.0665 43.0002V38.0657L47.4253 37.7108C47.7505 37.3893 47.9333 36.9531 47.9333 36.4984C47.9333 36.0436 47.7505 35.6075 47.4253 35.2859L46.1999 34.0739ZM38.3999 36.1431H41.6568L38.3999 39.3634V36.1431ZM38.7595 43.8574L37.5332 42.6454L44.9744 35.2859L46.1999 36.4979L38.7595 43.8574ZM45.3332 43.0002H42.0763L45.3332 39.7799V43.0002Z" fill="#2333A4"/>
<path d="M27.9999 23.2856C26.564 23.2856 25.3999 24.4369 25.3999 25.8571C25.3999 27.2772 26.564 28.4285 27.9999 28.4285C29.4358 28.4285 30.5999 27.2772 30.5999 25.8571C30.5999 24.4369 29.4358 23.2856 27.9999 23.2856ZM27.9999 26.7142C27.5213 26.7142 27.1332 26.3305 27.1332 25.8571C27.1332 25.3837 27.5213 24.9999 27.9999 24.9999C28.4785 24.9999 28.8666 25.3837 28.8666 25.8571C28.8666 26.3305 28.4785 26.7142 27.9999 26.7142Z" fill="#2333A4"/>
</svg>
