<svg width="52" height="52" viewBox="0 0 52 52" fill="none" xmlns="http://www.w3.org/2000/svg">
<path d="M43.6719 21.099C44.0603 21.099 44.375 20.7855 44.375 20.3987C44.375 20.012 44.0603 19.6985 43.6719 19.6985H39.1719C38.7835 19.6985 38.4688 20.012 38.4688 20.3987C38.4688 20.7855 38.7835 21.099 39.1719 21.099H43.6719ZM10.5781 17.4576C10.1897 17.4576 9.875 17.7711 9.875 18.1579V19.6985H8.32812C7.93972 19.6985 7.625 20.012 7.625 20.3987C7.625 20.7855 7.93972 21.099 8.32812 21.099H9.875V22.6396C9.875 23.0264 10.1897 23.3399 10.5781 23.3399C10.9665 23.3399 11.2812 23.0264 11.2812 22.6396V21.099H12.8281C13.2165 21.099 13.5312 20.7855 13.5312 20.3987C13.5312 20.012 13.2165 19.6985 12.8281 19.6985H11.2812V18.1579C11.2812 17.7711 10.9665 17.4576 10.5781 17.4576ZM47.8906 16.057C49.0537 16.057 50 15.1147 50 13.9562V12.2899C50 11.1315 49.0537 10.1891 47.8906 10.1891H44.375V8.12043C44.375 7.2195 43.639 6.48646 42.7344 6.48646H38.852C37.9474 6.48646 37.2114 7.2195 37.2114 8.12043V10.1891H33.1272V7.63397C33.1272 6.73305 32.3911 6 31.4865 6H20.5136C19.609 6 18.8729 6.73305 18.8729 7.63397V10.1891H14.7887V8.12043C14.7887 7.2195 14.0527 6.48646 13.1481 6.48646H9.26562C8.36103 6.48646 7.625 7.2195 7.625 8.12043V10.1891H4.10938C2.94631 10.1891 2 11.1315 2 12.2899V13.9562C2 15.1147 2.94631 16.057 4.10938 16.057H4.8125V34.2982C4.8125 34.685 5.12722 34.9985 5.51562 34.9985C5.90403 34.9985 6.21875 34.685 6.21875 34.2982V16.057H28.4429C28.8313 16.057 29.1461 15.7435 29.1461 15.3568C29.1461 14.97 28.8313 14.6565 28.4429 14.6565H4.10938C3.72162 14.6565 3.40625 14.3423 3.40625 13.9562V12.2899C3.40625 11.9039 3.72162 11.5897 4.10938 11.5897H47.8906C48.2784 11.5897 48.5938 11.9039 48.5938 12.2899V13.9562C48.5938 14.3423 48.2784 14.6565 47.8906 14.6565H31.7242C31.3358 14.6565 31.0211 14.97 31.0211 15.3568C31.0211 15.7435 31.3358 16.057 31.7242 16.057H45.7812V40.1321H6.21875V37.5662C6.21875 37.1794 5.90403 36.8659 5.51562 36.8659C5.12722 36.8659 4.8125 37.1794 4.8125 37.5662V40.1321H4.10938C2.94631 40.1321 2 41.0745 2 42.2329V43.8992C2 45.0576 2.94631 46 4.10938 46H47.8906C49.0537 46 50 45.0576 50 43.8992V42.2329C50 41.0745 49.0537 40.1321 47.8906 40.1321H47.1875V16.057H47.8906ZM13.3824 10.1891H9.03125V8.12043C9.03125 7.99176 9.13634 7.887 9.26562 7.887H13.148C13.2773 7.887 13.3824 7.99176 13.3824 8.12043V10.1891ZM31.7208 10.1891H20.2792V7.63397C20.2792 7.50531 20.3843 7.40055 20.5136 7.40055H31.4865C31.6158 7.40055 31.7209 7.50531 31.7209 7.63397V10.1891H31.7208ZM42.9688 10.1891H38.6176V8.12043C38.6176 7.99176 38.7227 7.887 38.852 7.887H42.7344C42.8637 7.887 42.9688 7.99176 42.9688 8.12043V10.1891ZM47.8906 41.5326C48.2784 41.5326 48.5938 41.8468 48.5938 42.2329V43.8992C48.5938 44.2853 48.2784 44.5994 47.8906 44.5994H4.10938C3.72162 44.5994 3.40625 44.2853 3.40625 43.8992V42.2329C3.40625 41.8468 3.72162 41.5326 4.10938 41.5326H47.8906ZM30.4794 19.8361C30.6903 19.2937 30.618 18.6842 30.2861 18.2057C29.9388 17.7051 29.3552 17.4076 28.7223 17.4076C28.7114 17.4076 28.7001 17.4077 28.689 17.408C28.2526 17.4221 27.8224 17.6272 27.4105 18.0173C25.7037 19.6347 23.9625 21.2739 22.2788 22.8592C21.2637 23.815 20.2486 24.7706 19.2346 25.7275C18.7866 26.1502 18.5653 26.7211 18.6273 27.2935C18.6887 27.8596 19.0216 28.3631 19.5405 28.675C20.928 29.5093 22.3235 30.29 23.7131 31.0822C22.9335 32.9212 22.2201 34.5472 21.5198 36.3491C21.1821 37.2179 21.5699 38.1828 22.4219 38.5936C23.1905 38.9642 24.1028 38.6266 24.5879 38.1693C27.2236 35.6854 30.1137 32.9641 32.7656 30.4586C33.2186 30.0306 33.4391 29.4566 33.3704 28.8838C33.301 28.3032 32.9442 27.7887 32.3916 27.4723C31.5068 26.9654 30.6236 26.4558 29.7404 25.9462C29.2563 25.6669 28.7722 25.3875 28.2877 25.1085C28.3769 24.899 28.4665 24.6895 28.5559 24.4799C29.2028 22.9652 29.8716 21.3991 30.4794 19.8361ZM27.1855 26.0916C28.6879 26.9553 30.1871 27.8244 31.6907 28.6862C32.0175 28.8735 32.0734 29.1821 31.798 29.4424C29.1048 31.9867 26.3261 34.6047 23.6217 37.1519C23.1693 37.578 22.6578 37.3016 22.8313 36.8544C23.5781 34.9305 24.3553 33.1656 25.1937 31.1896C25.3317 30.8647 25.3146 30.3832 24.8127 30.0958C23.2992 29.2288 21.7721 28.3809 20.2675 27.476C19.9663 27.2949 19.9485 26.9832 20.2019 26.7441C22.9329 24.1668 25.6362 21.6309 28.3798 19.032C28.5866 18.8362 28.6988 18.8111 28.7294 18.8081C28.8996 18.8099 29.0448 18.8801 29.1293 19.0017C29.178 19.072 29.2243 19.186 29.1682 19.3302C28.4292 21.2296 27.6011 23.1316 26.8085 24.9953C26.6258 25.4247 26.7738 25.855 27.1855 26.0916Z" fill="#162173"/>
</svg>
