<svg width="56" height="56" viewBox="0 0 56 56" fill="none" xmlns="http://www.w3.org/2000/svg">
<path d="M21.9206 37.4349L21.5714 39.2735H20.2831C18.5736 39.2839 17.0132 40.2076 16.2392 41.6676L12.7191 48.4174C12.7145 48.4277 12.7127 48.439 12.7082 48.4494C12.7037 48.4598 12.6946 48.4884 12.6865 48.5075C12.6543 48.5909 12.6357 48.6786 12.6313 48.7674C12.6313 48.7787 12.6241 48.7891 12.6241 48.8012V51.4006C12.6241 52.8362 13.8392 54 15.3381 54H40.6655C42.1644 54 43.3795 52.8362 43.3795 51.4006V48.8047C43.3795 48.7925 43.3732 48.7821 43.3723 48.7709C43.368 48.682 43.3493 48.5943 43.3171 48.5109C43.309 48.4919 43.3045 48.4719 43.2954 48.4529C43.2864 48.4338 43.2891 48.4312 43.2846 48.4208L39.7608 41.665C38.9861 40.206 37.4258 39.2834 35.7169 39.2735H34.4287L34.0794 37.4349C42.8937 34.5835 48.2554 26.0381 46.7469 17.2455C45.2383 8.45282 37.3035 2 28 2C18.6965 2 10.7617 8.45282 9.25315 17.2455C7.74462 26.0381 13.1063 34.5835 21.9206 37.4349ZM41.5702 51.4041C41.5702 51.8826 41.1651 52.2705 40.6655 52.2705H15.3345C14.8349 52.2705 14.4298 51.8826 14.4298 51.4041V49.6711H41.5702V51.4041ZM35.7169 41.0064C36.7433 41.0121 37.6805 41.566 38.146 42.4422L41.012 47.9382H14.988L17.8522 42.4448C18.3175 41.5673 19.2556 41.0123 20.2831 41.0064H21.243L21.167 41.4059C21.0222 42.1648 21.2369 42.946 21.753 43.5383C22.269 44.1306 23.033 44.4728 23.8385 44.4723H32.1615C32.9665 44.4722 33.7298 44.1299 34.2454 43.5379C34.761 42.9459 34.9756 42.1652 34.8312 41.4068L34.757 41.0064H35.7169ZM33.0526 41.7178C33.1007 41.9708 33.029 42.2311 32.8568 42.4284C32.6847 42.6258 32.43 42.7397 32.1615 42.7394H23.8385C23.5701 42.7392 23.3157 42.625 23.144 42.4275C22.9722 42.23 22.9009 41.9698 22.9492 41.717L23.6729 37.9114C26.5188 38.5723 29.4884 38.5723 32.3343 37.9114L33.0526 41.7178ZM28 3.74833C37.4932 3.74833 45.1889 11.119 45.1889 20.2112C45.1889 29.3034 37.4932 36.6741 28 36.6741C18.5068 36.6741 10.8111 29.3034 10.8111 20.2112C10.8216 11.1232 18.5112 3.75836 28 3.74833Z" fill="#2333A4"/>
<path d="M15.4669 28.9851C16.5123 30.4196 17.8874 31.6053 19.4864 32.451C20.2944 32.8747 21.1858 33.1326 22.1036 33.2083H22.2737C24.5716 33.2083 26.4488 30.5785 27.861 25.3997C27.908 25.3997 27.9515 25.4066 28.0003 25.4066C29.3193 25.4065 30.5926 24.9442 31.5801 24.1069C32.4843 24.7398 33.0606 25.7144 33.1624 26.7825C32.2584 27.454 31.2192 27.939 30.11 28.207C29.8567 28.2694 29.6043 28.3162 29.3438 28.3552C28.877 28.4251 28.545 28.8271 28.5815 29.2782C28.618 29.7293 29.0107 30.0775 29.4831 30.0777C29.5303 30.0777 29.5775 30.0742 29.6242 30.0673C29.9427 30.0197 30.2512 29.9616 30.5524 29.888C31.5159 29.6522 32.438 29.282 33.2891 28.7893C33.2873 29.2681 33.3235 29.7463 33.3976 30.2198C31.7415 31.0795 29.8839 31.5205 28.0003 31.5013H27.8918C27.3921 31.5013 26.9871 31.8893 26.9871 32.3678C26.9871 32.8463 27.3921 33.2343 27.8918 33.2343H28.0003C30.2237 33.2541 32.4146 32.7227 34.3602 31.692C34.6587 31.8631 35.0002 31.953 35.3481 31.9519C35.6656 31.9474 35.9811 31.9025 36.2863 31.8185C38.6574 31.2119 40.8694 29.1567 42.2038 26.3268C43.511 23.5541 43.7037 20.6332 42.7086 18.7123C41.6528 16.6466 38.4086 16.3563 32.8159 17.8215C32.1719 16.6376 31.0791 15.7347 29.7617 15.2984C29.9125 14.2314 30.5307 13.2766 31.4616 12.673C32.4981 13.0995 33.4364 13.7179 34.2227 14.4926C34.4148 14.6854 34.596 14.8878 34.7655 15.0991C35.0723 15.4771 35.641 15.5454 36.0357 15.2516C36.4304 14.9578 36.5017 14.4131 36.1949 14.0351C35.9852 13.7759 35.7618 13.5272 35.5254 13.2899C34.8416 12.6159 34.0616 12.038 33.2086 11.5734C33.6382 11.3388 34.0462 11.0695 34.4281 10.7685C34.9998 11.1199 35.5386 11.5182 36.0384 11.959C36.948 12.7722 37.7201 13.7158 38.3272 14.756C38.4873 15.0302 38.7899 15.2 39.1179 15.1996C39.272 15.2 39.4235 15.1621 39.5576 15.0896C39.9936 14.8564 40.1499 14.329 39.9068 13.9112C39.2091 12.7148 38.3212 11.6297 37.2751 10.6948C36.643 10.1373 35.9565 9.63914 35.2251 9.20712C35.164 8.59546 34.8599 8.02967 34.3756 7.62668C32.6395 5.96393 29.6785 5.15291 26.4596 5.46051C23.2933 5.76031 20.5521 7.06001 19.3045 8.85187C17.9765 10.7581 19.3217 13.5836 23.4 17.468C22.6446 18.6148 22.3929 20.001 22.6998 21.3247C21.6496 21.7319 20.468 21.6913 19.4511 21.2129C19.3992 20.8799 19.375 20.5436 19.3787 20.2069C19.3769 19.4455 19.4847 18.6874 19.699 17.9541C19.7712 17.6959 19.8598 17.4422 19.964 17.1942C20.1522 16.7509 19.9294 16.2454 19.4665 16.0652C19.0036 15.885 18.4758 16.0984 18.2877 16.5418C18.1575 16.8512 18.0467 17.1677 17.9557 17.4897C17.6976 18.373 17.5676 19.2862 17.5694 20.2035V20.2849C17.143 20.0451 16.6952 19.8422 16.2313 19.6784C16.2547 19.0307 16.3404 18.3865 16.4874 17.754C16.7648 16.5711 17.2369 15.438 17.886 14.3973C18.0576 14.1307 18.0657 13.7963 17.9072 13.5224C17.7487 13.2485 17.4482 13.0778 17.1213 13.076C16.7944 13.0742 16.4918 13.2414 16.33 13.5135C15.5845 14.7095 15.0428 16.0117 14.7251 17.371C14.5348 18.1817 14.4308 19.0088 14.4147 19.8395C13.9137 20.1995 13.5692 20.7241 13.4476 21.3125C12.8153 23.5905 13.5707 26.4602 15.4669 28.9851ZM41.0856 19.4791C41.8365 20.9278 41.6284 23.3357 40.5536 25.6137C39.4409 27.9748 37.6704 29.6696 35.8149 30.1453C35.6537 30.1921 35.4867 30.2181 35.3183 30.2224H35.2739C35.1191 29.6929 35.058 29.1423 35.093 28.5935C35.0622 26.8605 35.0107 24.3478 32.7291 22.7509C33.322 21.758 33.5453 20.6016 33.3623 19.4713C38.367 18.1794 40.6378 18.604 41.0856 19.4791ZM31.619 20.2113C31.619 22.1254 29.9989 23.6771 28.0003 23.6771C26.0018 23.6771 24.3816 22.1254 24.3816 20.2113C24.3816 18.2971 26.0018 16.7454 28.0003 16.7454C29.9989 16.7454 31.619 18.2971 31.619 20.2113ZM20.8099 9.81365C21.7499 8.46369 24.0378 7.43173 26.6379 7.18478C29.323 6.93177 31.7394 7.55476 33.0964 8.8536C33.2307 8.97287 33.3449 9.11142 33.4347 9.2643C33.033 9.65753 32.5651 9.98325 32.0506 10.2278C30.5226 11.1047 28.3007 12.3871 27.9623 15.0185C26.7376 15.0258 25.5518 15.4315 24.5996 16.1692C21.502 13.1929 20.0907 10.843 20.8099 9.80931V9.81365ZM23.381 22.932C24.0105 23.9113 24.9602 24.664 26.0824 25.073C24.7579 29.8559 23.2055 31.5213 22.2104 31.4753C20.5259 31.3722 18.4541 29.9971 16.9325 27.9713C15.3484 25.8632 14.6979 23.5402 15.1919 21.7596C15.2323 21.5886 15.3004 21.4246 15.3936 21.2735C15.9552 21.4034 16.4872 21.6307 16.9632 21.9442C18.531 22.7777 20.8172 23.9873 23.381 22.9276V22.932Z" fill="#2333A4"/>
<path d="M24.3812 47.0718C24.8809 47.0718 25.2859 46.6839 25.2859 46.2053C25.2859 45.7268 24.8809 45.3389 24.3812 45.3389C23.8816 45.3389 23.4766 45.7268 23.4766 46.2053C23.4766 46.6839 23.8816 47.0718 24.3812 47.0718Z" fill="#2333A4"/>
<path d="M28.0004 47.0718C28.5 47.0718 28.9051 46.6839 28.9051 46.2053C28.9051 45.7268 28.5 45.3389 28.0004 45.3389C27.5007 45.3389 27.0957 45.7268 27.0957 46.2053C27.0957 46.6839 27.5007 47.0718 28.0004 47.0718Z" fill="#2333A4"/>
<path d="M31.6185 47.0718C32.1182 47.0718 32.5232 46.6839 32.5232 46.2053C32.5232 45.7268 32.1182 45.3389 31.6185 45.3389C31.1189 45.3389 30.7139 45.7268 30.7139 46.2053C30.7139 46.6839 31.1189 47.0718 31.6185 47.0718Z" fill="#2333A4"/>
</svg>
