<svg width="56" height="56" viewBox="0 0 56 56" fill="none" xmlns="http://www.w3.org/2000/svg">
<path d="M30.2888 43.1613C30.5532 43.1613 30.8126 43.0535 30.9997 42.8636C31.1867 42.6748 31.2943 42.4137 31.2943 42.1456C31.2943 41.8784 31.1867 41.6175 30.9997 41.4276C30.8126 41.2387 30.5532 41.13 30.2888 41.13C30.0243 41.13 29.7649 41.2386 29.5778 41.4276C29.3908 41.6164 29.2832 41.8784 29.2832 42.1456C29.2832 42.4138 29.3908 42.6748 29.5778 42.8636C29.7649 43.0536 30.0243 43.1613 30.2888 43.1613Z" fill="#2333A4"/>
<path d="M25.7126 41.13C25.4481 41.13 25.1887 41.2386 25.0017 41.4276C24.8146 41.6164 24.707 41.8784 24.707 42.1456C24.707 42.4138 24.8146 42.6748 25.0017 42.8636C25.1887 43.0535 25.4481 43.1613 25.7126 43.1613C25.977 43.1613 26.2365 43.0535 26.4235 42.8636C26.6105 42.6748 26.7181 42.4137 26.7181 42.1456C26.7181 41.8784 26.6105 41.6164 26.4235 41.4276C26.2365 41.2387 25.977 41.13 25.7126 41.13Z" fill="#2333A4"/>
<path d="M22.674 36.4056L21.2704 34.9878C20.8778 34.5914 20.241 34.5913 19.8483 34.9878C19.4556 35.3844 19.4555 36.0275 19.8482 36.4242L21.4551 38.0471C20.8558 39.134 20.513 40.3841 20.513 41.7138V43.0305C20.513 44.1145 20.8864 45.1118 21.5099 45.8988L19.8482 47.577C19.4555 47.9736 19.4555 48.6167 19.8482 49.0134C20.0446 49.2117 20.3019 49.3109 20.5592 49.3109C20.8166 49.3109 21.074 49.2117 21.2703 49.0134L23.0918 47.1736C23.3978 47.323 23.7223 47.4397 24.0616 47.5171C24.0741 48.8539 25.1548 49.9373 26.4811 49.9373H29.5195C30.8459 49.9373 31.9264 48.8539 31.939 47.5171C32.2782 47.4396 32.6027 47.323 32.9088 47.1736L34.7303 49.0134C34.9267 49.2117 35.184 49.3109 35.4413 49.3109C35.6987 49.3109 35.9561 49.2117 36.1524 49.0134C36.545 48.6168 36.545 47.9737 36.1524 47.577L34.4907 45.8988C35.114 45.1117 35.4876 44.1145 35.4876 43.0305V41.7138C35.4876 40.384 35.1448 39.1339 34.5455 38.0471L36.1524 36.4242C36.545 36.0276 36.545 35.3845 36.1524 34.9878C35.7597 34.5913 35.123 34.5913 34.7303 34.9878L33.3267 36.4056C31.9682 35.0152 30.0825 34.1515 28.0003 34.1515C25.9181 34.1515 24.0325 35.0152 22.674 36.4056ZM33.4766 41.7139V43.0306C33.4766 44.4468 32.3358 45.599 30.9337 45.599C30.3783 45.599 29.9281 46.0538 29.9281 46.6146V47.4936C29.9281 47.7211 29.7448 47.9063 29.5196 47.9063H26.4812C26.2559 47.9063 26.0725 47.7212 26.0725 47.4936V46.6146C26.0725 46.0538 25.6224 45.599 25.067 45.599C23.6649 45.599 22.5241 44.4468 22.5241 43.0306V41.7139C22.5241 38.664 24.9807 36.1827 28.0003 36.1827C31.0198 36.1827 33.4766 38.664 33.4766 41.7139Z" fill="#2333A4"/>
<path d="M48.938 30.8231C46.9349 27.8242 44.1205 25.523 40.7993 24.1685L39.8284 23.7725C41.0652 22.5223 41.7393 21.0726 41.7393 19.5698C41.7393 18.657 41.4854 17.7436 41.0084 16.8932L34.6502 5.86222C33.2565 3.44381 30.7705 2 27.9999 2C25.2294 2 22.7434 3.44381 21.3497 5.86222L14.9869 16.9069C14.9864 16.9078 14.9861 16.9061 14.9857 16.9069C14.9843 16.9094 14.9827 16.9045 14.9814 16.9069C14.5043 17.7573 14.2625 18.657 14.2625 19.5698C14.2625 21.0724 14.9365 22.5219 16.173 23.772L15.2007 24.1685C11.8795 25.523 9.06514 27.8241 7.06199 30.8231C5.05884 33.8221 4 37.3195 4 40.9371V45.244C4 50.0721 7.88895 54 12.6691 54H12.7157H43.2843H43.3309C48.111 54 52 50.0721 52 45.244V40.9371C52 37.3195 50.9412 33.8221 48.938 30.8231ZM23.0878 6.88404C24.1173 5.09776 25.9536 4.03125 27.9999 4.03125C30.0463 4.03125 31.8826 5.09776 32.9121 6.88404L38.0622 15.8205C34.7488 15.05 31.3737 14.6645 27.9994 14.6645C24.6251 14.6645 21.2503 15.05 17.9377 15.8205L23.0878 6.88404ZM23.284 16.9626C26.419 16.6114 29.581 16.6114 32.716 16.9626V20.1898C32.716 22.8164 30.6004 24.9531 28 24.9531C25.3996 24.9531 23.284 22.8164 23.284 20.1898V16.9626ZM49.9889 45.244C49.9889 48.623 47.5082 51.4269 44.2899 51.8981V36.4297C44.2899 32.9016 41.448 30.0312 37.9549 30.0312H32.525C31.9696 30.0312 31.5194 30.486 31.5194 31.0469C31.5194 31.6077 31.9696 32.0625 32.525 32.0625H37.9549C40.3391 32.0625 42.2788 34.0216 42.2788 36.4297V51.9688H13.7212V36.4297C13.7212 34.0216 15.6609 32.0625 18.0451 32.0625H23.4749C24.0303 32.0625 24.4805 31.6077 24.4805 31.0469C24.4805 30.486 24.0303 30.0312 23.4749 30.0312H18.0451C14.552 30.0312 11.7101 32.9016 11.7101 36.4297V51.8981C8.49178 51.4269 6.01109 48.6231 6.01109 45.244V40.9371C6.01109 34.3581 9.91372 28.5152 15.9536 26.0519L17.9998 25.2174C18.2652 25.384 18.5428 25.5443 18.8334 25.6975C18.9819 25.7757 19.1409 25.8129 19.2976 25.8129C19.6603 25.8129 20.0106 25.614 20.19 25.2666C20.4468 24.7694 20.2558 24.156 19.7634 23.8966C17.5455 22.7283 16.2735 21.1512 16.2735 19.5698C16.2735 19.1343 16.3687 18.6992 16.5546 18.2715C18.1125 17.8354 19.6877 17.4914 21.2728 17.2366V20.1898C21.2728 23.9364 24.2905 26.9844 27.9999 26.9844C31.7093 26.9844 34.727 23.9363 34.727 20.1898V17.2366C36.3129 17.4915 37.8888 17.8358 39.4474 18.2721C39.633 18.6995 39.7281 19.1345 39.7281 19.5698C39.7281 21.1513 38.4559 22.7286 36.2375 23.8968C35.7451 24.1562 35.5541 24.7696 35.8109 25.267C35.9903 25.6143 36.3405 25.8132 36.7033 25.8132C36.86 25.8132 37.019 25.7761 37.1674 25.6979C37.4581 25.5448 37.7357 25.3844 38.0011 25.2178L40.0462 26.0518C46.086 28.5151 49.9887 34.3579 49.9887 40.937V45.244H49.9889Z" fill="#2333A4"/>
<path d="M41.0081 16.8935C41.0169 16.9073 41 16.8791 41.0081 16.8935V16.8935Z" fill="#2333A4"/>
<path d="M28.0007 32.0625C28.2651 32.0625 28.5246 31.9538 28.7116 31.7648C28.8986 31.576 29.0062 31.314 29.0062 31.0469C29.0062 30.7798 28.8986 30.5177 28.7116 30.3288C28.5246 30.1399 28.2651 30.0312 28.0007 30.0312C27.7362 30.0312 27.4768 30.1398 27.2897 30.3288C27.1027 30.5177 26.9951 30.7798 26.9951 31.0469C26.9951 31.314 27.1027 31.576 27.2897 31.7648C27.4768 31.9538 27.7362 32.0625 28.0007 32.0625Z" fill="#2333A4"/>
</svg>
