<svg width="56" height="56" viewBox="0 0 56 56" fill="none" xmlns="http://www.w3.org/2000/svg">
<path d="M45.5 2H10.5C9.12167 2 8 3.1289 8 4.51613V51.4839C8 52.8711 9.12167 54 10.5 54H45.5C46.8783 54 48 52.8711 48 51.4839V4.51613C48 3.1289 46.8783 2 45.5 2ZM10.5 3.67742H12.0483C11.745 4.85077 10.8325 5.76916 9.66667 6.07445V4.51613C9.66667 4.054 10.04 3.67742 10.5 3.67742ZM9.66667 51.4839V7.79548C11.7558 7.44071 13.405 5.78006 13.7583 3.67742H45.5C45.96 3.67742 46.3333 4.054 46.3333 4.51613V48.2045C44.2442 48.5593 42.595 50.2199 42.2417 52.3226H10.5C10.04 52.3226 9.66667 51.946 9.66667 51.4839ZM45.5 52.3226H43.9517C44.255 51.1492 45.1675 50.2308 46.3333 49.9255V51.4839C46.3333 51.946 45.96 52.3226 45.5 52.3226Z" fill="#2333A4"/>
<path d="M41.3333 12.0647C43.1717 12.0647 44.6667 10.56 44.6667 8.70982C44.6667 6.85963 43.1717 5.35498 41.3333 5.35498C39.495 5.35498 38 6.85963 38 8.70982C38 10.56 39.495 12.0647 41.3333 12.0647ZM41.3333 7.0324C42.2525 7.0324 43 7.78472 43 8.70982C43 9.63492 42.2525 10.3872 41.3333 10.3872C40.4142 10.3872 39.6667 9.63492 39.6667 8.70982C39.6667 7.78472 40.4142 7.0324 41.3333 7.0324Z" fill="#2333A4"/>
<path d="M31.3335 43.9355C29.4951 43.9355 28.0001 45.4402 28.0001 47.2904C28.0001 49.1406 29.4951 50.6452 31.3335 50.6452C33.1718 50.6452 34.6668 49.1406 34.6668 47.2904C34.6668 45.4402 33.1718 43.9355 31.3335 43.9355ZM31.3335 48.9678C30.4143 48.9678 29.6668 48.2155 29.6668 47.2904C29.6668 46.3653 30.4143 45.613 31.3335 45.613C32.2526 45.613 33.0001 46.3653 33.0001 47.2904C33.0001 48.2155 32.2526 48.9678 31.3335 48.9678Z" fill="#2333A4"/>
<path d="M41.3333 13.7421C38.5758 13.7421 36.3333 11.4851 36.3333 8.7098C36.3333 8.24684 35.9608 7.87109 35.4999 7.87109H14.6666C14.2058 7.87109 13.8333 8.24684 13.8333 8.7098V24.6453C13.8333 25.1083 14.2058 25.484 14.6666 25.484C17.4241 25.484 19.6666 27.741 19.6666 30.5163C19.6666 33.2915 17.4241 35.5485 14.6666 35.5485C14.2058 35.5485 13.8333 35.9243 13.8333 36.3872V41.4195C13.8333 41.8824 14.2058 42.2582 14.6666 42.2582C17.4241 42.2582 19.6666 44.5152 19.6666 47.2904C19.6666 47.7534 20.0391 48.1292 20.4999 48.1292H25.4999C25.9608 48.1292 26.3333 47.7534 26.3333 47.2904C26.3333 44.5152 28.5758 42.2582 31.3333 42.2582C34.0908 42.2582 36.3333 44.5152 36.3333 47.2904C36.3333 47.7534 36.7058 48.1292 37.1666 48.1292H41.3333C41.7941 48.1292 42.1666 47.7534 42.1666 47.2904V14.5808C42.1666 14.1178 41.7941 13.7421 41.3333 13.7421ZM40.4999 46.4517H37.9483C37.5374 43.1464 34.7274 40.5808 31.3333 40.5808C27.9391 40.5808 25.1299 43.1464 24.7183 46.4517H21.2808C20.9041 43.4215 18.5108 41.0127 15.4991 40.6328V37.1739C18.7824 36.7596 21.3324 33.9315 21.3324 30.5163C21.3324 27.101 18.7824 24.2729 15.4991 23.8586V9.54851H34.7174C35.0941 12.5788 37.4874 14.9875 40.4991 15.3675V46.4517H40.4999Z" fill="#2333A4"/>
<path d="M14.6666 43.9355C12.8283 43.9355 11.3333 45.4402 11.3333 47.2904C11.3333 49.1406 12.8283 50.6452 14.6666 50.6452C16.5049 50.6452 17.9999 49.1406 17.9999 47.2904C17.9999 45.4402 16.5049 43.9355 14.6666 43.9355ZM14.6666 48.9678C13.7474 48.9678 12.9999 48.2155 12.9999 47.2904C12.9999 46.3653 13.7474 45.613 14.6666 45.613C15.5858 45.613 16.3333 46.3653 16.3333 47.2904C16.3333 48.2155 15.5858 48.9678 14.6666 48.9678Z" fill="#2333A4"/>
<path d="M14.6666 33.8708C16.5049 33.8708 17.9999 32.3662 17.9999 30.516C17.9999 28.6658 16.5049 27.1611 14.6666 27.1611C12.8283 27.1611 11.3333 28.6658 11.3333 30.516C11.3333 32.3662 12.8283 33.8708 14.6666 33.8708ZM14.6666 28.8386C15.5858 28.8386 16.3333 29.5909 16.3333 30.516C16.3333 31.4411 15.5858 32.1934 14.6666 32.1934C13.7474 32.1934 12.9999 31.4411 12.9999 30.516C12.9999 29.5909 13.7474 28.8386 14.6666 28.8386Z" fill="#2333A4"/>
<path d="M32.1667 12.0645H19.6667C19.2059 12.0645 18.8334 12.4402 18.8334 12.9032V22.9677C18.8334 23.4306 19.2059 23.8064 19.6667 23.8064C21.505 23.8064 23 25.311 23 27.1612V38.0645C23 38.5274 23.3725 38.9032 23.8334 38.9032H38C38.4609 38.9032 38.8334 38.5274 38.8334 38.0645V18.7741C38.8334 18.5519 38.7459 18.338 38.5892 18.1812L32.7559 12.3102C32.6 12.1525 32.3884 12.0645 32.1667 12.0645ZM31.8217 13.7419L36.8217 18.7741H20.5V13.7419H31.8217ZM20.5 22.1986V20.4515H37.1667V33.8709H24.6667V27.1612C24.6667 24.6719 22.8617 22.5995 20.5 22.1986ZM24.6667 37.2257V35.5483H37.1667V37.2257H24.6667Z" fill="#2333A4"/>
<path d="M22.9999 15.4194H24.6665V17.0969H22.9999V15.4194Z" fill="#2333A4"/>
<path d="M26.3334 15.4194H28V17.0969H26.3334V15.4194Z" fill="#2333A4"/>
<path d="M29.6666 15.4194H31.3333V17.0969H29.6666V15.4194Z" fill="#2333A4"/>
<path d="M33.8334 22.1289H35.5V32.1934H33.8334V22.1289Z" fill="#2333A4"/>
<path d="M30.5001 22.1289H32.1668V32.1934H30.5001V22.1289Z" fill="#2333A4"/>
<path d="M18.8334 40.5807C19.7539 40.5807 20.5001 39.8297 20.5001 38.9032C20.5001 37.9768 19.7539 37.2258 18.8334 37.2258C17.9129 37.2258 17.1667 37.9768 17.1667 38.9032C17.1667 39.8297 17.9129 40.5807 18.8334 40.5807Z" fill="#2333A4"/>
<path d="M23 44.7743C23.9205 44.7743 24.6667 44.0233 24.6667 43.0969C24.6667 42.1704 23.9205 41.4194 23 41.4194C22.0796 41.4194 21.3334 42.1704 21.3334 43.0969C21.3334 44.0233 22.0796 44.7743 23 44.7743Z" fill="#2333A4"/>
</svg>
