<svg width="56" height="56" viewBox="0 0 56 56" fill="none" xmlns="http://www.w3.org/2000/svg">
<path d="M25.48 20.0793C25.48 20.3427 25.386 20.5689 25.1983 20.7565C25.0103 20.9442 24.7802 21.0382 24.5088 21.0382C24.237 21.0382 24.0069 20.9442 23.8193 20.7565C23.6316 20.5689 23.5376 20.3388 23.5376 20.067V13.1846C23.5376 12.9291 23.6356 12.699 23.8312 12.4955C24.0272 12.2915 24.2569 12.1896 24.5207 12.1896C24.7845 12.1896 25.0103 12.2876 25.1983 12.4832C25.386 12.6791 25.48 12.9132 25.48 13.1846V20.0793Z" fill="#2333A4"/>
<path d="M29.0054 18.0183V19.9726C29.0054 20.2364 28.9094 20.4641 28.7173 20.6562C28.5257 20.8482 28.298 20.9438 28.0342 20.9438C27.7704 20.9438 27.5426 20.8482 27.3506 20.6562C27.1586 20.4641 27.063 20.2285 27.063 19.9488V13.2104C27.063 12.9223 27.1606 12.6807 27.3566 12.4847C27.5522 12.2892 27.7902 12.1912 28.0699 12.1912H30.3479C31.2509 12.1912 31.9864 12.4629 32.5541 13.0064C33.1214 13.55 33.4055 14.2577 33.4055 15.1285C33.4055 15.9918 33.1373 16.6897 32.6021 17.2209C32.0665 17.7525 31.3552 18.0183 30.4677 18.0183H29.0054ZM29.0054 13.9296V16.3156H30.24C30.5518 16.3156 30.8236 16.1997 31.0553 15.968C31.2874 15.7359 31.4032 15.4602 31.4032 15.1404C31.4032 14.8048 31.2933 14.5192 31.0735 14.2831C30.8533 14.0475 30.58 13.9296 30.2519 13.9296H29.0054Z" fill="#2333A4"/>
<path d="M47.405 38.4518C47.073 37.9995 46.437 37.9019 45.9843 38.234C45.5321 38.5661 45.4345 39.2024 45.7669 39.6547C47.2372 41.657 48.3492 43.8529 49.082 46.1737C46.9063 43.9413 43.6782 42.0835 39.7291 40.8215C39.6244 40.4938 39.5165 40.1685 39.403 39.8487C38.1712 36.3868 36.4771 33.5451 34.4729 31.5579C34.4828 31.5456 34.4931 31.5329 34.503 31.5206C36.685 32.2244 38.7413 33.2543 40.623 34.5905C40.8015 34.7174 41.007 34.7781 41.2105 34.7781C41.5287 34.7781 41.8417 34.6293 42.0401 34.3504C42.365 33.8926 42.2575 33.2582 41.7997 32.9333C39.9553 31.6237 37.9573 30.5827 35.8436 29.8285C39.1868 25.4756 41.9687 20.7379 41.9687 16.3913C41.9687 8.45596 35.5131 2 27.5781 2C19.6432 2 13.1876 8.45596 13.1876 16.3913C13.1876 19.4834 14.6019 23.0599 17.5111 27.3252C18.0868 28.169 18.6978 29.0045 19.3266 29.8257C14.8804 31.4154 10.9084 34.3088 8.02734 38.0844C4.73846 42.3945 3 47.5468 3 52.9836C3 53.545 3.45505 54 4.01602 54H51.1398C51.7012 54 52.1562 53.545 52.1562 52.9836C52.1562 47.7099 50.5134 42.6849 47.405 38.4518ZM37.3484 40.155C35.7718 39.7729 34.1027 39.4809 32.3603 39.2889C32.1631 38.0483 31.4855 36.9355 30.4965 36.1849C31.3601 35.2133 32.2631 34.1886 33.1672 33.1245C34.8601 34.8483 36.2831 37.2763 37.3484 40.155ZM15.22 16.3913C15.22 9.57672 20.7639 4.03244 27.5781 4.03244C34.3923 4.03244 39.9362 9.57672 39.9362 16.3913C39.9362 22.5323 32.9157 30.4145 28.27 35.6299C28.0332 35.8957 27.8027 36.1544 27.5785 36.4071C27.3619 36.1631 27.1393 35.9131 26.9112 35.6569C22.2556 30.426 15.22 22.5212 15.22 16.3913ZM24.6614 36.1853C23.6731 36.9355 22.9959 38.0479 22.7987 39.2889C21.0547 39.4805 19.3849 39.7729 17.8071 40.1554C18.8735 37.2739 20.2978 34.8444 21.9926 33.1202C22.9059 34.1981 23.8096 35.2256 24.6614 36.1853ZM13.6351 51.9676H5.11734C5.71005 48.4145 9.37543 45.2137 14.7559 43.213C14.0858 45.9686 13.7045 48.9318 13.6351 51.9676ZM6.10876 46.138C8.29831 39.3298 13.6653 33.772 20.6643 31.519C20.6731 31.5297 20.6814 31.54 20.6901 31.5507C18.6827 33.5379 16.9867 36.3817 15.7536 39.8463C15.6398 40.1669 15.5315 40.493 15.4263 40.8219C11.4987 42.0771 8.28363 43.9215 6.10876 46.138ZM26.5617 51.9676H15.6671C15.7489 48.5985 16.2368 45.3604 17.0577 42.4608C18.8731 41.9446 20.8365 41.5558 22.9074 41.321C23.3799 43.063 24.7927 44.4012 26.5621 44.7769V51.9676H26.5617ZM27.8646 42.8361C27.7166 42.8511 27.5678 42.8539 27.4198 42.8456C25.9456 42.7631 24.7713 41.538 24.7713 40.0435C24.7713 39.0957 25.2533 38.2233 26.017 37.7103C26.2927 38.0206 26.5593 38.3221 26.8144 38.6125C27.0072 38.8323 27.2857 38.9584 27.5781 38.9584C27.8705 38.9584 28.149 38.8323 28.3418 38.6125C28.5969 38.3217 28.8643 38.0198 29.14 37.7095C29.9049 38.2229 30.3874 39.0957 30.3874 40.0435C30.3874 40.4184 30.31 40.7957 30.164 41.1408C29.772 42.0593 28.9036 42.7281 27.8705 42.8353C27.8685 42.8353 27.8665 42.8357 27.8646 42.8361C27.8665 42.8357 27.8233 42.84 27.8646 42.8361C27.8665 42.8357 27.7166 42.8511 27.8646 42.8361ZM28.5945 51.9676V44.7769C30.3068 44.4131 31.6851 43.1479 32.1996 41.4876C32.204 41.4741 32.2076 41.4602 32.2115 41.4467C32.2242 41.4051 32.2369 41.3634 32.2484 41.321C34.3197 41.5558 36.2831 41.9442 38.0982 42.4604C38.9194 45.3604 39.4074 48.5989 39.4891 51.9676H28.5945ZM41.5211 51.9676C41.4517 48.9318 41.0701 45.9686 40.4 43.2126C45.7804 45.2137 49.4462 48.4141 50.0389 51.9676H41.5211Z" fill="#2333A4"/>
<path d="M27.5783 26.5564C22.0669 26.5564 17.5835 22.0725 17.5835 16.5612C17.5835 11.0482 22.0669 6.56323 27.5783 6.56323C33.0908 6.56323 37.5758 11.0482 37.5758 16.5612C37.5758 22.0725 33.0908 26.5564 27.5783 26.5564ZM27.5783 8.59528C23.1877 8.59528 19.6159 12.1686 19.6159 16.5612C19.6159 20.9518 23.1877 24.5239 27.5783 24.5239C31.9705 24.5239 35.5434 20.9518 35.5434 16.5612C35.5434 12.1686 31.9705 8.59528 27.5783 8.59528Z" fill="#2333A4"/>
<path d="M44.2373 37.3406C43.9393 37.3406 43.6438 37.21 43.443 36.9589L43.4315 36.9446C43.0812 36.5063 43.1522 35.8667 43.5902 35.516C44.0286 35.1653 44.6681 35.2367 45.0188 35.6747L45.0303 35.6894C45.3806 36.1274 45.3096 36.7669 44.8716 37.1176C44.6844 37.2676 44.4598 37.3406 44.2373 37.3406Z" fill="#2333A4"/>
</svg>
