<svg width="56" height="56" viewBox="0 0 56 56" fill="none" xmlns="http://www.w3.org/2000/svg">
<path d="M28 2C16.9718 2 8 10.6169 8 21.209C8 24.696 9.62824 28.4463 9.69647 28.6045C10.2224 29.8034 11.26 31.6655 12.0082 32.7571L25.7212 52.713C26.2824 53.5311 27.1129 54 28 54C28.8871 54 29.7176 53.5311 30.2788 52.7141L43.9929 32.7571C44.7424 31.6655 45.7788 29.8034 46.3047 28.6045C46.3729 28.4475 48 24.6972 48 21.209C48 10.6169 39.0282 2 28 2ZM44.1353 27.7277C43.6659 28.8023 42.7 30.5345 42.0282 31.513L28.3141 51.4701C28.0435 51.8644 27.9576 51.8644 27.6871 51.4701L13.9729 31.513C13.3012 30.5345 12.3353 28.8011 11.8659 27.7266C11.8459 27.6802 10.3529 24.2282 10.3529 21.209C10.3529 11.8633 18.2694 4.25989 28 4.25989C37.7306 4.25989 45.6471 11.8633 45.6471 21.209C45.6471 24.2328 44.1506 27.6938 44.1353 27.7277Z" fill="#2333A4"/>
<path d="M27.9999 11.0406C22.161 11.0406 17.4116 15.6034 17.4116 21.2101C17.4116 26.8169 22.161 31.3796 27.9999 31.3796C33.8387 31.3796 38.5881 26.8169 38.5881 21.2101C38.5881 15.6034 33.8387 11.0406 27.9999 11.0406ZM27.9999 29.1197C23.4599 29.1197 19.7646 25.5717 19.7646 21.2101C19.7646 16.8486 23.4599 13.3005 27.9999 13.3005C32.5399 13.3005 36.2351 16.8486 36.2351 21.2101C36.2351 25.5717 32.5399 29.1197 27.9999 29.1197Z" fill="#2333A4"/>
</svg>
