<svg width="56" height="56" viewBox="0 0 56 56" fill="none" xmlns="http://www.w3.org/2000/svg">
<path d="M51.9118 15.3761C51.7466 14.7616 51.3436 14.2378 50.7921 13.9202C50.2402 13.6011 49.5841 13.5147 48.9686 13.68C48.3538 13.8456 47.8301 14.2483 47.5126 14.7999L47.1126 15.496C46.7326 15.2776 46.2472 15.4061 46.0249 15.7843L43.9932 19.2479L43.2973 18.8479C43.1129 18.7413 42.8934 18.7124 42.688 18.7679C42.4822 18.8237 42.3072 18.9589 42.2014 19.144C41.9846 19.5265 42.1166 20.0124 42.4974 20.2319L43.1934 20.6319L36.3945 32.4159L34.7148 36.9042L33.9149 38.3999C33.4466 39.2147 33.4966 40.2276 34.043 40.9921L32.2433 43.1999L31.7395 41.9362C31.5122 41.3729 30.9861 40.987 30.3811 40.9397C29.7757 40.8921 29.1958 41.1913 28.8837 41.712L28.5959 42.1999L28.324 38.9999C28.2616 38.2429 27.6753 37.6343 26.9215 37.5429C26.1674 37.4518 25.4534 37.9038 25.2125 38.6241L23.2448 44.528C23.1074 44.9456 23.3323 45.3956 23.7487 45.5362C23.8268 45.5725 23.9107 45.5944 23.9967 45.5999C24.3403 45.6011 24.6465 45.3819 24.7567 45.0561L26.7161 39.1522L26.9961 42.3999C27.0539 43.0929 27.5519 43.669 28.2291 43.8261C28.9064 43.9831 29.607 43.6847 29.9636 43.0882L30.2597 42.5999L30.7557 43.8561C30.9662 44.3854 31.4423 44.7632 32.0058 44.8472C32.5694 44.9311 33.1349 44.7089 33.4911 44.264L35.3549 41.9042C35.5611 41.9581 35.7736 41.9851 35.9868 41.9843C36.8441 41.9909 37.64 41.5393 38.0743 40.7999L38.8742 39.464L41.9217 35.7601L48.7924 23.8319L49.4884 24.2319C49.6739 24.3382 49.8091 24.5136 49.8641 24.7202C49.9196 24.9253 49.8907 25.144 49.7844 25.328L46.585 30.8722C46.4643 31.0542 46.4233 31.2776 46.4717 31.4909C46.5202 31.7038 46.6533 31.8878 46.8408 31.9999C47.0252 32.1069 47.2446 32.1358 47.4501 32.0804C47.6559 32.0245 47.8309 31.8893 47.9367 31.7042L51.1362 26.1601C51.4553 25.6081 51.5416 24.9518 51.376 24.3362C51.2104 23.7214 50.8077 23.1976 50.2562 22.88L49.5603 22.48L51.5599 19.0159C51.7782 18.6358 51.6498 18.1507 51.2721 17.928L51.672 17.2319C51.9997 16.6714 52.0864 16.0019 51.9118 15.3761ZM48.8963 15.5999C49.0022 15.4147 49.1779 15.2792 49.3845 15.2241C49.5899 15.1733 49.8071 15.2019 49.9922 15.3042C50.1777 15.4101 50.3129 15.5858 50.3683 15.7921C50.4191 15.9976 50.3906 16.2147 50.2883 16.3999L49.8883 17.096L48.4964 16.296L48.8963 15.5999ZM37.9943 37.9362L37.5943 37.7042L36.4106 37.0159L37.5463 33.9761L40.0658 35.4319L37.9943 37.9362ZM35.5947 40.2479C35.2568 40.0124 35.153 39.5593 35.3549 39.1999L35.7548 38.5042L37.1464 39.3042L36.7464 39.9921C36.6343 40.1866 36.4461 40.3249 36.227 40.3737C36.0079 40.4222 35.7786 40.3768 35.5947 40.2479ZM40.9777 34.1202L38.2102 32.5202L44.6092 21.4319L47.3767 23.0319L40.9777 34.1202ZM48.1765 21.6479L45.409 20.0479L47.0087 17.28L49.7762 18.88L48.1765 21.6479Z" fill="#2333A4"/>
<path d="M16.6217 39.8478L13.7905 42.6716L12.0947 40.9758C11.7827 40.6657 11.2788 40.6657 10.9668 40.9758C10.8152 41.1261 10.7301 41.3304 10.7301 41.5436C10.7301 41.7569 10.8152 41.9615 10.9668 42.1115L12.6626 43.8073C12.9625 44.1049 13.3679 44.2717 13.7905 44.2713C14.2154 44.2736 14.6244 44.1069 14.9263 43.8073L17.7496 40.9758C18.0214 40.6582 18.0031 40.1853 17.7078 39.89C17.4122 39.5944 16.9392 39.576 16.6217 39.8478Z" fill="#2333A4"/>
<path d="M7.19946 41.9997C7.19946 45.7556 10.2435 48.7997 13.9983 48.7997C17.7531 48.7997 20.7971 45.7556 20.7971 41.9997C20.7971 41.5579 20.439 41.1997 19.9973 41.1997C19.5556 41.1997 19.1974 41.5579 19.1974 41.9997C19.1974 44.8716 16.8697 47.1997 13.9983 47.1997C11.1269 47.1997 8.79919 44.8716 8.79919 41.9997C8.79919 39.1279 11.1269 36.7997 13.9983 36.7997C15.1239 36.7966 16.2194 37.1618 17.1177 37.84C17.4712 38.1052 17.9726 38.0333 18.2374 37.6798C18.5026 37.3263 18.4311 36.8251 18.0777 36.5599C16.0175 35.0146 13.2609 34.7661 10.9578 35.9177C8.65429 37.0697 7.19946 39.4243 7.19946 41.9997Z" fill="#2333A4"/>
<path d="M32.7952 10.3988C33.2369 10.3988 33.5951 10.041 33.5951 9.59894C33.5951 9.15721 33.2369 8.79907 32.7952 8.79907H11.9987C11.557 8.79907 11.1989 9.15721 11.1989 9.59894V12.7984C11.1989 13.2405 11.557 13.5983 11.9987 13.5983H32.7952C33.2369 13.5983 33.5951 13.2405 33.5951 12.7984C33.5951 12.3567 33.2369 11.9985 32.7952 11.9985H12.7986V10.3988H32.7952Z" fill="#2333A4"/>
<path d="M14.3983 15.2C13.9565 15.2 13.5984 15.5581 13.5984 15.9998C13.5984 16.4419 13.9565 16.7997 14.3983 16.7997H30.3955C30.8373 16.7997 31.1954 16.4419 31.1954 15.9998C31.1954 15.5581 30.8373 15.2 30.3955 15.2H14.3983Z" fill="#2333A4"/>
<path d="M35.1947 20.7998H17.5977C17.156 20.7998 16.7979 21.1579 16.7979 21.5997C16.7979 22.0418 17.156 22.3995 17.5977 22.3995H35.1947C35.6364 22.3995 35.9946 22.0418 35.9946 21.5997C35.9946 21.1579 35.6364 20.7998 35.1947 20.7998Z" fill="#2333A4"/>
<path d="M27.196 26.4C27.196 25.9582 26.8379 25.6001 26.3961 25.6001H10.3989C9.95714 25.6001 9.599 25.9582 9.599 26.4C9.599 26.8421 9.95714 27.1998 10.3989 27.1998H26.3961C26.8379 27.1998 27.196 26.8421 27.196 26.4Z" fill="#2333A4"/>
<path d="M35.1946 25.6001H29.5955C29.1538 25.6001 28.7957 25.9582 28.7957 26.4C28.7957 26.8421 29.1538 27.1998 29.5955 27.1998H35.1946C35.6363 27.1998 35.9944 26.8421 35.9944 26.4C35.9944 25.9582 35.6363 25.6001 35.1946 25.6001Z" fill="#2333A4"/>
<path d="M18.3975 31.1996C18.8392 31.1996 19.1974 30.8418 19.1974 30.3997C19.1974 29.958 18.8392 29.5999 18.3975 29.5999H10.3989C9.95714 29.5999 9.599 29.958 9.599 30.3997C9.599 30.8418 9.95714 31.1996 10.3989 31.1996H18.3975Z" fill="#2333A4"/>
<path d="M21.5971 31.1996H27.1962C27.6379 31.1996 27.996 30.8418 27.996 30.3997C27.996 29.958 27.6379 29.5999 27.1962 29.5999H21.5971C21.1554 29.5999 20.7972 29.958 20.7972 30.3997C20.7972 30.8418 21.1554 31.1996 21.5971 31.1996Z" fill="#2333A4"/>
<path d="M39.9939 40.8C39.5521 40.8 39.194 41.1582 39.194 41.6V49.6C39.194 50.0422 38.8359 50.4 38.3941 50.4H6.39959C5.95787 50.4 5.59973 50.0422 5.59973 49.6V6.4C5.59973 5.9582 5.95787 5.6 6.39959 5.6H38.3941C38.8359 5.6 39.194 5.9582 39.194 6.4V21.4242C39.194 21.866 39.5521 22.2242 39.9939 22.2242C40.4356 22.2242 40.7937 21.866 40.7937 21.4242V6.4C40.7937 5.07461 39.7193 4 38.3941 4H6.39959C5.07443 4 4 5.07461 4 6.4V49.6C4 50.9258 5.07443 52 6.39959 52H38.3941C39.7193 52 40.7937 50.9258 40.7937 49.6V41.6C40.7937 41.1582 40.4356 40.8 39.9939 40.8Z" fill="#2333A4"/>
</svg>
