<svg width="56" height="56" viewBox="0 0 56 56" fill="none" xmlns="http://www.w3.org/2000/svg">
<path d="M36.5737 20.2798L37.7992 21.499C39.0884 20.22 40.1113 18.7005 40.8092 17.0275C41.5071 15.3545 41.8663 13.5609 41.8663 11.7495C41.8663 9.93814 41.5071 8.14457 40.8092 6.47157C40.1113 4.79857 39.0884 3.27902 37.7992 2L36.5737 3.21923C37.7019 4.33818 38.5971 5.66766 39.2078 7.13146C39.8186 8.59526 40.133 10.1646 40.133 11.7495C40.133 13.3344 39.8186 14.9038 39.2078 16.3676C38.5971 17.8314 37.7019 19.1608 36.5737 20.2798Z" fill="#2333A4"/>
<path d="M19.4259 20.2798C18.2977 19.1608 17.4026 17.8314 16.7918 16.3676C16.181 14.9038 15.8666 13.3344 15.8666 11.7495C15.8666 10.1646 16.181 8.59526 16.7918 7.13146C17.4026 5.66766 18.2977 4.33818 19.4259 3.21923L18.2004 2C16.9112 3.27902 15.8884 4.79857 15.1905 6.47157C14.4926 8.14457 14.1333 9.93814 14.1333 11.7495C14.1333 13.5609 14.4926 15.3545 15.1905 17.0275C15.8884 18.7005 16.9112 20.22 18.2004 21.499L19.4259 20.2798Z" fill="#2333A4"/>
<path d="M20.6431 19.0657L21.872 17.849C20.2466 16.231 19.3336 14.0371 19.3336 11.7495C19.3336 9.46187 20.2466 7.2679 21.872 5.64987L20.6431 4.43323C18.6945 6.37455 17.6001 9.00593 17.6001 11.7495C17.6001 14.493 18.6945 17.1244 20.6431 19.0657Z" fill="#2333A4"/>
<path d="M34.1279 17.849L35.3569 19.0657C37.3054 17.1244 38.3998 14.493 38.3998 11.7495C38.3998 9.00593 37.3054 6.37455 35.3569 4.43323L34.1279 5.64987C35.7533 7.2679 36.6664 9.46187 36.6664 11.7495C36.6664 14.0371 35.7533 16.231 34.1279 17.849Z" fill="#2333A4"/>
<path d="M23.0977 16.6273L24.3232 15.408C23.8403 14.9276 23.4571 14.3572 23.1958 13.7295C22.9344 13.1018 22.7999 12.429 22.7999 11.7495C22.7999 11.07 22.9344 10.3972 23.1958 9.76945C23.4571 9.14172 23.8403 8.57135 24.3232 8.09093L23.0977 6.8717C22.4539 7.51225 21.9432 8.2727 21.5947 9.10963C21.2462 9.94656 21.0669 10.8436 21.0669 11.7495C21.0669 12.6554 21.2462 13.5524 21.5947 14.3893C21.9432 15.2263 22.4539 15.9867 23.0977 16.6273Z" fill="#2333A4"/>
<path d="M32.9032 16.6273C33.5471 15.9867 34.0578 15.2263 34.4063 14.3893C34.7547 13.5524 34.9341 12.6554 34.9341 11.7495C34.9341 10.8436 34.7547 9.94656 34.4063 9.10963C34.0578 8.2727 33.5471 7.51225 32.9032 6.8717L31.6777 8.09093C32.1607 8.57135 32.5438 9.14172 32.8052 9.76945C33.0666 10.3972 33.2011 11.07 33.2011 11.7495C33.2011 12.429 33.0666 13.1018 32.8052 13.7295C32.5438 14.3572 32.1607 14.9276 31.6777 15.408L32.9032 16.6273Z" fill="#2333A4"/>
<path d="M45.3331 48.8265H39.0671L32.3331 23.709V20.3721C32.3331 20.1434 32.2418 19.9241 32.0793 19.7624C31.9168 19.6007 31.6963 19.5098 31.4665 19.5098H28.8665V15.0778C29.6834 14.868 30.3954 14.3689 30.869 13.6741C31.3425 12.9793 31.5452 12.1365 31.4388 11.3037C31.3325 10.471 30.9246 9.70534 30.2915 9.15041C29.6584 8.59547 28.8436 8.28931 27.9998 8.28931C27.156 8.28931 26.3412 8.59547 25.7081 9.15041C25.075 9.70534 24.6671 10.471 24.5608 11.3037C24.4545 12.1365 24.6571 12.9793 25.1306 13.6741C25.6042 14.3689 26.3162 14.868 27.1331 15.0778V19.5098H24.5331C24.3033 19.5098 24.0828 19.6007 23.9203 19.7624C23.7578 19.9241 23.6665 20.1434 23.6665 20.3721V23.709L16.9325 48.8265H10.6665C10.4366 48.8265 10.2162 48.9173 10.0536 49.079C9.89111 49.2407 9.7998 49.46 9.7998 49.6887V53.1377C9.7998 53.3664 9.89111 53.5858 10.0536 53.7475C10.2162 53.9092 10.4366 54 10.6665 54H45.3331C45.563 54 45.7834 53.9092 45.946 53.7475C46.1085 53.5858 46.1998 53.3664 46.1998 53.1377V49.6887C46.1998 49.46 46.1085 49.2407 45.946 49.079C45.7834 48.9173 45.563 48.8265 45.3331 48.8265ZM37.2731 48.8265H30.0885L35.7565 43.1873L37.2731 48.8265ZM35.2451 41.2645L28.8665 47.6107V42.282L34.1185 37.0567L35.2451 41.2645ZM32.4718 30.9347L33.5985 35.1339L28.8665 39.8504V34.5217L32.4718 30.9347ZM31.9605 29.0119L28.8665 32.0901V24.6833H30.7991L31.9605 29.0119ZM30.5998 21.2343V22.9588H28.8665V21.2343H30.5998ZM26.2665 11.7495C26.2665 11.4084 26.3681 11.075 26.5586 10.7914C26.7491 10.5078 27.0198 10.2868 27.3365 10.1563C27.6532 10.0258 28.0017 9.99161 28.338 10.0581C28.6742 10.1247 28.983 10.2889 29.2255 10.5301C29.4679 10.7713 29.633 11.0786 29.6998 11.4131C29.7667 11.7476 29.7324 12.0943 29.6012 12.4095C29.47 12.7246 29.2478 12.9939 28.9628 13.1834C28.6777 13.3729 28.3426 13.474 27.9998 13.474C27.5405 13.4727 27.1004 13.2905 26.7757 12.9674C26.4509 12.6443 26.2678 12.2065 26.2665 11.7495ZM25.3998 21.2343H27.1331V22.9588H25.3998V21.2343ZM25.2005 24.6833H27.1331V32.0901L24.0391 29.0119L25.2005 24.6833ZM23.5278 30.9347L27.1331 34.5217V39.8504L22.4011 35.1339L23.5278 30.9347ZM21.8811 37.0567L27.1331 42.282V47.6107L20.7545 41.2645L21.8811 37.0567ZM20.2431 43.1873L25.9111 48.8265H18.7265L20.2431 43.1873ZM44.4665 52.2755H11.5331V50.551H44.4665V52.2755Z" fill="#2333A4"/>
<path d="M45.3335 10.025H47.0668V11.7495H45.3335V10.025Z" fill="#2333A4"/>
<path d="M48.7998 10.025H50.5331V11.7495H48.7998V10.025Z" fill="#2333A4"/>
<path d="M52.2666 10.025H53.9999V11.7495H52.2666V10.025Z" fill="#2333A4"/>
<path d="M8.93311 10.025H10.6664V11.7495H8.93311V10.025Z" fill="#2333A4"/>
<path d="M5.4668 10.025H7.20013V11.7495H5.4668V10.025Z" fill="#2333A4"/>
<path d="M2 10.025H3.73333V11.7495H2V10.025Z" fill="#2333A4"/>
</svg>
