<svg width="56" height="56" viewBox="0 0 56 56" fill="none" xmlns="http://www.w3.org/2000/svg">
<path d="M48.2259 18.0337C48.6535 18.0337 49 17.6927 49 17.272V11.9884C49 10.4839 47.8083 9.24538 46.2867 9.1688C37.1061 8.70872 32.1721 5.01428 30.048 2.85303C29.5076 2.30296 28.7803 2 28.0001 2C27.22 2 26.4926 2.30296 25.9521 2.85303C23.8281 5.01428 18.8941 8.70883 9.71329 9.1689C8.19198 9.24538 7.00012 10.4839 7.00012 11.9884V33.2251C7.00012 39.3422 10.3444 45.0424 15.7279 48.1012L24.4856 53.0759C25.5696 53.6921 26.7847 54 28.0002 54C29.2153 54 30.4308 53.692 31.5145 53.076L40.2723 48.1011C45.6558 45.0423 49.0001 39.3422 49.0001 33.225V20.8268C49.0001 20.4061 48.6535 20.0651 48.2261 20.0651C47.7985 20.0651 47.452 20.4061 47.452 20.8268V33.2251C47.452 38.7996 44.4043 43.9942 39.4985 46.7817L30.7404 51.7566C29.05 52.7174 26.9503 52.7173 25.2598 51.7565L16.5021 46.7817C11.5961 43.9941 8.54847 38.7995 8.54847 33.225V11.9883C8.54847 11.2955 9.09486 10.7254 9.79235 10.6903C19.5033 10.2037 24.7826 6.23466 27.0653 3.91202C27.3115 3.66146 27.6435 3.52344 28.0002 3.52344C28.3569 3.52344 28.6889 3.66136 28.9352 3.91202C31.2178 6.23456 36.497 10.2036 46.208 10.6903C46.9056 10.7255 47.452 11.2956 47.452 11.9883V17.2718C47.4519 17.6927 47.7985 18.0337 48.2259 18.0337Z" fill="#2333A4"/>
<path d="M11.9452 27.8867C11.5176 27.8867 11.1711 28.2278 11.1711 28.6484V33.2251C11.1711 37.8804 13.7161 42.2187 17.813 44.5474L26.5711 49.5223C27.0058 49.769 27.5 49.8994 28.0002 49.8994C28.5005 49.8994 28.9947 49.769 29.4297 49.5221L38.1876 44.5473C42.2843 42.2187 44.8294 37.8804 44.8294 33.2251V14.7956C44.8294 13.8964 44.1473 13.1342 43.2435 13.0231C36.3005 12.1638 31.733 9.56806 29.1241 7.54209C28.4626 7.02808 27.5383 7.02788 26.8767 7.54199C24.2676 9.56816 19.7001 12.1639 12.7578 13.0231C11.8534 13.1343 11.1713 13.8964 11.1713 14.7956V25.0935C11.1713 25.5142 11.5179 25.8553 11.9454 25.8553C12.3729 25.8553 12.7195 25.5142 12.7195 25.0935V14.7956C12.7195 14.6631 12.8185 14.5509 12.9502 14.5348C20.2468 13.6316 25.0724 10.8839 27.8359 8.73779C27.9329 8.66263 28.0681 8.66263 28.1649 8.73789C30.9283 10.8839 35.754 13.6316 43.0511 14.5348C43.1822 14.5509 43.2812 14.6631 43.2812 14.7956V33.2251C43.2812 37.3379 41.0328 41.1708 37.4137 43.2279L28.656 48.2025C28.2563 48.4293 27.7442 48.4292 27.345 48.2026L18.5872 43.228C14.9679 41.1708 12.7195 37.3379 12.7195 33.2251V28.6484C12.7193 28.2278 12.3728 27.8867 11.9452 27.8867Z" fill="#2333A4"/>
<path d="M19.6594 26.5197C18.6576 26.5197 17.8428 27.3215 17.8428 28.3072V39.5924C17.8428 40.5781 18.6577 41.3801 19.6594 41.3801H36.3408C37.3425 41.3801 38.1574 40.5781 38.1574 39.5924V34.0854C38.1574 33.6647 37.8108 33.3237 37.3833 33.3237C36.9557 33.3237 36.6092 33.6647 36.6092 34.0854V39.5924C36.6092 39.7381 36.4888 39.8565 36.3408 39.8565H19.6594C19.5114 39.8565 19.3909 39.738 19.3909 39.5924V28.3073C19.3909 28.1617 19.5114 28.0432 19.6594 28.0432H36.3408C36.4888 28.0432 36.6092 28.1617 36.6092 28.3073V30.5306C36.6092 30.9513 36.9558 31.2923 37.3833 31.2923C37.8109 31.2923 38.1574 30.9513 38.1574 30.5306V28.3073C38.1574 27.4418 37.5289 26.7185 36.6976 26.5548V20.9208C36.6976 16.2014 32.7958 12.3621 28 12.3621C23.2042 12.3621 19.3025 16.2015 19.3025 20.9208V22.9726C19.3025 23.3933 19.649 23.7343 20.0765 23.7343H23.4128C23.8404 23.7343 24.1868 23.3933 24.1868 22.9726V20.9208C24.1868 18.8517 25.8973 17.1685 27.9999 17.1685C30.1025 17.1685 31.813 18.8518 31.813 20.9208V26.5198H19.6594V26.5197ZM28 15.6449C25.0438 15.6449 22.6387 18.0116 22.6387 20.9206V22.2108H20.8507V20.9206C20.8507 17.0415 24.0579 13.8855 28 13.8855C31.9421 13.8855 35.1493 17.0415 35.1493 20.9206V26.5197H33.3613V20.9206C33.3613 18.0116 30.9562 15.6449 28 15.6449Z" fill="#2333A4"/>
<path d="M28.0002 38.097C28.4278 38.097 28.7743 37.756 28.7743 37.3353V34.6954C29.801 34.3722 30.5467 33.4245 30.5467 32.3083C30.5467 30.9266 29.4044 29.8025 28.0002 29.8025C26.5961 29.8025 25.4537 30.9266 25.4537 32.3083C25.4537 33.4245 26.1993 34.3723 27.2262 34.6954V37.3353C27.2262 37.756 27.5726 38.097 28.0002 38.097ZM28.0002 31.3259C28.5506 31.3259 28.9985 31.7666 28.9985 32.3082C28.9985 32.8499 28.5506 33.2906 28.0002 33.2906C27.4498 33.2906 27.002 32.8499 27.002 32.3082C27.002 31.7666 27.4498 31.3259 28.0002 31.3259Z" fill="#2333A4"/>
</svg>
