<svg width="56" height="56" viewBox="0 0 56 56" fill="none" xmlns="http://www.w3.org/2000/svg">
<path d="M5.46667 53.9999H47.0667C48.9812 53.9999 50.5333 52.4478 50.5333 50.5333V47.9333C50.5333 47.4544 50.1455 47.0666 49.6667 47.0666H47.9333V33.1999H46.2V47.0666H44.4667V33.1999H42.7333V47.0666H31.6711C30.7484 47.0633 29.904 47.5852 29.4945 48.4126C29.3764 48.6512 29.1326 48.8021 28.8667 48.7999H23.8711C23.6055 48.8015 23.362 48.651 23.2447 48.4126C22.8347 47.5852 21.9902 47.0633 21.0667 47.0666H9.8V25.3999C9.8 24.9211 10.1878 24.5333 10.6667 24.5333H26.2667V22.7999H10.6667C9.23098 22.7999 8.06667 23.9642 8.06667 25.3999V47.0666H6.33333V23.6666C6.33333 22.2309 7.49765 21.0666 8.93333 21.0666H26.2667V19.3333H8.93333C6.54133 19.3362 4.60298 21.2746 4.6 23.6666V47.0666H2.86667C2.38783 47.0666 2 47.4544 2 47.9333V50.5333C2 52.4478 3.55215 53.9999 5.46667 53.9999ZM3.73333 48.7999H21.0667C21.3324 48.7986 21.5758 48.9486 21.6945 49.1861C22.1034 50.0138 22.9484 50.5365 23.8711 50.5333H28.8667C29.7902 50.5365 30.6352 50.0138 31.0447 49.1861C31.162 48.9483 31.4057 48.7983 31.6711 48.7999H48.8V50.5333C48.8 51.4906 48.0241 52.2666 47.0667 52.2666H5.46667C4.50927 52.2666 3.73333 51.4906 3.73333 50.5333V48.7999Z" fill="#2333A4"/>
<path d="M13.2666 34.0666V41C13.2666 41.4788 13.6544 41.8666 14.1333 41.8666H38.3999C38.8788 41.8666 39.2666 41.4788 39.2666 41V34.0666C39.2666 33.5878 38.8788 33.2 38.3999 33.2H14.1333C13.6544 33.2 13.2666 33.5878 13.2666 34.0666ZM14.9999 34.9333H37.5333V40.1333H14.9999V34.9333Z" fill="#2333A4"/>
<path d="M16.7334 36.6667H18.4667V38.4001H16.7334V36.6667Z" fill="#2333A4"/>
<path d="M20.2002 36.6667H21.9335V38.4001H20.2002V36.6667Z" fill="#2333A4"/>
<path d="M23.667 36.6667H25.4003V38.4001H23.667V36.6667Z" fill="#2333A4"/>
<path d="M27.1333 36.6667H28.8666V38.4001H27.1333V36.6667Z" fill="#2333A4"/>
<path d="M51.4 15.0322V12.4C51.4 6.65617 46.7438 2 41 2C35.2562 2 30.6 6.65617 30.6 12.4V15.0322C29.1253 15.1893 28.0051 16.4305 28 17.9136V28.553C28.0022 30.1615 29.306 31.4653 30.9144 31.4667H51.0856C52.694 31.4653 53.9978 30.1615 54 28.553V17.9136C53.9949 16.4305 52.8747 15.1893 51.4 15.0322ZM32.3333 12.4C32.3333 7.61329 36.2133 3.73333 41 3.73333C45.7867 3.73333 49.6667 7.61329 49.6667 12.4V15H47.9333V12.4C47.9333 8.57069 44.8293 5.46667 41 5.46667C37.1707 5.46667 34.0667 8.57069 34.0667 12.4V15H32.3333V12.4ZM35.8 15V12.4C35.8 9.52862 38.1286 7.2 41 7.2C43.8714 7.2 46.2 9.52862 46.2 12.4V15H35.8ZM52.2667 28.553C52.2661 29.2049 51.7372 29.7331 51.0856 29.7333H30.9144C30.2628 29.7331 29.7339 29.2049 29.7333 28.553V17.9136C29.7339 17.2617 30.2628 16.7336 30.9144 16.7333H51.0856C51.7372 16.7336 52.2661 17.2617 52.2667 17.9136V28.553Z" fill="#2333A4"/>
<path d="M40.9997 20.2C39.7349 20.1972 38.6529 21.1075 38.4381 22.3544C38.2239 23.6011 38.94 24.8204 40.133 25.2404V27.1333H41.8663V25.2404C43.0593 24.8204 43.7754 23.6011 43.5612 22.3544C43.3464 21.1075 42.2644 20.1972 40.9997 20.2ZM40.9997 23.6666C40.5208 23.6666 40.133 23.2788 40.133 22.8C40.133 22.3211 40.5208 21.9333 40.9997 21.9333C41.4785 21.9333 41.8663 22.3211 41.8663 22.8C41.8663 23.2788 41.4785 23.6666 40.9997 23.6666Z" fill="#2333A4"/>
<path d="M17.6001 15.8666H19.3334V17.5999H17.6001V15.8666Z" fill="#2333A4"/>
<path d="M17.6001 12.4H19.3334V14.1334H17.6001V12.4Z" fill="#2333A4"/>
<path d="M17.6001 8.93335H19.3334V10.6667H17.6001V8.93335Z" fill="#2333A4"/>
<path d="M17.6001 5.46667H19.3334V7.20001H17.6001V5.46667Z" fill="#2333A4"/>
<path d="M21.0664 5.46667H22.7997V7.20001H21.0664V5.46667Z" fill="#2333A4"/>
<path d="M24.5337 5.46667H26.267V7.20001H24.5337V5.46667Z" fill="#2333A4"/>
<path d="M28 5.46667H29.7333V7.20001H28V5.46667Z" fill="#2333A4"/>
</svg>
