<svg width="56" height="56" viewBox="0 0 56 56" fill="none" xmlns="http://www.w3.org/2000/svg">
<path d="M47.4755 4H8.52454C7.85525 4.00084 7.2136 4.27022 6.74034 4.74905C6.26708 5.22788 6.00083 5.87707 6 6.55424V45.9629C6.0009 46.6351 6.26345 47.28 6.73082 47.7578C7.19818 48.2356 7.83274 48.5079 8.49711 48.5158V51.2038C8.49723 51.4149 8.58018 51.6174 8.72773 51.7667C8.87529 51.916 9.07538 51.9999 9.28406 52H14.6385C14.8471 51.9999 15.0472 51.916 15.1948 51.7667C15.3424 51.6174 15.4253 51.4149 15.4254 51.2038V48.5194H40.5746V51.2038C40.5747 51.4149 40.6576 51.6174 40.8052 51.7667C40.9528 51.916 41.1529 51.9999 41.3615 52H46.7159C46.9246 51.9999 47.1247 51.916 47.2723 51.7667C47.4198 51.6174 47.5028 51.4149 47.5029 51.2038V48.5158C48.1673 48.5079 48.8018 48.2356 49.2692 47.7578C49.7365 47.28 49.9991 46.6351 50 45.9629V6.55424C49.9992 5.87707 49.7329 5.22788 49.2597 4.74905C48.7864 4.27022 48.1448 4.00084 47.4755 4ZM13.8515 50.4076H10.071V48.5194H13.8515V50.4076ZM42.1485 50.4076V48.5194H45.929V50.4099L42.1485 50.4076ZM48.4261 45.9629C48.4259 46.2179 48.3256 46.4624 48.1474 46.6428C47.9692 46.8231 47.7275 46.9245 47.4755 46.9247H8.52454C8.27249 46.9245 8.03083 46.8231 7.8526 46.6428C7.67437 46.4624 7.57414 46.2179 7.5739 45.9629V6.55424C7.57414 6.29922 7.67437 6.05472 7.8526 5.87439C8.03083 5.69407 8.27249 5.59266 8.52454 5.59242H47.4755C47.7275 5.59266 47.9692 5.69407 48.1474 5.87439C48.3256 6.05472 48.4259 6.29922 48.4261 6.55424V45.9629Z" fill="#2333A4"/>
<path d="M34.8379 19.4623C34.8211 19.4389 34.8029 19.4164 34.7835 19.395C34.7626 19.3757 34.7407 19.3575 34.7179 19.3404C32.9278 17.5539 30.5144 16.5522 28 16.5522C25.4856 16.5522 23.0722 17.5539 21.2821 19.3404C21.2593 19.3575 21.2374 19.3757 21.2165 19.395C21.1971 19.4164 21.1789 19.4389 21.1621 19.4623C19.3958 21.2734 18.4055 23.7154 18.4055 26.2597C18.4055 28.804 19.3958 31.2459 21.1621 33.057C21.1785 33.0796 21.196 33.1014 21.2147 33.1221C21.2349 33.1407 21.256 33.1581 21.2781 33.1744C23.0683 34.9625 25.4826 35.9652 27.9982 35.9652C30.5138 35.9652 32.9281 34.9625 34.7183 33.1744C34.7404 33.1581 34.7615 33.1407 34.7817 33.1221C34.8004 33.1014 34.8179 33.0796 34.8343 33.057C36.6006 31.2459 37.5909 28.804 37.5909 26.2597C37.5909 23.7154 36.6006 21.2734 34.8343 19.4623H34.8379ZM34.1967 31.4023L32.7469 29.9354C33.3843 29.0971 33.7921 28.1036 33.9291 27.055H35.9797C35.8253 28.6511 35.2046 30.1645 34.1967 31.4023ZM20.0203 27.055H22.0709C22.2079 28.1036 22.6157 29.0971 23.2531 29.9354L21.8033 31.4023C20.7954 30.1645 20.1747 28.6511 20.0203 27.055ZM21.8033 21.1148L23.2531 22.5821C22.6157 23.4205 22.2079 24.414 22.0709 25.4626H20.0203C20.1747 23.8663 20.7955 22.3528 21.8033 21.1148ZM28 30.7235C27.1271 30.7235 26.2738 30.4617 25.548 29.9711C24.8222 29.4805 24.2564 28.7832 23.9223 27.9673C23.5883 27.1513 23.5008 26.2535 23.6711 25.3873C23.8414 24.5211 24.2617 23.7255 24.8789 23.101C25.4962 22.4765 26.2826 22.0512 27.1387 21.879C27.9948 21.7067 28.8822 21.7951 29.6886 22.1332C30.4951 22.4712 31.1843 23.0435 31.6692 23.7779C32.1541 24.5123 32.4129 25.3756 32.4128 26.2588C32.4115 27.4425 31.9461 28.5773 31.1189 29.4143C30.2916 30.2513 29.1699 30.7221 28 30.7235ZM31.6339 21.456C30.8053 20.8111 29.8233 20.3986 28.787 20.2599V18.1848C30.3646 18.3414 31.8605 18.9695 33.0842 19.9892L31.6339 21.456ZM27.213 20.2599C26.1767 20.3986 25.1947 20.8111 24.3661 21.456L22.9158 19.9892C24.1395 18.9695 25.6354 18.3414 27.213 18.1848V20.2599ZM24.3656 31.0615C25.1946 31.7061 26.1766 32.1187 27.213 32.2576V34.3323C25.6354 34.1759 24.1395 33.5479 22.9158 32.5283L24.3656 31.0615ZM28.787 32.2576C29.8234 32.1187 30.8054 31.7061 31.6344 31.0615L33.0842 32.5283C31.8605 33.5479 30.3646 34.1759 28.787 34.3323V32.2576ZM33.9291 25.4626C33.7921 24.414 33.3843 23.4205 32.7469 22.5821L34.1967 21.1148C35.2045 22.3528 35.8253 23.8663 35.9797 25.4626H33.9291Z" fill="#2333A4"/>
<path d="M28.0002 24.3403C27.6253 24.3403 27.2587 24.4528 26.947 24.6636C26.6352 24.8744 26.3922 25.174 26.2487 25.5245C26.1052 25.875 26.0676 26.2606 26.1408 26.6327C26.214 27.0048 26.3945 27.3466 26.6597 27.6149C26.9248 27.8831 27.2626 28.0658 27.6304 28.1398C27.9981 28.2139 28.3793 28.1759 28.7258 28.0307C29.0722 27.8855 29.3683 27.6396 29.5766 27.3242C29.7849 27.0088 29.8961 26.6379 29.8961 26.2585C29.8956 25.7499 29.6958 25.2623 29.3403 24.9027C28.9849 24.5431 28.5029 24.3408 28.0002 24.3403ZM28.0002 26.5843C27.9366 26.5843 27.8743 26.5652 27.8214 26.5294C27.7684 26.4936 27.7271 26.4427 27.7028 26.3832C27.6784 26.3237 27.672 26.2582 27.6845 26.195C27.6969 26.1318 27.7275 26.0737 27.7726 26.0282C27.8176 25.9826 27.875 25.9516 27.9374 25.939C27.9999 25.9264 28.0646 25.9329 28.1235 25.9576C28.1823 25.9822 28.2326 26.024 28.268 26.0775C28.3033 26.1311 28.3222 26.1941 28.3222 26.2585C28.3221 26.3449 28.2881 26.4277 28.2278 26.4887C28.1674 26.5498 28.0856 26.5842 28.0002 26.5843Z" fill="#2333A4"/>
<path d="M45.9874 22.5027H45.4253V10.8653C45.4252 10.6542 45.3423 10.4517 45.1947 10.3024C45.0471 10.1531 44.8471 10.0692 44.6384 10.0691H11.3616C11.1529 10.0692 10.9528 10.1531 10.8053 10.3024C10.6577 10.4517 10.5748 10.6542 10.5747 10.8653V13.5865C10.0922 13.753 9.67322 14.0679 9.37628 14.4871C9.07934 14.9063 8.91928 15.4089 8.91846 15.9246V19.3219C8.91928 19.8377 9.07934 20.3403 9.37628 20.7595C9.67322 21.1787 10.0922 21.4936 10.5747 21.6601V30.8579C10.0922 31.0243 9.67327 31.3391 9.37633 31.7582C9.07939 32.1773 8.9193 32.6799 8.91846 33.1955V36.5928C8.91928 37.1086 9.07934 37.6112 9.37628 38.0304C9.67322 38.4496 10.0922 38.7645 10.5747 38.931V41.6522C10.5748 41.8633 10.6577 42.0658 10.8053 42.2151C10.9528 42.3643 11.1529 42.4483 11.3616 42.4484H44.6384C44.8471 42.4483 45.0471 42.3643 45.1947 42.2151C45.3423 42.0658 45.4252 41.8633 45.4253 41.6522V30.0148H45.9874C46.1961 30.0147 46.3962 29.9308 46.5438 29.7815C46.6913 29.6322 46.7743 29.4297 46.7744 29.2186V23.2989C46.7743 23.0878 46.6913 22.8853 46.5438 22.736C46.3962 22.5867 46.1961 22.5028 45.9874 22.5027ZM45.2005 28.4224H42.9709V24.0951H45.1987L45.2005 28.4224ZM10.4942 15.9246C10.4942 15.6914 10.5857 15.4677 10.7488 15.3028C10.9118 15.1378 11.1329 15.0452 11.3634 15.0452C11.5939 15.0452 11.815 15.1378 11.978 15.3028C12.1411 15.4677 12.2326 15.6914 12.2326 15.9246V19.3219C12.2325 19.5549 12.1411 19.7783 11.9784 19.9432C11.8157 20.1081 11.595 20.2009 11.3648 20.2014H11.3616C11.1313 20.2009 10.9106 20.1081 10.7478 19.9432C10.585 19.7784 10.4935 19.555 10.4933 19.3219L10.4942 15.9246ZM10.4942 33.1955C10.4942 32.9623 10.5857 32.7386 10.7488 32.5737C10.9118 32.4087 11.1329 32.3161 11.3634 32.3161C11.5939 32.3161 11.815 32.4087 11.978 32.5737C12.1411 32.7386 12.2326 32.9623 12.2326 33.1955V36.5928C12.2326 36.8261 12.1411 37.0498 11.978 37.2147C11.815 37.3797 11.5939 37.4723 11.3634 37.4723C11.1329 37.4723 10.9118 37.3797 10.7488 37.2147C10.5857 37.0498 10.4942 36.8261 10.4942 36.5928V33.1955ZM43.8496 40.856H12.1504V38.931C12.6328 38.7645 13.0518 38.4496 13.3487 38.0304C13.6457 37.6112 13.8057 37.1086 13.8065 36.5928V33.1955C13.8056 32.6799 13.6455 32.1774 13.3486 31.7583C13.0517 31.3391 12.6327 31.0244 12.1504 30.8579V21.6601C12.6328 21.4936 13.0518 21.1787 13.3487 20.7595C13.6457 20.3403 13.8057 19.8377 13.8065 19.3219V15.9246C13.8058 15.4089 13.6457 14.9064 13.3488 14.4872C13.0518 14.0681 12.6328 13.7533 12.1504 13.587V11.6615H43.8496V22.5027H42.1858C41.9771 22.5027 41.7769 22.5866 41.6293 22.7359C41.4818 22.8852 41.3988 23.0877 41.3988 23.2989V29.2186C41.3988 29.4298 41.4818 29.6323 41.6293 29.7816C41.7769 29.9309 41.9771 30.0148 42.1858 30.0148H43.8496V40.856Z" fill="#2333A4"/>
</svg>
