<svg width="56" height="56" viewBox="0 0 56 56" fill="none" xmlns="http://www.w3.org/2000/svg">
<path d="M49.7643 31.363V27.1146H49.8685C50.7031 27.1146 51.3821 26.4355 51.3821 25.6009V20.692C51.3821 19.8573 50.7031 19.1783 49.8685 19.1783H49.7643V17.4839C49.7643 9.49746 43.2668 3 35.2803 3H20.7197C12.7332 3 6.23564 9.49746 6.23564 17.484V19.1784H6.13154C5.29688 19.1784 4.61787 19.8574 4.61787 20.6921V25.601C4.61787 26.4356 5.29688 27.1146 6.13154 27.1146H6.23564V31.3631C4.40332 31.6613 3 33.2543 3 35.1696V41.8622C3 43.9892 4.73047 45.7196 6.85742 45.7196H9.47139V45.8516C9.47139 47.117 10.5009 48.1465 11.7663 48.1465H15.1127C16.3781 48.1465 17.4076 47.117 17.4076 45.8516V36.2949C17.4076 35.8904 17.0797 35.5625 16.6752 35.5625C16.2707 35.5625 15.9428 35.8904 15.9428 36.2949V45.8516C15.9428 46.3092 15.5704 46.6816 15.1127 46.6816H11.7663C11.3086 46.6816 10.9362 46.3092 10.9362 45.8516V44.9872V40.9427V36.0892V32.0446V31.1803C10.9362 30.7227 11.3086 30.3502 11.7663 30.3502H15.1127C15.5704 30.3502 15.9428 30.7227 15.9428 31.1803V33.3075C15.9428 33.7121 16.2707 34.0399 16.6752 34.0399C17.0797 34.0399 17.4076 33.7121 17.4076 33.3075V31.1803C17.4076 29.9148 16.3781 28.8854 15.1127 28.8854H11.7663C11.4736 28.8854 11.1938 28.941 10.9362 29.0413V27.1146H11.0404C11.8751 27.1146 12.5541 26.4355 12.5541 25.6009V20.692C12.5541 19.8573 11.8751 19.1783 11.0404 19.1783H10.9362V17.4839C10.9362 12.0893 15.3251 7.70039 20.7198 7.70039H21.4573C21.8618 7.70039 22.1897 7.37256 22.1897 6.96797C22.1897 6.56338 21.8618 6.23555 21.4573 6.23555H20.7198C14.5174 6.23555 9.47139 11.2815 9.47139 17.4839V19.1783H7.70049V17.4839C7.70049 10.3053 13.5409 4.46484 20.7197 4.46484H35.2803C42.4591 4.46484 48.2994 10.3053 48.2994 17.484V19.1784H46.5286V17.484C46.5286 11.2816 41.4826 6.23564 35.2802 6.23564H24.3869C23.9824 6.23564 23.6545 6.56348 23.6545 6.96807C23.6545 7.37266 23.9824 7.70049 24.3869 7.70049H35.2803C40.6749 7.70049 45.0639 12.0893 45.0639 17.484V19.1784H44.9598C44.1251 19.1784 43.4461 19.8574 43.4461 20.6921V25.601C43.4461 26.4356 44.1251 27.1146 44.9598 27.1146H45.0639V29.0414C44.8063 28.9411 44.5265 28.8854 44.2338 28.8854H40.8874C39.622 28.8854 38.5925 29.9149 38.5925 31.1804V45.8516C38.5925 47.117 39.622 48.1465 40.8874 48.1465H44.2338C45.4992 48.1465 46.5287 47.117 46.5287 45.8516V45.7196H47.4906V47.4141C47.4906 48.7944 46.3677 49.9174 44.9874 49.9174H35.2038V49.8132C35.2038 48.9785 34.5248 48.2995 33.6901 48.2995H25.5456C24.7109 48.2995 24.0319 48.9785 24.0319 49.8132V51.4863C24.0319 52.321 24.7109 53 25.5456 53H33.6901C34.5248 53 35.2038 52.321 35.2038 51.4863V51.3822H44.9873C47.1753 51.3822 48.9554 49.6021 48.9554 47.4141V45.7196H49.1426C51.2695 45.7196 53 43.9892 53 41.8622V35.1696C53 33.2543 51.5966 31.6612 49.7643 31.363ZM6.85742 44.2548C5.53818 44.2548 4.46484 43.1815 4.46484 41.8622V35.1696C4.46484 33.8503 5.53818 32.7771 6.85742 32.7771H6.96807H9.47129V35.3567H7.74932C6.91465 35.3567 6.23564 36.0357 6.23564 36.8704V40.1614C6.23564 40.9961 6.91465 41.6751 7.74932 41.6751H9.47129V44.2548H6.85742ZM9.47139 40.2103H7.74932C7.72236 40.2103 7.70049 40.1883 7.70049 40.1614V36.8704C7.70049 36.8436 7.72236 36.8216 7.74932 36.8216H9.47129L9.47139 40.2103ZM9.47139 31.1803V31.3122H7.70049V27.1146H9.47129L9.47139 31.1803ZM11.0892 20.6921V25.601C11.0892 25.6278 11.0673 25.6498 11.0403 25.6498H10.2037H6.96807H6.13154C6.10459 25.6498 6.08271 25.6278 6.08271 25.601V20.6921C6.08271 20.6652 6.10459 20.6433 6.13154 20.6433H11.0404C11.0673 20.6433 11.0892 20.6652 11.0892 20.6921ZM25.4968 51.4863V49.8131C25.4968 49.7862 25.5187 49.7643 25.5456 49.7643H30.5033V51.5352H25.5456C25.5187 51.5352 25.4968 51.5132 25.4968 51.4863ZM33.739 51.4863C33.739 51.5132 33.717 51.5352 33.6901 51.5352H31.9682V49.7643H33.6901C33.717 49.7643 33.739 49.7862 33.739 49.8131V51.4863ZM44.9108 25.601V20.6921C44.9108 20.6652 44.9328 20.6433 44.9597 20.6433H49.8686C49.8954 20.6433 49.9174 20.6652 49.9174 20.6921V25.601C49.9174 25.6278 49.8954 25.6498 49.8686 25.6498H49.0319H45.7963H44.9598C44.9328 25.6498 44.9108 25.6278 44.9108 25.601ZM48.2994 27.1146V31.3122H46.5286V31.1803V27.1146L48.2994 27.1146ZM46.5286 36.8216H48.2506C48.2774 36.8216 48.2994 36.8436 48.2994 36.8704V40.1614C48.2994 40.1883 48.2774 40.2103 48.2506 40.2103H46.5286V36.8216ZM45.0638 45.8516C45.0638 46.3092 44.6913 46.6816 44.2337 46.6816H40.8873C40.4297 46.6816 40.0572 46.3092 40.0572 45.8516V31.1803C40.0572 30.7227 40.4297 30.3502 40.8873 30.3502H44.2337C44.6913 30.3502 45.0638 30.7227 45.0638 31.1803V32.0446V36.0892V40.9427V44.9872V45.8516ZM51.5352 41.8622C51.5352 43.1815 50.4619 44.2548 49.1426 44.2548H46.5286V41.6751H48.2506C49.0853 41.6751 49.7643 40.9961 49.7643 40.1614V36.8704C49.7643 36.0357 49.0853 35.3567 48.2506 35.3567H46.5286V32.7771H49.0318H49.1426C50.4619 32.7771 51.5352 33.8503 51.5352 35.1696V41.8622Z" fill="#2333A4"/>
</svg>
