<svg width="20" height="20" viewBox="0 0 20 20" fill="none" xmlns="http://www.w3.org/2000/svg">
<path d="M18.3332 9.99999C18.3332 8.90564 18.1176 7.82201 17.6988 6.81096C17.28 5.79991 16.6662 4.88125 15.8924 4.10743C15.1186 3.33361 14.1999 2.71978 13.1889 2.30099C12.1778 1.8822 11.0942 1.66666 9.99984 1.66666C7.7897 1.66666 5.67008 2.54463 4.10728 4.10743C2.54448 5.67024 1.6665 7.78985 1.6665 9.99999C1.6665 12.2101 2.54448 14.3297 4.10728 15.8925C5.67008 17.4553 7.7897 18.3333 9.99984 18.3333C12.21 18.3333 14.3296 17.4553 15.8924 15.8925C17.4552 14.3297 18.3332 12.2101 18.3332 9.99999ZM16.6082 9.16666H14.1665C14.0291 7.20678 13.3576 5.32195 12.2248 3.71666C13.3886 4.12996 14.4146 4.85838 15.1886 5.82069C15.9625 6.783 16.454 7.94138 16.6082 9.16666ZM7.5665 10.8333H12.4998C12.2866 12.8921 11.409 14.8256 9.99984 16.3417C8.59156 14.832 7.73416 12.8911 7.5665 10.8333ZM7.5665 9.16666C7.76058 7.11818 8.6145 5.18809 9.99984 3.66666C11.4204 5.17176 12.2999 7.10669 12.4998 9.16666H7.5665ZM7.8665 3.69166C6.7278 5.30584 6.0455 7.19726 5.8915 9.16666H3.3915C3.54892 7.92624 4.05201 6.75509 4.84331 5.78697C5.63461 4.81884 6.68222 4.09277 7.8665 3.69166ZM3.3915 10.8333H5.8915C6.02875 12.801 6.7064 14.6927 7.84984 16.3C6.66982 15.8969 5.62649 15.171 4.83839 14.2046C4.0503 13.2383 3.54902 12.0703 3.3915 10.8333ZM12.1832 16.2917C13.3235 14.6839 14.0087 12.7981 14.1665 10.8333H16.6248C16.4672 12.0669 15.9678 13.2317 15.1829 14.1963C14.398 15.1608 13.3589 15.8866 12.1832 16.2917Z" fill="#2D3748"/>
</svg>
