<svg width="20" height="20" viewBox="0 0 20 20" fill="none" xmlns="http://www.w3.org/2000/svg">
<path d="M18.3333 9.99999C18.3333 8.90564 18.1177 7.82201 17.699 6.81096C17.2802 5.79991 16.6663 4.88125 15.8925 4.10743C15.1187 3.33361 14.2 2.71978 13.189 2.30099C12.1779 1.8822 11.0943 1.66666 9.99996 1.66666C7.78982 1.66666 5.67021 2.54463 4.1074 4.10743C2.5446 5.67024 1.66663 7.78985 1.66663 9.99999C1.66663 12.2101 2.5446 14.3297 4.1074 15.8925C5.67021 17.4553 7.78982 18.3333 9.99996 18.3333C12.2101 18.3333 14.3297 17.4553 15.8925 15.8925C17.4553 14.3297 18.3333 12.2101 18.3333 9.99999ZM16.6083 9.16666H14.1666C14.0292 7.20678 13.3577 5.32195 12.225 3.71666C13.3887 4.12996 14.4147 4.85838 15.1887 5.82069C15.9627 6.783 16.4541 7.94138 16.6083 9.16666ZM7.56663 10.8333H12.5C12.2867 12.8921 11.4092 14.8256 9.99996 16.3417C8.59169 14.832 7.73429 12.8911 7.56663 10.8333ZM7.56663 9.16666C7.7607 7.11818 8.61462 5.18809 9.99996 3.66666C11.4206 5.17176 12.3001 7.10669 12.5 9.16666H7.56663ZM7.86663 3.69166C6.72792 5.30584 6.04563 7.19726 5.89163 9.16666H3.39163C3.54905 7.92624 4.05213 6.75509 4.84343 5.78697C5.63473 4.81884 6.68234 4.09277 7.86663 3.69166ZM3.39163 10.8333H5.89163C6.02887 12.801 6.70653 14.6927 7.84996 16.3C6.66994 15.8969 5.62661 15.171 4.83852 14.2046C4.05042 13.2383 3.54914 12.0703 3.39163 10.8333ZM12.1833 16.2917C13.3236 14.6839 14.0088 12.7981 14.1666 10.8333H16.625C16.4674 12.0669 15.9679 13.2317 15.183 14.1963C14.3981 15.1608 13.3591 15.8866 12.1833 16.2917Z" fill="white"/>
</svg>
