<svg width="18" height="18" viewBox="0 0 18 18" fill="none" xmlns="http://www.w3.org/2000/svg">
<path d="M17.3334 8.99999C17.3334 7.90564 17.1179 6.82201 16.6991 5.81096C16.2803 4.79991 15.6665 3.88125 14.8926 3.10743C14.1188 2.33361 13.2002 1.71978 12.1891 1.30099C11.1781 0.882205 10.0944 0.666656 9.00008 0.666656C6.78994 0.666656 4.67033 1.54463 3.10752 3.10743C1.54472 4.67024 0.666748 6.78985 0.666748 8.99999C0.666748 11.2101 1.54472 13.3297 3.10752 14.8925C4.67033 16.4553 6.78994 17.3333 9.00008 17.3333C11.2102 17.3333 13.3298 16.4553 14.8926 14.8925C16.4554 13.3297 17.3334 11.2101 17.3334 8.99999ZM15.6084 8.16666H13.1667C13.0293 6.20678 12.3578 4.32195 11.2251 2.71666C12.3888 3.12996 13.4149 3.85838 14.1888 4.82069C14.9628 5.783 15.4543 6.94138 15.6084 8.16666ZM6.56675 9.83332H11.5001C11.2868 11.8921 10.4093 13.8256 9.00008 15.3417C7.59181 13.832 6.73441 11.8911 6.56675 9.83332ZM6.56675 8.16666C6.76082 6.11818 7.61474 4.18809 9.00008 2.66666C10.4207 4.17176 11.3002 6.10669 11.5001 8.16666H6.56675ZM6.86675 2.69166C5.72804 4.30584 5.04575 6.19726 4.89175 8.16666H2.39175C2.54917 6.92624 3.05225 5.75509 3.84355 4.78697C4.63485 3.81884 5.68246 3.09277 6.86675 2.69166ZM2.39175 9.83332H4.89175C5.02899 11.801 5.70665 13.6927 6.85008 15.3C5.67006 14.8969 4.62674 14.171 3.83864 13.2046C3.05054 12.2383 2.54926 11.0703 2.39175 9.83332ZM11.1834 15.2917C12.3238 13.6839 13.009 11.7981 13.1667 9.83332H15.6251C15.4675 11.0669 14.968 12.2317 14.1831 13.1963C13.3982 14.1608 12.3592 14.8866 11.1834 15.2917Z" fill="white"/>
</svg>
