<svg width="18" height="18" viewBox="0 0 18 18" fill="none" xmlns="http://www.w3.org/2000/svg">
<path d="M17.3332 8.99999C17.3332 7.90564 17.1176 6.82201 16.6988 5.81096C16.28 4.79991 15.6662 3.88125 14.8924 3.10743C14.1186 2.33361 13.1999 1.71978 12.1889 1.30099C11.1778 0.882205 10.0942 0.666656 8.99984 0.666656C6.7897 0.666656 4.67008 1.54463 3.10728 3.10743C1.54448 4.67024 0.666504 6.78985 0.666504 8.99999C0.666504 11.2101 1.54448 13.3297 3.10728 14.8925C4.67008 16.4553 6.7897 17.3333 8.99984 17.3333C11.21 17.3333 13.3296 16.4553 14.8924 14.8925C16.4552 13.3297 17.3332 11.2101 17.3332 8.99999ZM15.6082 8.16666H13.1665C13.0291 6.20678 12.3576 4.32195 11.2248 2.71666C12.3886 3.12996 13.4146 3.85838 14.1886 4.82069C14.9625 5.783 15.454 6.94138 15.6082 8.16666ZM6.5665 9.83332H11.4998C11.2866 11.8921 10.409 13.8256 8.99984 15.3417C7.59156 13.832 6.73416 11.8911 6.5665 9.83332ZM6.5665 8.16666C6.76058 6.11818 7.6145 4.18809 8.99984 2.66666C10.4204 4.17176 11.2999 6.10669 11.4998 8.16666H6.5665ZM6.8665 2.69166C5.7278 4.30584 5.0455 6.19726 4.8915 8.16666H2.3915C2.54892 6.92624 3.05201 5.75509 3.84331 4.78697C4.63461 3.81884 5.68222 3.09277 6.8665 2.69166ZM2.3915 9.83332H4.8915C5.02875 11.801 5.7064 13.6927 6.84984 15.3C5.66982 14.8969 4.62649 14.171 3.83839 13.2046C3.0503 12.2383 2.54902 11.0703 2.3915 9.83332ZM11.1832 15.2917C12.3235 13.6839 13.0087 11.7981 13.1665 9.83332H15.6248C15.4672 11.0669 14.9678 12.2317 14.1829 13.1963C13.398 14.1608 12.3589 14.8866 11.1832 15.2917Z" fill="#2D3748"/>
</svg>
