<svg width="20" height="20" viewBox="0 0 20 20" fill="none" xmlns="http://www.w3.org/2000/svg">
<path d="M14.5001 18.3333C11.0978 18.3289 7.83618 16.9754 5.43042 14.5697C3.02465 12.1639 1.67116 8.90225 1.66675 5.49999C1.66675 4.48333 2.07062 3.50831 2.78951 2.78942C3.50839 2.07053 4.48342 1.66666 5.50008 1.66666C5.71537 1.66502 5.93029 1.68456 6.14175 1.72499C6.34617 1.75524 6.54714 1.80548 6.74175 1.87499C6.87862 1.92302 7.00059 2.00594 7.09559 2.11555C7.19059 2.22517 7.25533 2.35768 7.28341 2.49999L8.42508 7.49999C8.45585 7.63571 8.45215 7.77698 8.4143 7.9109C8.37646 8.04482 8.30567 8.16712 8.20842 8.26666C8.10008 8.38333 8.09175 8.39166 7.06675 8.92499C7.88758 10.7257 9.32775 12.1718 11.1251 13C11.6667 11.9667 11.6751 11.9583 11.7917 11.85C11.8913 11.7527 12.0136 11.682 12.1475 11.6441C12.2814 11.6063 12.4227 11.6026 12.5584 11.6333L17.5584 12.775C17.6962 12.807 17.8235 12.8734 17.9285 12.9682C18.0335 13.063 18.1126 13.1829 18.1584 13.3167C18.2288 13.5145 18.2817 13.718 18.3167 13.925C18.3503 14.1344 18.367 14.3462 18.3667 14.5583C18.3514 15.5706 17.9362 16.5358 17.2117 17.243C16.4873 17.9503 15.5125 18.3422 14.5001 18.3333ZM5.50008 3.33333C4.92612 3.33552 4.3763 3.5645 3.97044 3.97035C3.56459 4.37621 3.33561 4.92603 3.33341 5.49999C3.33562 8.4609 4.51282 11.2999 6.60649 13.3936C8.70017 15.4873 11.5392 16.6645 14.5001 16.6667C15.074 16.6645 15.6239 16.4355 16.0297 16.0296C16.4356 15.6238 16.6646 15.074 16.6667 14.5V14.225L12.8001 13.3333L12.5584 13.7917C12.1834 14.5167 11.9084 15.0417 11.2084 14.7583C9.82748 14.264 8.574 13.4684 7.53903 12.4291C6.50406 11.3898 5.7136 10.133 5.22508 8.74999C4.92508 8.09999 5.49175 7.79999 6.20841 7.42499L6.66675 7.19999L5.77508 3.33333H5.50008Z" fill="white"/>
</svg>
