<svg width="18" height="18" viewBox="0 0 18 18" fill="none" xmlns="http://www.w3.org/2000/svg">
<path d="M13.5001 17.3333C10.0978 17.3289 6.83618 15.9754 4.43042 13.5697C2.02465 11.1639 0.671158 7.90225 0.666748 4.49999C0.666748 3.48333 1.07062 2.50831 1.78951 1.78942C2.50839 1.07053 3.48342 0.66666 4.50008 0.66666C4.71537 0.66502 4.93029 0.684559 5.14175 0.724993C5.34617 0.755244 5.54714 0.805485 5.74175 0.874994C5.87862 0.923018 6.00059 1.00594 6.09559 1.11555C6.19059 1.22517 6.25533 1.35768 6.28341 1.49999L7.42508 6.49999C7.45585 6.63571 7.45215 6.77698 7.4143 6.9109C7.37646 7.04482 7.30567 7.16712 7.20842 7.26666C7.10008 7.38333 7.09175 7.39166 6.06675 7.92499C6.88758 9.72571 8.32775 11.1718 10.1251 12C10.6667 10.9667 10.6751 10.9583 10.7917 10.85C10.8913 10.7527 11.0136 10.682 11.1475 10.6441C11.2814 10.6063 11.4227 10.6026 11.5584 10.6333L16.5584 11.775C16.6962 11.807 16.8235 11.8734 16.9285 11.9682C17.0335 12.063 17.1126 12.1829 17.1584 12.3167C17.2288 12.5145 17.2817 12.718 17.3167 12.925C17.3503 13.1344 17.367 13.3462 17.3667 13.5583C17.3514 14.5706 16.9362 15.5358 16.2117 16.243C15.4873 16.9503 14.5125 17.3422 13.5001 17.3333ZM4.50008 2.33333C3.92612 2.33552 3.3763 2.5645 2.97044 2.97035C2.56459 3.37621 2.33561 3.92603 2.33341 4.49999C2.33562 7.4609 3.51282 10.2999 5.60649 12.3936C7.70017 14.4873 10.5392 15.6645 13.5001 15.6667C14.074 15.6645 14.6239 15.4355 15.0297 15.0296C15.4356 14.6238 15.6646 14.074 15.6667 13.5V13.225L11.8001 12.3333L11.5584 12.7917C11.1834 13.5167 10.9084 14.0417 10.2084 13.7583C8.82748 13.264 7.574 12.4684 6.53903 11.4291C5.50406 10.3898 4.7136 9.13298 4.22508 7.74999C3.92508 7.09999 4.49175 6.79999 5.20841 6.42499L5.66675 6.19999L4.77508 2.33333H4.50008Z" fill="white"/>
</svg>
