<svg width="20" height="20" viewBox="0 0 20 20" fill="none" xmlns="http://www.w3.org/2000/svg">
<path d="M14.4998 18.3333C11.0976 18.3289 7.83593 16.9754 5.43017 14.5697C3.02441 12.1639 1.67091 8.90225 1.6665 5.49999C1.6665 4.48333 2.07037 3.50831 2.78926 2.78942C3.50815 2.07053 4.48317 1.66666 5.49984 1.66666C5.71512 1.66502 5.93004 1.68456 6.1415 1.72499C6.34593 1.75524 6.54689 1.80548 6.7415 1.87499C6.87838 1.92302 7.00035 2.00594 7.09535 2.11555C7.19035 2.22517 7.25509 2.35768 7.28317 2.49999L8.42484 7.49999C8.45561 7.63571 8.4519 7.77698 8.41406 7.9109C8.37621 8.04482 8.30543 8.16712 8.20817 8.26666C8.09984 8.38333 8.0915 8.39166 7.0665 8.92499C7.88733 10.7257 9.3275 12.1718 11.1248 13C11.6665 11.9667 11.6748 11.9583 11.7915 11.85C11.891 11.7527 12.0133 11.682 12.1473 11.6441C12.2812 11.6063 12.4225 11.6026 12.5582 11.6333L17.5582 12.775C17.6959 12.807 17.8233 12.8734 17.9282 12.9682C18.0332 13.063 18.1123 13.1829 18.1582 13.3167C18.2285 13.5145 18.2815 13.718 18.3165 13.925C18.35 14.1344 18.3668 14.3462 18.3665 14.5583C18.3511 15.5706 17.9359 16.5358 17.2115 17.243C16.487 17.9503 15.5122 18.3422 14.4998 18.3333ZM5.49984 3.33333C4.92588 3.33552 4.37605 3.5645 3.9702 3.97035C3.56434 4.37621 3.33537 4.92603 3.33317 5.49999C3.33538 8.4609 4.51257 11.2999 6.60625 13.3936C8.69993 15.4873 11.5389 16.6645 14.4998 16.6667C15.0738 16.6645 15.6236 16.4355 16.0295 16.0296C16.4353 15.6238 16.6643 15.074 16.6665 14.5V14.225L12.7998 13.3333L12.5582 13.7917C12.1832 14.5167 11.9082 15.0417 11.2082 14.7583C9.82724 14.264 8.57375 13.4684 7.53878 12.4291C6.50381 11.3898 5.71336 10.133 5.22484 8.74999C4.92484 8.09999 5.4915 7.79999 6.20817 7.42499L6.6665 7.19999L5.77484 3.33333H5.49984Z" fill="#2D3748"/>
</svg>
