<svg width="20" height="20" viewBox="0 0 20 20" fill="none" xmlns="http://www.w3.org/2000/svg">
<path d="M8.3335 11.667H11.6668V17.5003H8.3335V11.667Z" fill="#AEB0CA"/>
<path d="M17.0168 8.48358L10.5918 1.91691C10.5143 1.8388 10.4221 1.77681 10.3206 1.7345C10.219 1.69219 10.1101 1.67041 10.0001 1.67041C9.89009 1.67041 9.78117 1.69219 9.67962 1.7345C9.57807 1.77681 9.4859 1.8388 9.40843 1.91691L2.98343 8.49191C2.82796 8.64863 2.70517 8.83468 2.6222 9.03925C2.53923 9.24382 2.49773 9.46283 2.5001 9.68358V16.6669C2.49945 17.0935 2.66241 17.5041 2.95541 17.8142C3.24841 18.1242 3.64915 18.3101 4.0751 18.3336H6.66676V10.8336C6.66676 10.6126 6.75456 10.4006 6.91084 10.2443C7.06712 10.088 7.27908 10.0002 7.5001 10.0002H12.5001C12.7211 10.0002 12.9331 10.088 13.0894 10.2443C13.2456 10.4006 13.3334 10.6126 13.3334 10.8336V18.3336H15.9251C16.351 18.3101 16.7518 18.1242 17.0448 17.8142C17.3378 17.5041 17.5007 17.0935 17.5001 16.6669V9.68358C17.5008 9.23602 17.3274 8.80573 17.0168 8.48358Z" fill="#AEB0CA"/>
</svg>
