<svg width="1250" height="398" viewBox="0 0 1250 398" fill="none" xmlns="http://www.w3.org/2000/svg">
<path d="M1097.86 178.788L1128.36 200.035L1128.36 283.29L1101.59 283.29L1101.59 436.791L1104.08 436.791L1104.08 285.111L1130.85 285.111L1130.85 199.341L1100.35 178.094L1100.35 149.822L1123.13 149.822C1123.76 151.209 1125.5 152.25 1127.74 152.25C1130.35 152.25 1132.47 150.776 1132.47 148.955C1132.47 147.133 1130.35 145.659 1127.74 145.659C1125.5 145.659 1123.76 146.7 1123.13 148.087L1097.86 148.087L1097.86 178.788Z" fill="white" fill-opacity="0.05"/>
<path d="M1117.9 276.179L1091.14 276.179L1091.14 440.434L1093.63 440.434L1093.63 278L1120.52 278L1120.52 202.984L1090.02 181.736L1090.02 139.589L1104.46 139.589C1104.96 140.976 1106.82 142.017 1109.06 142.017C1111.68 142.017 1113.8 140.543 1113.8 138.721C1113.8 136.9 1111.68 135.426 1109.06 135.426C1106.82 135.426 1105.08 136.467 1104.46 137.854L1087.53 137.854L1087.53 182.517L1118.03 203.764L1118.03 276.179L1117.9 276.179Z" fill="white" fill-opacity="0.05"/>
<path d="M1075.95 129.008L1075.95 185.379L1106.45 206.626L1106.45 267.767L1079.68 267.767L1079.68 443.382L1082.17 443.382L1082.17 269.588L1108.94 269.588L1108.94 205.932L1078.44 184.685L1078.44 129.008C1080.43 128.575 1081.92 127.361 1081.92 125.8C1081.92 123.978 1079.81 122.504 1077.19 122.504C1074.58 122.504 1072.46 123.978 1072.46 125.8C1072.34 127.361 1073.83 128.575 1075.95 129.008Z" fill="white" fill-opacity="0.05"/>
<path d="M1093.63 221.456C1095.62 221.022 1097.11 219.808 1097.11 218.247C1097.11 216.426 1095 214.952 1092.38 214.952C1089.77 214.952 1087.65 216.426 1087.65 218.247C1087.65 219.808 1089.14 221.022 1091.14 221.456L1091.14 258.487L1064.37 258.487L1064.37 411.901L1066.86 411.901L1066.86 260.221L1093.63 260.221L1093.63 221.456Z" fill="white" fill-opacity="0.05"/>
<path d="M1083.29 210.442C1085.28 210.095 1086.78 208.794 1086.78 207.233C1086.78 205.412 1084.66 203.937 1082.05 203.937C1079.43 203.937 1077.32 205.412 1077.32 207.233C1077.32 208.794 1078.81 210.008 1080.8 210.442L1080.8 251.375L1054.03 251.375L1054.03 415.543L1056.52 415.543L1056.52 253.11L1083.29 253.11L1083.29 210.442Z" fill="white" fill-opacity="0.05"/>
<path d="M1069.22 202.377L1069.22 242.964L1042.46 242.964L1042.46 418.493L1044.95 418.493L1044.95 244.698L1071.71 244.698L1071.71 202.377C1073.71 201.943 1075.2 200.729 1075.2 199.168C1075.2 197.347 1073.08 195.873 1070.47 195.873C1067.85 195.873 1065.74 197.347 1065.74 199.168C1065.61 200.729 1067.11 202.03 1069.22 202.377Z" fill="white" fill-opacity="0.05"/>
<path d="M1032.62 222.497L1059.39 222.497L1059.39 156.413L1030.01 156.413L1030.01 208.708L1045.2 208.708L1045.2 178.875C1047.19 178.528 1048.68 177.227 1048.68 175.666C1048.68 173.845 1046.56 172.37 1043.95 172.37C1041.34 172.37 1039.22 173.845 1039.22 175.666C1039.22 177.227 1040.71 178.441 1042.71 178.875L1042.71 206.886L1032.62 206.886L1032.62 158.148L1056.9 158.148L1056.9 220.675L1030.13 220.675L1030.13 370.534L1032.62 370.534L1032.62 222.497Z" fill="white" fill-opacity="0.05"/>
<path d="M1217.01 81.0497L1217.01 168.641L1247.51 189.888L1247.51 273.143L1220.74 273.143L1220.74 426.644L1223.23 426.644L1223.23 274.964L1250 274.964L1250 189.194L1219.5 167.947L1219.5 81.0497C1221.49 80.7028 1222.98 79.4019 1222.98 77.8409C1222.98 76.0197 1220.87 74.5454 1218.25 74.5454C1215.64 74.5454 1213.52 76.0197 1213.52 77.8409C1213.52 79.4019 1215.02 80.7028 1217.01 81.0497Z" fill="white" fill-opacity="0.05"/>
<path d="M1182.38 56.8505L1182.38 144.442L1212.89 165.689L1212.89 248.944L1186.12 248.944L1186.12 402.445L1188.61 402.445L1188.61 250.765L1215.38 250.765L1215.38 164.995L1184.87 143.748L1184.87 56.8505C1186.87 56.5036 1188.36 55.2027 1188.36 53.6417C1188.36 51.8205 1186.24 50.3462 1183.63 50.3462C1181.02 50.3462 1178.9 51.8205 1178.9 53.6417C1178.9 55.2027 1180.39 56.5036 1182.38 56.8505Z" fill="white" fill-opacity="0.05"/>
<path d="M1206.55 100.563L1206.55 172.283L1237.05 193.531L1237.05 266.032L1210.28 266.032L1210.28 430.287L1212.77 430.287L1212.77 267.853L1239.67 267.853L1239.67 192.837L1209.16 171.59L1209.16 100.563C1211.16 100.129 1212.65 98.915 1212.65 97.3539C1212.65 95.5327 1210.53 94.0584 1207.92 94.0584C1205.3 94.0584 1203.19 95.5327 1203.19 97.3539C1203.06 98.915 1204.56 100.216 1206.55 100.563Z" fill="white" fill-opacity="0.05"/>
<path d="M1171.93 76.3635L1171.93 148.084L1202.43 169.331L1202.43 241.833L1175.66 241.833L1175.66 406.087L1178.15 406.087L1178.15 243.654L1205.04 243.654L1205.04 168.638L1174.54 147.39L1174.54 76.3635C1176.53 75.9299 1178.03 74.7158 1178.03 73.1547C1178.03 71.3335 1175.91 69.8592 1173.3 69.8592C1170.68 69.8592 1168.57 71.3335 1168.57 73.1547C1168.44 74.7158 1169.93 76.0166 1171.93 76.3635Z" fill="white" fill-opacity="0.05"/>
<path d="M1194.97 117.734L1194.97 175.232L1225.47 196.479L1225.47 257.706L1198.71 257.706L1198.71 433.235L1201.2 433.235L1201.2 259.441L1228.09 259.441L1228.09 195.786L1197.58 174.538L1197.58 117.734C1199.58 117.387 1201.07 116.086 1201.07 114.525C1201.07 112.704 1198.95 111.23 1196.34 111.23C1193.73 111.23 1191.61 112.704 1191.61 114.525C1191.48 116.086 1192.98 117.3 1194.97 117.734Z" fill="white" fill-opacity="0.05"/>
<path d="M1160.35 93.5344L1160.35 151.032L1190.85 172.28L1190.85 233.507L1164.08 233.507L1164.08 409.036L1166.57 409.036L1166.57 235.241L1193.47 235.241L1193.47 171.586L1162.96 150.338L1162.96 93.5344C1164.95 93.1875 1166.45 91.8866 1166.45 90.3256C1166.45 88.5044 1164.33 87.0301 1161.72 87.0301C1159.1 87.0301 1156.99 88.5044 1156.99 90.3256C1156.86 91.8866 1158.36 93.1007 1160.35 93.5344Z" fill="white" fill-opacity="0.05"/>
<path d="M817.731 53.9056L817.731 114.612L848.234 135.86L848.234 255.192L923.931 255.192L923.931 477.638L926.421 477.638L926.421 253.37L850.724 253.37L850.724 135.079L820.221 113.832L820.221 53.9056C822.213 53.4719 823.708 52.2579 823.708 50.6968C823.708 48.8756 821.591 47.4013 818.976 47.4013C816.362 47.4013 814.245 48.8756 814.245 50.6968C814.245 52.2579 815.739 53.5587 817.731 53.9056Z" fill="white" fill-opacity="0.05"/>
<path d="M551.548 -5.15369L551.548 58.9352L582.051 80.1826L582.051 161.096L558.769 161.096L558.769 276.265L583.42 292.222L583.42 341.395L556.403 341.395L556.403 421.788C554.411 422.135 552.917 423.435 552.917 424.996C552.917 426.818 555.034 428.292 557.648 428.292C560.263 428.292 562.379 426.818 562.379 424.996C562.379 423.435 560.885 422.221 558.893 421.788L558.893 343.216L585.91 343.216L585.91 291.442L561.259 275.485L561.259 162.744L584.541 162.744L584.541 79.402L554.038 58.1547L554.038 -5.15369C556.154 -5.50058 557.648 -6.80146 557.648 -8.36249C557.648 -10.1837 555.532 -11.658 552.917 -11.658C550.303 -11.658 548.062 -10.1837 548.062 -8.36249C548.062 -6.88819 549.556 -5.58731 551.548 -5.15369Z" fill="white" fill-opacity="0.05"/>
<path d="M541.214 6.20733L541.214 59.1089L571.593 80.2695L571.593 152.771L544.825 152.771L544.825 280.775L571.593 299.594L571.593 332.723L544.825 332.723L544.825 451.014C542.833 451.447 541.339 452.662 541.339 454.223C541.339 456.044 543.455 457.518 546.07 457.518C548.684 457.518 550.801 456.044 550.801 454.223C550.801 452.662 549.307 451.447 547.315 451.014L547.315 334.457L574.083 334.457L574.083 298.813L547.315 279.994L547.315 154.505L574.083 154.505L574.083 79.489L543.58 58.2416L543.58 6.20733C545.696 5.86044 547.315 4.5596 547.315 2.91183C547.315 1.09063 545.198 -0.38367 542.584 -0.38367C539.969 -0.38367 537.853 1.09063 537.853 2.91183C537.977 4.47287 539.347 5.68698 541.214 6.20733Z" fill="white" fill-opacity="0.05"/>
<path d="M807.398 68.8221L807.398 118.341L837.901 139.502L837.901 263.344L913.597 263.344L913.597 477.638L916.087 477.638L916.087 261.522L840.391 261.522L840.391 138.722L809.888 117.474L809.888 68.7354C811.88 68.3885 813.374 67.0876 813.374 65.5266C813.374 63.7054 811.257 62.2311 808.643 62.2311C806.028 62.2311 803.912 63.7054 803.912 65.5266C803.912 67.0876 805.406 68.3884 807.398 68.8221Z" fill="white" fill-opacity="0.05"/>
<path d="M792.209 126.753L792.209 187.46L822.712 208.707L822.712 291.962L795.944 291.962L795.944 445.463L798.434 445.463L798.434 293.783L825.202 293.783L825.202 208.014L794.699 186.766L794.699 126.753C796.691 126.406 798.185 125.106 798.185 123.545C798.185 121.723 796.068 120.249 793.454 120.249C790.839 120.249 788.723 121.723 788.723 123.545C788.723 125.106 790.217 126.406 792.209 126.753Z" fill="white" fill-opacity="0.05"/>
<path d="M781.875 141.67L781.875 191.189L812.378 212.437L812.378 284.938L785.61 284.938L785.61 449.106L788.1 449.106L788.1 286.672L814.868 286.672L814.868 211.656L784.365 190.409L784.365 141.67C786.357 141.323 787.851 140.022 787.851 138.461C787.851 136.64 785.735 135.166 783.12 135.166C780.506 135.166 778.389 136.64 778.389 138.461C778.389 140.022 779.883 141.236 781.875 141.67Z" fill="white" fill-opacity="0.05"/>
<path d="M770.297 144.618L770.297 194.138L800.799 215.385L800.799 276.612L774.032 276.612L774.032 452.054L776.522 452.054L776.522 278.26L803.289 278.26L803.289 214.604L772.787 193.357L772.787 144.618C774.779 144.271 776.273 142.97 776.273 141.409C776.273 139.588 774.156 138.114 771.542 138.114C768.927 138.114 766.811 139.588 766.811 141.409C766.811 142.97 768.305 144.185 770.297 144.618Z" fill="white" fill-opacity="0.05"/>
<path d="M902.019 291.702C899.778 291.702 898.035 292.742 897.412 294.13L872.139 294.13L872.139 324.917L902.641 346.164L902.641 429.419L875.874 429.419L875.874 582.833L878.364 582.833L878.364 431.154L905.131 431.154L905.131 345.384L874.629 324.136L874.629 295.864L897.412 295.864C897.91 297.252 899.778 298.293 902.019 298.293C904.633 298.293 906.75 296.818 906.75 294.997C906.874 293.176 904.758 291.702 902.019 291.702Z" fill="white" fill-opacity="0.05"/>
<path d="M894.798 349.027L864.295 327.779L864.295 285.632L878.737 285.632C879.235 287.019 881.103 288.06 883.344 288.06C885.958 288.06 888.075 286.586 888.075 284.764C888.075 282.943 885.958 281.469 883.344 281.469C881.103 281.469 879.36 282.51 878.737 283.897L861.805 283.897L861.805 328.56L892.308 349.807L892.308 422.308L865.54 422.308L865.54 586.477L868.03 586.477L868.03 424.043L894.798 424.043L894.798 349.027Z" fill="white" fill-opacity="0.05"/>
<path d="M883.219 351.975L852.716 330.728L852.716 275.051C854.708 274.705 856.203 273.404 856.203 271.843C856.203 270.021 854.086 268.547 851.471 268.547C848.857 268.547 846.74 270.021 846.74 271.843C846.74 273.404 848.234 274.618 850.226 275.051L850.226 331.422L880.729 352.669L880.729 413.896L853.961 413.896L853.961 589.425L856.451 589.425L856.451 415.631L883.219 415.631L883.219 351.975Z" fill="white" fill-opacity="0.05"/>
<path d="M868.03 367.585C870.022 367.152 871.516 365.938 871.516 364.376C871.516 362.555 869.4 361.081 866.785 361.081C864.171 361.081 862.054 362.555 862.054 364.376C862.054 365.937 863.548 367.152 865.54 367.585L865.54 404.616L838.772 404.616L838.772 558.031L841.262 558.031L841.262 406.351L868.03 406.351L868.03 367.585Z" fill="white" fill-opacity="0.05"/>
<path d="M857.572 356.485C859.564 356.138 861.058 354.837 861.058 353.276C861.058 351.455 858.941 349.98 856.327 349.98C853.712 349.98 851.596 351.455 851.596 353.276C851.596 354.837 853.09 356.051 855.082 356.485L855.082 397.418L828.314 397.418L828.314 561.673L830.804 561.673L830.804 399.24L857.572 399.24L857.572 356.485Z" fill="white" fill-opacity="0.05"/>
<path d="M845.993 348.506C847.985 348.072 849.479 346.858 849.479 345.297C849.479 343.476 847.363 342.002 844.748 342.002C842.134 342.002 840.017 343.476 840.017 345.297C840.017 346.858 841.511 348.072 843.503 348.506L843.503 389.093L816.736 389.093L816.736 564.622L819.226 564.622L819.226 390.827L845.993 390.827L845.993 348.506Z" fill="white" fill-opacity="0.05"/>
<path d="M833.668 302.543L804.285 302.543L804.285 354.837L819.474 354.837L819.474 325.004C821.467 324.657 822.961 323.356 822.961 321.795C822.961 319.974 820.844 318.5 818.229 318.5C815.615 318.5 813.498 319.974 813.498 321.795C813.498 323.356 814.992 324.571 816.984 325.004L816.984 353.103L806.9 353.103L806.9 304.364L831.178 304.364L831.178 366.892L804.41 366.892L804.41 516.577L806.9 516.577L806.9 368.54L833.668 368.54L833.668 302.543Z" fill="white" fill-opacity="0.05"/>
<path d="M983.194 213.564L959.912 213.564L959.912 328.82L984.563 344.777L984.563 393.949L957.547 393.949L957.547 474.342C955.555 474.776 954.06 475.99 954.06 477.551C954.06 479.372 956.177 480.847 958.792 480.847C961.406 480.847 963.523 479.372 963.523 477.551C963.523 475.99 962.029 474.776 960.037 474.342L960.037 395.771L987.053 395.771L987.053 343.997L962.402 328.039L962.402 215.298L985.684 215.298L985.684 131.87L955.181 110.623L955.181 44.1055L952.691 44.1055L952.691 111.316L983.194 132.564L983.194 213.564Z" fill="white" fill-opacity="0.05"/>
<path d="M1146.09 109.458L1122.81 109.458L1122.81 224.714L1147.46 240.672L1147.46 289.844L1120.44 289.844L1120.44 370.237C1118.45 370.671 1116.95 371.885 1116.95 373.446C1116.95 375.267 1119.07 376.741 1121.69 376.741C1124.3 376.741 1126.42 375.267 1126.42 373.446C1126.42 371.885 1124.92 370.671 1122.93 370.237L1122.93 291.665L1149.95 291.665L1149.95 239.891L1125.3 223.934L1125.3 111.193L1148.58 111.193L1148.58 27.7646L1118.07 6.51724L1118.07 -59.9999L1115.58 -59.9999L1115.58 7.21103L1146.09 28.4584L1146.09 109.458Z" fill="white" fill-opacity="0.05"/>
<path d="M972.736 205.325L945.968 205.325L945.968 333.329L972.736 352.148L972.736 385.277L945.968 385.277L945.968 503.568C943.976 504.002 942.482 505.216 942.482 506.777C942.482 508.598 944.598 510.072 947.213 510.072C949.827 510.072 951.944 508.598 951.944 506.777C951.944 505.216 950.45 504.002 948.458 503.568L948.458 387.011L975.226 387.011L975.226 351.368L948.458 332.549L948.458 207.059L975.226 207.059L975.226 132.043L944.723 110.796L944.723 55.5528L942.233 55.5528L942.233 111.576L972.736 132.824L972.736 205.325Z" fill="white" fill-opacity="0.05"/>
<path d="M932.148 68.4752L932.148 117.995L962.651 139.242L962.651 200.469L935.883 200.469L935.883 477.638L938.373 477.638L938.373 202.117L965.141 202.117L965.141 138.461L934.638 117.214L934.638 68.4752C936.63 68.0416 938.124 66.8275 938.124 65.2664C938.124 63.4452 936.008 61.9709 933.393 61.9709C930.779 61.9709 928.662 63.4452 928.662 65.2664C928.662 66.7407 930.156 68.0416 932.148 68.4752Z" fill="white" fill-opacity="0.05"/>
<path d="M991.286 227.18L991.286 314.771L1021.79 336.018L1021.79 419.273L995.022 419.273L995.021 572.687L997.512 572.687L997.512 421.094L1024.28 421.094L1024.28 335.238L993.777 313.99L993.777 227.093C995.769 226.659 997.263 225.445 997.263 223.884C997.263 222.063 995.146 220.589 992.532 220.589C989.917 220.589 987.8 222.063 987.8 223.884C987.8 225.532 989.294 226.746 991.286 227.18Z" fill="white" fill-opacity="0.05"/>
<path d="M986.929 243.484C986.929 241.662 984.812 240.188 982.198 240.188C979.583 240.188 977.467 241.662 977.467 243.484C977.467 245.045 978.961 246.259 980.953 246.692L980.953 318.413L1011.46 339.66L1011.46 412.161L984.688 412.161L984.688 576.33L987.178 576.33L987.178 413.896L1013.95 413.896L1013.95 338.88L983.443 317.632L983.443 246.606C985.435 246.259 986.929 245.045 986.929 243.484Z" fill="white" fill-opacity="0.05"/>
<path d="M1149.82 139.378C1149.82 137.557 1147.71 136.083 1145.09 136.083C1142.48 136.083 1140.36 137.557 1140.36 139.378C1140.36 140.939 1141.85 142.153 1143.85 142.587L1143.85 214.307L1174.35 235.555L1174.35 308.056L1147.58 308.056L1147.58 472.224L1150.07 472.224L1150.07 309.79L1176.84 309.79L1176.84 234.774L1146.34 213.527L1146.34 142.5C1148.33 142.153 1149.82 140.939 1149.82 139.378Z" fill="white" fill-opacity="0.05"/>
<path d="M1002.37 341.828L971.864 320.581L971.864 263.777C973.856 263.43 975.35 262.129 975.35 260.568C975.35 258.747 973.234 257.273 970.619 257.273C968.005 257.273 965.888 258.747 965.888 260.568C965.888 262.129 967.382 263.343 969.374 263.777L969.374 321.362L999.752 342.609L999.752 403.749L972.985 403.749L972.985 579.278L975.475 579.278L975.475 405.484L1002.24 405.484L1002.24 341.828L1002.37 341.828Z" fill="white" fill-opacity="0.05"/>
<path d="M1165.26 237.723L1134.76 216.475L1134.76 159.671C1136.75 159.324 1138.24 158.023 1138.24 156.462C1138.24 154.641 1136.13 153.167 1133.51 153.167C1130.9 153.167 1128.78 154.641 1128.78 156.462C1128.78 158.023 1130.28 159.237 1132.27 159.671L1132.27 217.256L1162.65 238.503L1162.65 299.643L1135.88 299.643L1135.88 475.172L1138.37 475.172L1138.37 301.378L1165.14 301.378L1165.14 237.723L1165.26 237.723Z" fill="white" fill-opacity="0.05"/>
<path d="M652.145 74.4591L652.145 135.166L682.648 156.413L682.648 239.668L655.88 239.668L655.88 438.873L658.37 438.873L658.37 241.489L685.138 241.489L685.138 155.719L654.635 134.472L654.635 74.5458C656.627 74.1989 658.121 72.8981 658.121 71.3371C658.121 69.5159 656.004 67.9548 653.39 67.9548C650.775 67.9548 648.659 69.4291 648.659 71.3371C648.659 72.8114 650.153 74.0255 652.145 74.4591Z" fill="white" fill-opacity="0.05"/>
<path d="M641.811 89.289L641.811 138.808L672.314 160.056L672.314 232.557L645.546 232.557L645.546 442.515L648.036 442.515L648.036 234.291L674.804 234.291L674.804 159.275L644.301 138.028L644.301 89.289C646.293 88.9421 647.787 87.6413 647.787 86.0802C647.787 84.259 645.671 82.7847 643.056 82.7847C640.442 82.7847 638.325 84.259 638.325 86.0802C638.325 87.6413 639.819 88.9421 641.811 89.289Z" fill="white" fill-opacity="0.05"/>
<path d="M630.233 92.2372L630.233 141.757L660.735 163.004L660.735 224.144L633.968 224.144L633.968 445.463L636.458 445.463L636.458 225.965L663.225 225.965L663.225 162.31L632.723 141.063L632.723 92.324C634.715 91.8904 636.209 90.6762 636.209 89.1152C636.209 87.294 634.092 85.8197 631.478 85.8197C628.863 85.8197 626.747 87.294 626.747 89.1152C626.747 90.5895 628.241 91.8903 630.233 92.2372Z" fill="white" fill-opacity="0.05"/>
<path d="M734.689 243.57L780.879 243.57C781.502 244.958 783.245 245.998 785.486 245.998C788.1 245.998 790.217 244.524 790.217 242.703C790.217 240.882 788.1 239.407 785.486 239.407C783.245 239.407 781.502 240.448 780.879 241.835L732.075 241.835L732.075 272.622L762.578 293.87L762.578 377.125L735.81 377.125L735.81 530.539L738.3 530.539L738.3 378.859L765.068 378.859L765.068 293.089L734.565 271.842L734.565 243.57L734.689 243.57Z" fill="white" fill-opacity="0.05"/>
<path d="M752.244 369.927L725.476 369.927L725.476 534.182L727.966 534.182L727.966 371.662L754.734 371.662L754.734 296.646L724.231 275.398L724.231 233.251L762.08 233.251C762.578 234.638 764.445 235.679 766.686 235.679C769.301 235.679 771.417 234.204 771.417 232.383C771.417 230.562 769.301 229.088 766.686 229.088C764.445 229.088 762.702 230.128 762.08 231.516L721.617 231.516L721.617 276.179L752.119 297.426L752.119 369.927L752.244 369.927Z" fill="white" fill-opacity="0.05"/>
<path d="M710.163 200.902L710.163 279.214L740.665 300.461L740.665 361.688L713.898 361.688L713.898 537.13L716.388 537.13L716.388 363.336L743.155 363.336L743.155 299.681L712.653 278.433L712.653 200.902C714.645 200.555 716.139 199.254 716.139 197.693C716.139 195.872 714.022 194.398 711.408 194.398C708.793 194.398 706.677 195.872 706.677 197.693C706.677 199.168 708.171 200.469 710.163 200.902Z" fill="white" fill-opacity="0.05"/>
<path d="M727.966 315.204C729.958 314.77 731.452 313.556 731.452 311.995C731.452 310.174 729.336 308.7 726.721 308.7C724.107 308.7 721.99 310.174 721.99 311.995C721.99 313.556 723.484 314.77 725.476 315.204L725.476 352.235L698.708 352.235L698.708 505.649L701.198 505.649L701.198 353.969L727.966 353.969L727.966 315.204Z" fill="white" fill-opacity="0.05"/>
<path d="M717.508 304.19C719.5 303.843 720.994 302.542 720.994 300.981C720.994 299.16 718.878 297.686 716.263 297.686C713.649 297.686 711.532 299.16 711.532 300.981C711.532 302.542 713.026 303.757 715.018 304.19L715.018 345.124L688.25 345.124L688.25 509.292L690.74 509.292L690.74 346.858L717.508 346.858L717.508 304.19Z" fill="white" fill-opacity="0.05"/>
<path d="M703.439 296.212L703.439 336.799L676.672 336.799L676.672 512.241L679.162 512.241L679.162 338.447L705.93 338.447L705.93 296.212C707.922 295.865 709.416 294.564 709.416 293.003C709.416 291.182 707.299 289.708 704.685 289.708C702.07 289.708 699.953 291.182 699.953 293.003C699.953 294.478 701.447 295.779 703.439 296.212Z" fill="white" fill-opacity="0.05"/>
<path d="M664.346 302.456L679.535 302.456L679.535 272.623C681.527 272.276 683.021 270.975 683.021 269.414C683.021 267.593 680.905 266.119 678.29 266.119C675.676 266.119 673.559 267.593 673.559 269.414C673.559 270.975 675.053 272.189 677.045 272.623L677.045 300.635L666.961 300.635L666.961 251.983L691.238 251.983L691.238 314.424L664.471 314.424L664.471 464.283L666.961 464.283L666.961 316.245L693.728 316.245L693.728 250.162L664.346 250.162L664.346 302.456Z" fill="white" fill-opacity="0.05"/>
<path d="M416.713 1.35085L416.713 62.0575L447.216 83.3049L447.216 202.637L522.913 202.637L522.913 425.083L525.403 425.083L525.403 200.816L449.706 200.816L449.706 82.5243L419.203 61.277L419.203 1.35085C421.195 0.917227 422.689 -0.296914 422.689 -1.85795C422.689 -3.67915 420.573 -5.15342 417.958 -5.15342C415.344 -5.15342 413.227 -3.67915 413.227 -1.85795C413.103 -0.296915 414.597 1.00396 416.713 1.35085Z" fill="white" fill-opacity="0.05"/>
<path d="M406.255 16.2674L406.255 65.7866L436.758 87.034L436.758 210.789L512.454 210.789L512.454 425.083L514.944 425.083L514.944 208.968L439.248 208.968L439.248 86.1667L408.745 64.9194L408.745 16.1806C410.737 15.747 412.231 14.5329 412.231 12.9719C412.231 11.1507 410.114 9.67632 407.5 9.67632C404.885 9.67632 402.769 11.1507 402.769 12.9719C402.769 14.5329 404.263 15.8338 406.255 16.2674Z" fill="white" fill-opacity="0.05"/>
<path d="M500.876 239.148C498.635 239.148 496.892 240.189 496.269 241.576L470.995 241.576L470.995 272.363L501.498 293.61L501.498 376.865L474.73 376.865L474.73 530.28L477.221 530.28L477.221 378.6L503.988 378.6L503.988 292.83L473.485 271.583L473.485 243.311L496.269 243.311C496.767 244.698 498.635 245.739 500.876 245.739C503.49 245.739 505.731 244.265 505.731 242.443C505.731 240.622 503.615 239.148 500.876 239.148Z" fill="white" fill-opacity="0.05"/>
<path d="M493.655 296.472L463.152 275.225L463.152 233.077L477.594 233.077C478.092 234.465 479.96 235.505 482.201 235.505C484.815 235.505 486.932 234.031 486.932 232.21C486.932 230.388 484.815 228.914 482.201 228.914C479.96 228.914 478.217 229.955 477.594 231.342L460.662 231.342L460.662 276.005L491.165 297.253L491.165 369.754L464.397 369.754L464.397 533.922L466.887 533.922L466.887 371.488L493.655 371.488L493.655 296.472Z" fill="white" fill-opacity="0.05"/>
<path d="M482.076 299.42L451.573 278.173L451.573 222.496C453.565 222.063 455.059 220.849 455.059 219.287C455.059 217.466 452.943 215.992 450.328 215.992C447.714 215.992 445.597 217.466 445.597 219.287C445.597 220.849 447.091 222.063 449.083 222.496L449.083 278.867L479.586 300.114L479.586 361.341L452.818 361.341L452.818 536.87L455.308 536.87L455.308 363.076L482.076 363.076L482.076 299.42Z" fill="white" fill-opacity="0.05"/>
<path d="M466.887 315.031C468.879 314.597 470.373 313.383 470.373 311.822C470.373 310.001 468.256 308.526 465.642 308.526C463.027 308.526 460.911 310.001 460.911 311.822C460.911 313.383 462.405 314.597 464.397 315.031L464.397 352.062L437.629 352.062L437.629 505.476L440.119 505.476L440.119 353.796L466.887 353.796L466.887 315.031Z" fill="white" fill-opacity="0.05"/>
<path d="M456.429 303.93C458.421 303.583 459.915 302.282 459.915 300.721C459.915 298.9 457.798 297.426 455.184 297.426C452.569 297.426 450.453 298.9 450.453 300.721C450.453 302.282 451.947 303.496 453.939 303.93L453.939 344.864L427.171 344.864L427.171 509.119L429.661 509.119L429.661 346.685L456.429 346.685L456.429 303.93Z" fill="white" fill-opacity="0.05"/>
<path d="M444.85 295.952C446.842 295.518 448.336 294.304 448.336 292.743C448.336 290.922 446.22 289.447 443.605 289.447C440.991 289.447 438.874 290.922 438.874 292.743C438.874 294.304 440.368 295.518 442.36 295.952L442.36 336.538L415.593 336.538L415.593 512.067L418.083 512.067L418.083 338.273L444.85 338.273L444.85 295.952Z" fill="white" fill-opacity="0.05"/>
<path d="M432.649 249.988L403.267 249.988L403.267 302.283L418.456 302.283L418.456 272.45C420.448 272.103 421.942 270.802 421.942 269.241C421.942 267.42 419.826 265.945 417.211 265.945C414.597 265.945 412.48 267.42 412.48 269.241C412.48 270.802 413.974 272.016 415.966 272.45L415.966 300.548L405.882 300.548L405.882 251.809L430.159 251.809L430.159 314.337L403.391 314.337L403.391 464.022L405.881 464.022L405.882 315.985L432.649 315.985L432.649 249.988Z" fill="white" fill-opacity="0.05"/>
<path d="M531.005 15.9205L531.005 65.4398L561.508 86.6004L561.508 147.827L534.74 147.827L534.74 425.083L537.23 425.083L537.23 149.562L563.998 149.562L563.998 85.9066L533.495 64.6593L533.495 15.9205C535.487 15.4869 536.981 14.2727 536.981 12.7117C536.981 10.8905 534.865 9.3295 532.25 9.3295C529.636 9.3295 527.519 10.8038 527.519 12.7117C527.519 14.186 529.013 15.4869 531.005 15.9205Z" fill="white" fill-opacity="0.05"/>
<path d="M590.143 174.625L590.143 262.216L620.646 283.464L620.646 366.718L593.878 366.718L593.878 520.133L596.368 520.133L596.368 368.453L623.136 368.453L623.136 282.683L592.633 261.436L592.633 174.538C594.625 174.191 596.119 172.891 596.119 171.33C596.119 169.508 594.003 168.034 591.388 168.034C588.774 168.034 586.657 169.508 586.657 171.33C586.657 172.977 588.151 174.191 590.143 174.625Z" fill="white" fill-opacity="0.05"/>
<path d="M585.786 190.929C585.786 189.108 583.669 187.633 581.055 187.633C578.44 187.633 576.324 189.108 576.324 190.929C576.324 192.49 577.818 193.704 579.81 194.138L579.81 265.858L610.312 287.106L610.312 359.52L583.545 359.52L583.545 523.775L586.035 523.775L586.035 361.341L612.803 361.341L612.803 286.325L582.3 265.078L582.3 194.051C584.292 193.704 585.786 192.49 585.786 190.929Z" fill="white" fill-opacity="0.05"/>
<path d="M601.224 289.274L570.721 268.026L570.721 211.222C572.713 210.875 574.207 209.575 574.207 208.014C574.207 206.192 572.091 204.718 569.476 204.718C566.862 204.718 564.745 206.192 564.745 208.014C564.745 209.575 566.239 210.789 568.231 211.222L568.231 268.72L598.734 289.968L598.734 351.195L571.966 351.195L571.966 526.724L574.456 526.724L574.456 352.929L601.224 352.929L601.224 289.274Z" fill="white" fill-opacity="0.05"/>
<path d="M190.992 147.48L190.992 208.187L221.495 229.434L221.495 348.766L297.192 348.766L297.192 571.213L299.682 571.213L299.682 346.945L223.985 346.945L223.985 228.654L193.482 207.406L193.482 147.48C195.474 147.133 196.968 145.833 196.968 144.272C196.968 142.45 194.852 140.976 192.237 140.976C189.623 140.976 187.506 142.45 187.506 144.272C187.506 145.833 189 147.047 190.992 147.48Z" fill="white" fill-opacity="0.05"/>
<path d="M180.659 162.31L180.659 211.829L211.162 233.077L211.162 356.918L286.858 356.918L286.858 571.213L289.348 571.213L289.348 355.097L213.652 355.097L213.652 232.296L183.149 211.049L183.149 162.31C185.141 161.963 186.635 160.662 186.635 159.101C186.635 157.28 184.518 155.806 181.904 155.806C179.289 155.806 177.173 157.28 177.173 159.101C177.048 160.662 178.542 161.963 180.659 162.31Z" fill="white" fill-opacity="0.05"/>
<path d="M165.469 220.328L165.469 281.035L195.848 302.282L195.848 385.537L169.08 385.537L169.08 538.952L171.57 538.952L171.57 387.272L198.338 387.272L198.338 301.502L167.835 280.255L167.835 220.242C169.827 219.895 171.321 218.594 171.321 217.033C171.321 215.212 169.204 213.737 166.59 213.737C163.975 213.737 161.859 215.212 161.859 217.033C161.983 218.681 163.353 219.981 165.469 220.328Z" fill="white" fill-opacity="0.05"/>
<path d="M155.011 235.158L155.011 284.677L185.514 305.924L185.514 378.426L158.746 378.426L158.746 542.594L161.236 542.594L161.236 380.16L188.004 380.16L188.004 305.144L157.501 283.897L157.501 235.158C159.493 234.724 160.987 233.51 160.987 231.949C160.987 230.128 158.871 228.653 156.256 228.653C153.642 228.653 151.525 230.128 151.525 231.949C151.525 233.51 153.019 234.811 155.011 235.158Z" fill="white" fill-opacity="0.05"/>
<path d="M143.433 238.106L143.433 287.626L173.936 308.873L173.936 370.1L147.168 370.1L147.168 545.542L149.658 545.542L149.658 371.748L176.426 371.748L176.426 308.093L145.923 286.845L145.923 238.106C147.915 237.76 149.409 236.459 149.409 234.898C149.409 233.077 147.292 231.602 144.678 231.602C142.063 231.602 139.947 233.077 139.947 234.898C139.947 236.459 141.441 237.76 143.433 238.106Z" fill="white" fill-opacity="0.05"/>
<path d="M275.28 385.277C273.039 385.277 271.296 386.318 270.673 387.706L245.399 387.706L245.399 418.493L275.902 439.74L275.902 522.995L249.01 522.995L249.01 676.409L251.5 676.409L251.5 524.729L278.268 524.729L278.268 438.959L247.765 417.712L247.765 389.44L270.549 389.44C271.047 390.828 272.914 391.868 275.155 391.868C277.77 391.868 279.886 390.394 279.886 388.573C280.011 386.752 277.894 385.277 275.28 385.277Z" fill="white" fill-opacity="0.05"/>
<path d="M268.059 442.601L237.556 421.354L237.556 379.206L251.998 379.206C252.496 380.594 254.363 381.635 256.604 381.635C259.219 381.635 261.336 380.16 261.336 378.339C261.336 376.518 259.219 375.044 256.604 375.044C254.363 375.044 252.621 376.084 251.998 377.472L235.066 377.472L235.066 422.135L265.569 443.382L265.569 515.883L238.801 515.883L238.801 680.051L241.291 680.051L241.291 517.618L268.059 517.618L268.059 442.601Z" fill="white" fill-opacity="0.05"/>
<path d="M256.355 445.55L225.852 424.303L225.852 368.626C227.844 368.279 229.338 366.978 229.338 365.417C229.338 363.596 227.222 362.122 224.607 362.122C221.993 362.122 219.876 363.596 219.876 365.417C219.876 366.978 221.37 368.193 223.362 368.626L223.362 424.997L253.865 446.244L253.865 507.471L227.097 507.471L227.097 683L229.587 683L229.587 509.205L256.355 509.205L256.355 445.55Z" fill="white" fill-opacity="0.05"/>
<path d="M177.546 448.412L192.735 448.412L192.735 418.579C194.727 418.145 196.221 416.931 196.221 415.37C196.221 413.549 194.105 412.075 191.49 412.075C188.876 412.075 186.759 413.549 186.759 415.37C186.759 416.931 188.253 418.145 190.245 418.579L190.245 446.591L180.161 446.591L180.161 397.852L204.438 397.852L204.438 460.38L177.671 460.38L177.671 610.152L180.161 610.152L180.161 462.114L206.928 462.114L206.928 396.031L177.546 396.031L177.546 448.412Z" fill="white" fill-opacity="0.05"/>
<path d="M356.33 307.052L333.048 307.052L333.048 422.308L357.7 438.265L357.7 487.525L330.683 487.525L330.683 567.918C328.691 568.351 327.197 569.565 327.197 571.126C327.197 572.948 329.313 574.422 331.928 574.422C334.542 574.422 336.659 572.948 336.659 571.126C336.659 569.565 335.165 568.351 333.173 567.918L333.173 489.346L360.19 489.346L360.19 437.572L335.538 421.615L335.538 308.874L358.82 308.874L358.82 225.445L328.317 204.198L328.317 140.716C328.317 140.716 327.944 140.716 328.317 140.716C329.562 140.543 332.052 138.895 329.189 137.074C328.94 136.9 327.944 136.553 327.072 136.553C326.45 136.553 325.08 136.9 324.831 137.074C322.341 138.635 324.582 140.543 325.454 140.629C325.578 140.629 325.827 140.716 325.827 140.716L325.827 204.805L356.33 226.052L356.33 307.052Z" fill="white" fill-opacity="0.05"/>
<path d="M345.996 298.9L319.229 298.9L319.229 426.905L345.996 445.724L345.996 478.852L319.229 478.852L319.229 597.144C317.237 597.577 315.742 598.791 315.742 600.352C315.742 602.174 317.859 603.648 320.474 603.648C323.088 603.648 325.205 602.174 325.205 600.352C325.205 598.791 323.711 597.577 321.719 597.144L321.719 480.587L348.486 480.587L348.486 444.943L321.719 426.124L321.719 300.635L348.486 300.635L348.486 225.619L317.984 204.371L317.984 149.128L315.494 149.128L315.494 205.152L345.996 226.399L345.996 298.9Z" fill="white" fill-opacity="0.05"/>
<path d="M305.284 161.963L305.284 211.482L335.787 232.73L335.787 293.957L309.019 293.957L309.019 571.213L311.509 571.213L311.509 295.691L338.277 295.691L338.277 232.036L307.774 210.789L307.774 162.05C309.766 161.703 311.26 160.402 311.26 158.841C311.26 157.02 309.144 155.546 306.529 155.546C303.915 155.546 301.798 157.02 301.798 158.841C301.798 160.315 303.292 161.616 305.284 161.963Z" fill="white" fill-opacity="0.05"/>
<path d="M364.423 320.668L364.423 408.259L394.925 429.506L394.925 512.761L368.158 512.761L368.158 666.262L370.648 666.262L370.648 514.582L397.415 514.582L397.415 428.812L397.291 428.726L397.291 241.229L424.059 241.229L424.059 155.459L393.556 134.212L393.556 74.1987C395.548 73.765 397.042 72.5509 397.042 70.9899C397.042 69.1686 394.925 67.6077 392.311 67.6077C389.696 67.6077 387.58 69.082 387.58 70.9899C387.58 72.5509 389.074 73.765 391.066 74.1987L391.066 134.905L421.569 156.153L421.569 239.408L394.801 239.408L394.801 426.904L386.957 421.441L386.957 234.031L413.725 234.031L413.725 159.015L383.222 137.767L383.222 89.0284C385.214 88.5948 386.708 87.3807 386.708 85.8197C386.708 83.9985 384.592 82.4374 381.977 82.4374C379.363 82.4374 377.246 83.9117 377.246 85.8197C377.246 87.3807 378.74 88.5948 380.732 89.0284L380.732 138.548L411.235 159.795L411.235 232.296L384.467 232.296L384.467 419.706L375.379 413.376L375.379 225.705L402.146 225.705L402.146 162.05L371.644 140.803L371.644 92.0637C373.636 91.6301 375.13 90.416 375.13 88.855C375.13 87.0338 373.013 85.5594 370.399 85.5594C367.784 85.5594 365.668 87.0338 365.668 88.855C365.668 90.416 367.162 91.6301 369.154 92.0637L369.154 141.583L399.656 162.744L399.656 223.971L372.889 223.971L372.889 411.641L367.037 407.565L367.037 320.668C369.029 320.234 370.523 319.02 370.523 317.459C370.523 315.638 368.407 314.163 365.792 314.163C363.178 314.163 361.061 315.638 361.061 317.459C360.937 319.02 362.431 320.321 364.423 320.668Z" fill="white" fill-opacity="0.05"/>
<path d="M360.19 337.059C360.19 335.238 358.073 333.763 355.458 333.763C352.844 333.763 350.727 335.238 350.727 337.059C350.727 338.62 352.221 339.834 354.213 340.268L354.213 411.988L384.716 433.235L384.716 505.737L357.949 505.737L357.948 669.905L360.439 669.905L360.439 507.471L387.206 507.471L387.206 432.455L356.703 411.208L356.704 340.181C358.696 339.834 360.19 338.533 360.19 337.059Z" fill="white" fill-opacity="0.05"/>
<path d="M375.503 435.403L345 414.156L345 357.352C346.992 357.005 348.486 355.704 348.486 354.143C348.486 352.322 346.37 350.847 343.755 350.847C341.141 350.847 339.024 352.322 339.024 354.143C339.024 355.704 340.518 356.918 342.51 357.352L342.51 414.936L373.013 436.184L373.013 497.324L346.245 497.324L346.245 672.853L348.735 672.853L348.735 499.058L375.503 499.058L375.503 435.403Z" fill="white" fill-opacity="0.05"/>
<path d="M25.4055 167.947L25.4055 228.654L55.9083 249.901L55.9083 273.317L55.9083 333.243L29.1405 333.243L29.1405 486.657L31.6305 486.657L31.6305 334.977L58.3983 334.977L58.3983 273.317L58.3983 249.207L58.3983 216.166C60.3903 215.819 61.8843 214.518 61.8843 212.957C61.8843 211.136 59.7678 209.661 57.1533 209.661C54.5388 209.661 52.4222 211.136 52.4222 212.957C52.4222 214.518 53.9162 215.732 55.9083 216.166L55.9083 247.473L48.0646 242.009L48.0646 188.24C50.0567 187.894 51.5507 186.593 51.5507 185.032C51.5507 183.21 49.4341 181.736 46.8196 181.736C44.2051 181.736 42.0886 183.21 42.0886 185.032C42.0886 186.593 43.5826 187.807 45.5746 188.24L45.5746 240.188L28.02 227.96L28.02 167.947C30.012 167.6 31.506 166.299 31.506 164.738C31.506 162.917 29.3895 161.443 26.775 161.443C24.1605 161.443 22.044 162.917 22.044 164.738C21.795 166.299 23.289 167.6 25.4055 167.947Z" fill="white" fill-opacity="0.05"/>
<path d="M14.9472 182.863L14.9472 232.383L45.4502 253.63L45.4502 326.131L18.6823 326.131L18.6823 490.299L21.1723 490.299L21.1723 327.866L47.9402 327.866L47.9402 252.85L17.4373 231.602L17.4373 182.863C19.4293 182.43 20.9233 181.216 20.9233 179.655C20.9233 177.833 18.8068 176.359 16.1923 176.359C13.5777 176.359 11.4612 177.833 11.4612 179.655C11.4612 181.216 12.9552 182.43 14.9472 182.863Z" fill="white" fill-opacity="0.05"/>
<path d="M3.36871 185.812L3.36871 235.331L33.8715 256.579L33.8715 317.719L7.10374 317.719L7.10372 493.248L9.71821 493.248L9.71823 319.454L36.486 319.454L36.486 255.798L5.9832 234.551L5.98321 185.812C7.97522 185.379 9.46922 184.164 9.46922 182.603C9.46922 180.782 7.35272 179.308 4.73819 179.308C2.12367 179.308 0.00716462 180.782 0.00716446 182.603C-0.117336 184.164 1.37669 185.379 3.36871 185.812Z" fill="white" fill-opacity="0.05"/>
<path d="M107.825 337.145L154.015 337.145C154.513 338.533 156.381 339.574 158.622 339.574C161.236 339.574 163.353 338.099 163.353 336.278C163.353 334.457 161.236 332.983 158.622 332.983C156.381 332.983 154.638 334.023 154.015 335.411L105.335 335.411L105.335 366.198L135.714 387.359L135.714 470.613L108.946 470.613L108.946 624.028L111.56 624.028L111.56 472.348L138.328 472.348L138.328 386.578L107.825 365.331L107.825 337.145Z" fill="white" fill-opacity="0.05"/>
<path d="M125.38 463.502L98.6122 463.502L98.6122 627.67L101.102 627.67L101.102 465.237L127.87 465.237L127.87 390.221L97.3672 368.973L97.3672 326.825L135.216 326.825C135.838 328.213 137.581 329.254 139.822 329.254C142.437 329.254 144.553 327.779 144.553 325.958C144.553 324.137 142.437 322.663 139.822 322.663C137.581 322.663 135.838 323.703 135.216 325.091L94.7526 325.091L94.7526 369.754L125.255 391.001L125.255 463.502L125.38 463.502Z" fill="white" fill-opacity="0.05"/>
<path d="M83.2986 294.39L83.2986 372.702L113.801 393.949L113.801 455.176L87.0337 455.176L87.0337 630.619L89.5237 630.619L89.5237 456.824L116.292 456.824L116.292 393.169L85.7887 371.921L85.7887 294.39C87.7807 294.043 89.2747 292.743 89.2747 291.182C89.2747 289.36 87.1582 287.886 84.5437 287.886C81.9291 287.886 79.8125 289.36 79.8125 291.182C79.8125 292.743 81.3066 294.043 83.2986 294.39Z" fill="white" fill-opacity="0.05"/>
<path d="M90.7685 397.678C92.7605 397.331 94.2545 396.03 94.2545 394.469C94.2545 392.648 92.138 391.174 89.5235 391.174C86.909 391.174 84.7924 392.648 84.7924 394.469C84.7924 396.03 86.2865 397.245 88.2785 397.678L88.2785 438.612L61.5107 438.612L61.5107 602.867L64.0008 602.867L64.0008 440.433L90.7685 440.433L90.7685 397.678Z" fill="white" fill-opacity="0.05"/>
<path d="M76.5754 389.7L76.5754 430.287L49.8076 430.287L49.8076 605.816L52.2976 605.816L52.2976 432.021L79.0654 432.021L79.0654 389.7C81.0574 389.353 82.5514 388.052 82.5514 386.491C82.5514 384.67 80.4349 383.196 77.8204 383.196C75.2059 383.196 73.0894 384.67 73.0894 386.491C73.0894 388.052 74.5834 389.353 76.5754 389.7Z" fill="white" fill-opacity="0.05"/>
<path d="M37.4822 396.031L52.6713 396.031L52.6713 366.198C54.6633 365.851 56.1573 364.55 56.1573 362.989C56.1573 361.168 54.0408 359.693 51.4263 359.693C48.8117 359.693 46.6952 361.168 46.6952 362.989C46.6952 364.55 48.1892 365.764 50.1813 366.198L50.1813 394.209L40.0967 394.209L40.0967 345.471L64.3744 345.471L64.3744 407.998L37.6067 407.998L37.6067 557.771L40.0967 557.771L40.0967 409.82L66.8644 409.82L66.8644 343.736L37.4822 343.736L37.4822 396.031Z" fill="white" fill-opacity="0.05"/>
</svg>
