<svg width="32" height="32" viewBox="0 0 32 32" fill="none" xmlns="http://www.w3.org/2000/svg">
<path fill-rule="evenodd" clip-rule="evenodd" d="M5.33329 2.6665H26.6666C28.1394 2.6665 29.3333 3.86041 29.3333 5.33317V26.6665C29.3333 28.1393 28.1394 29.3332 26.6666 29.3332H5.33329C3.86053 29.3332 2.66663 28.1393 2.66663 26.6665V5.33317C2.66663 3.86041 3.86053 2.6665 5.33329 2.6665ZM5.33329 5.33317V26.6665H26.6666V5.33317H5.33329ZM17.3333 16.0057H14.844V13.339H17.3333V11.9998C17.3333 9.7907 19.1242 7.99984 21.3333 7.99984H22.6666V10.6665H21.3333C20.5969 10.6665 20 11.2635 20 11.9998V13.339H22.6432V16.0057H20V23.9998H17.3333V16.0057Z" fill="#F6F6F9"/>
</svg>
