<svg width="32" height="32" viewBox="0 0 32 32" fill="none" xmlns="http://www.w3.org/2000/svg">
<path fill-rule="evenodd" clip-rule="evenodd" d="M5.33317 2.6665H26.6665C28.1393 2.6665 29.3332 3.86041 29.3332 5.33317V26.6665C29.3332 28.1393 28.1393 29.3332 26.6665 29.3332H5.33317C3.86041 29.3332 2.6665 28.1393 2.6665 26.6665V5.33317C2.6665 3.86041 3.86041 2.6665 5.33317 2.6665ZM5.33317 5.33317V26.6665H26.6665V5.33317H5.33317ZM17.3332 16.0057H14.8439V13.339H17.3332V11.9998C17.3332 9.7907 19.124 7.99984 21.3332 7.99984H22.6665V10.6665H21.3332C20.5968 10.6665 19.9998 11.2635 19.9998 11.9998V13.339H22.6431V16.0057H19.9998V23.9998H17.3332V16.0057Z" fill="#4A5568"/>
</svg>
