<svg width="32" height="32" viewBox="0 0 32 32" fill="none" xmlns="http://www.w3.org/2000/svg">
<path fill-rule="evenodd" clip-rule="evenodd" d="M10.6665 2.6665H21.3332C25.7514 2.6665 29.3332 6.24823 29.3332 10.6665V21.3332C29.3332 25.7514 25.7514 29.3332 21.3332 29.3332H10.6665C6.24823 29.3332 2.6665 25.7514 2.6665 21.3332V10.6665C2.6665 6.24823 6.24823 2.6665 10.6665 2.6665ZM10.6665 5.33317C7.72099 5.33317 5.33317 7.72099 5.33317 10.6665V21.3332C5.33317 24.2787 7.72099 26.6665 10.6665 26.6665H21.3332C24.2787 26.6665 26.6665 24.2787 26.6665 21.3332V10.6665C26.6665 7.72099 24.2787 5.33317 21.3332 5.33317H10.6665ZM15.9998 22.6665C12.3179 22.6665 9.33317 19.6817 9.33317 15.9998C9.33317 12.3179 12.3179 9.33317 15.9998 9.33317C19.6817 9.33317 22.6665 12.3179 22.6665 15.9998C22.6665 19.6817 19.6817 22.6665 15.9998 22.6665ZM15.9998 19.9998C18.209 19.9998 19.9998 18.209 19.9998 15.9998C19.9998 13.7907 18.209 11.9998 15.9998 11.9998C13.7907 11.9998 11.9998 13.7907 11.9998 15.9998C11.9998 18.209 13.7907 19.9998 15.9998 19.9998ZM22.6665 10.6665C21.9301 10.6665 21.3332 10.0696 21.3332 9.33317C21.3332 8.59679 21.9301 7.99984 22.6665 7.99984C23.4029 7.99984 23.9998 8.59679 23.9998 9.33317C23.9998 10.0696 23.4029 10.6665 22.6665 10.6665Z" fill="#4A5568"/>
</svg>
