<svg width="32" height="32" viewBox="0 0 32 32" fill="none" xmlns="http://www.w3.org/2000/svg">
<path fill-rule="evenodd" clip-rule="evenodd" d="M10.6666 2.6665H21.3333C25.7516 2.6665 29.3333 6.24823 29.3333 10.6665V21.3332C29.3333 25.7514 25.7516 29.3332 21.3333 29.3332H10.6666C6.24835 29.3332 2.66663 25.7514 2.66663 21.3332V10.6665C2.66663 6.24823 6.24835 2.6665 10.6666 2.6665ZM10.6666 5.33317C7.72111 5.33317 5.33329 7.72099 5.33329 10.6665V21.3332C5.33329 24.2787 7.72111 26.6665 10.6666 26.6665H21.3333C24.2788 26.6665 26.6666 24.2787 26.6666 21.3332V10.6665C26.6666 7.72099 24.2788 5.33317 21.3333 5.33317H10.6666ZM16 22.6665C12.3181 22.6665 9.33329 19.6817 9.33329 15.9998C9.33329 12.3179 12.3181 9.33317 16 9.33317C19.6819 9.33317 22.6666 12.3179 22.6666 15.9998C22.6666 19.6817 19.6819 22.6665 16 22.6665ZM16 19.9998C18.2091 19.9998 20 18.209 20 15.9998C20 13.7907 18.2091 11.9998 16 11.9998C13.7908 11.9998 12 13.7907 12 15.9998C12 18.209 13.7908 19.9998 16 19.9998ZM22.6666 10.6665C21.9302 10.6665 21.3333 10.0696 21.3333 9.33317C21.3333 8.59679 21.9302 7.99984 22.6666 7.99984C23.403 7.99984 24 8.59679 24 9.33317C24 10.0696 23.403 10.6665 22.6666 10.6665Z" fill="#F6F6F9"/>
</svg>
