<svg width="32" height="32" viewBox="0 0 32 32" fill="none" xmlns="http://www.w3.org/2000/svg">
<path fill-rule="evenodd" clip-rule="evenodd" d="M30.6667 16.6046C30.6667 20.4217 30.2774 22.7683 29.3664 24.2235C28.4464 25.7764 27.3694 26.2649 25.1711 26.4083C23.6199 26.4928 19.7262 26.5496 16.0036 26.5496C12.2726 26.5496 8.37705 26.4928 6.81151 26.4074C4.63328 26.2648 3.55606 25.7772 2.63726 24.2412C1.72377 22.7569 1.33337 20.4008 1.33337 16.6185C1.33337 12.8146 1.72189 10.4703 2.62928 8.98115C3.56019 7.42513 4.65486 6.93152 6.81471 6.81375C8.30863 6.71933 11.9955 6.6665 16.0036 6.6665C20.0031 6.6665 23.6883 6.71935 25.1711 6.81302C27.3431 6.93124 28.4375 7.42376 29.3603 8.97547C30.2811 10.4698 30.6667 12.8027 30.6667 16.6046ZM27.0445 10.2077C26.6138 9.48127 26.3619 9.36746 25.0033 9.29346C23.5902 9.20424 19.9397 9.1519 16.0036 9.1519C12.059 9.1519 8.40681 9.20422 6.98283 9.29417C5.63796 9.36754 5.38237 9.48279 4.95324 10.2C4.33009 11.2227 4.00004 13.2143 4.00004 16.6046C4.00004 19.997 4.33186 21.9995 4.95835 23.0177C5.38091 23.724 5.63472 23.8389 6.98275 23.9272C8.46503 24.008 12.3229 24.0643 16.0036 24.0643C19.676 24.0643 23.5319 24.0079 25.0002 23.9281C26.3651 23.839 26.6152 23.7255 27.0474 22.9968C27.6697 22.0023 28 20.0109 28 16.6185C28 13.2002 27.6714 11.2197 27.0445 10.2077ZM13.3334 12.88L20 16.6081L13.3334 20.3362V12.88Z" fill="#F6F6F9"/>
</svg>
