<svg width="32" height="32" viewBox="0 0 32 32" fill="none" xmlns="http://www.w3.org/2000/svg">
<path fill-rule="evenodd" clip-rule="evenodd" d="M30.6668 16.6046C30.6668 20.4217 30.2776 22.7683 29.3665 24.2235C28.4465 25.7764 27.3695 26.2649 25.1712 26.4083C23.62 26.4928 19.7263 26.5496 16.0037 26.5496C12.2727 26.5496 8.37717 26.4928 6.81164 26.4074C4.6334 26.2648 3.55618 25.7772 2.63738 24.2412C1.72389 22.7569 1.3335 20.4008 1.3335 16.6185C1.3335 12.8146 1.72201 10.4703 2.6294 8.98115C3.56031 7.42513 4.65498 6.93152 6.81484 6.81375C8.30876 6.71933 11.9956 6.6665 16.0037 6.6665C20.0032 6.6665 23.6884 6.71935 25.1712 6.81302C27.3432 6.93124 28.4377 7.42376 29.3604 8.97547C30.2812 10.4698 30.6668 12.8027 30.6668 16.6046ZM27.0446 10.2077C26.6139 9.48127 26.362 9.36746 25.0034 9.29346C23.5903 9.20424 19.9398 9.1519 16.0037 9.1519C12.0592 9.1519 8.40693 9.20422 6.98296 9.29417C5.63808 9.36754 5.38249 9.48279 4.95336 10.2C4.33021 11.2227 4.00016 13.2143 4.00016 16.6046C4.00016 19.997 4.33198 21.9995 4.95848 23.0177C5.38103 23.724 5.63484 23.8389 6.98287 23.9272C8.46515 24.008 12.323 24.0643 16.0037 24.0643C19.6762 24.0643 23.5321 24.0079 25.0003 23.9281C26.3652 23.839 26.6154 23.7255 27.0475 22.9968C27.6698 22.0023 28.0002 20.0109 28.0002 16.6185C28.0002 13.2002 27.6716 11.2197 27.0446 10.2077ZM13.3335 12.88L20.0002 16.6081L13.3335 20.3362V12.88Z" fill="#4A5568"/>
</svg>
