<svg width="60" height="60" viewBox="0 0 60 60" fill="none" xmlns="http://www.w3.org/2000/svg">
<path d="M29.8289 6.67089C29.7637 6.68862 29.7012 6.71389 29.6407 6.74563C29.5954 6.75776 29.5504 6.77254 29.5079 6.7912L2.15 23.5898C1.69572 23.8418 1.53255 24.4106 1.7866 24.8604C2.04066 25.3103 2.61619 25.4706 3.07048 25.2196C3.09409 25.2065 3.11791 25.1926 3.14057 25.1776L6.41297 23.1797V51.4666H3.58329C3.06195 51.4666 2.64067 51.8848 2.64067 52.4C2.64067 52.9152 3.06195 53.3334 3.58329 53.3334H56.4176C56.9389 53.3334 57.3602 52.9152 57.3602 52.4C57.3602 51.8848 56.9389 51.4666 56.4176 51.4666H53.586V23.1797L56.8603 25.1959C57.291 25.4852 57.8772 25.3736 58.17 24.9479C58.4628 24.5214 58.3516 23.9412 57.921 23.6518C57.8983 23.6369 57.8754 23.6221 57.8509 23.6081H57.8601L30.5003 6.80943C30.455 6.78983 30.4065 6.77506 30.3583 6.76386C30.3026 6.72652 30.2426 6.69515 30.1794 6.67089C30.1199 6.66529 30.0581 6.66529 29.9986 6.67089H29.8289ZM30.0004 8.70349L51.7008 22.0221V51.4666H8.30189V22.0221L30.0004 8.70349ZM21.3048 20.6658C20.3698 20.6658 19.6114 21.4144 19.6114 22.3375V24.5925C19.6114 25.5165 20.3698 26.2659 21.3048 26.2659H22.4448V28.1327H21.1406C20.2991 28.1327 19.6114 28.8123 19.6114 29.6439V32.2216C19.6114 33.0532 20.2991 33.7328 21.1406 33.7328H29.056V35.7326C27.7352 36.0721 26.7007 37.0943 26.3573 38.3996H22.4448C21.9234 38.3996 21.5003 38.8178 21.5003 39.333C21.5003 39.8482 21.9234 40.2663 22.4448 40.2663H26.3573C26.7797 41.8719 28.2452 43.0664 30.0004 43.0664C31.7556 43.0664 33.2211 41.8719 33.6436 40.2663H37.5561C38.0774 40.2663 38.5005 39.8482 38.5005 39.333C38.5005 38.8178 38.0774 38.3996 37.5561 38.3996H33.6436C33.3001 37.0943 32.2657 36.0721 30.9449 35.7326V33.7328H38.8602C39.7018 33.7328 40.3895 33.0532 40.3895 32.2216V29.6439C40.3895 28.8123 39.7018 28.1327 38.8602 28.1327H37.5561V26.2659H38.6961C39.6311 26.2659 40.3895 25.5174 40.3895 24.5943V22.3393C40.3895 21.4153 39.632 20.6658 38.6979 20.6658H21.3048ZM21.5003 22.5325H38.5005V24.3992H21.5003V22.5325ZM24.3337 26.2659H35.6672V28.1327C35.1458 28.1327 34.7227 28.5508 34.7227 29.066C34.7227 29.5812 35.1458 29.9994 35.6672 29.9994H37.5561H38.5005V31.8661H21.5003V29.9994H24.3337C24.855 29.9994 25.2781 29.5812 25.2781 29.066C25.2781 28.5508 24.855 28.1327 24.3337 28.1327V26.2659ZM28.1115 28.1327C27.5902 28.1327 27.1671 28.5508 27.1671 29.066C27.1671 29.5812 27.5902 29.9994 28.1115 29.9994H31.8893C32.4107 29.9994 32.8338 29.5812 32.8338 29.066C32.8338 28.5508 32.4107 28.1327 31.8893 28.1327H28.1115ZM30.0004 37.4663C31.0422 37.4663 31.8893 38.3035 31.8893 39.333C31.8893 40.3625 31.0422 41.1997 30.0004 41.1997C28.9587 41.1997 28.1115 40.3625 28.1115 39.333C28.1115 38.3035 28.9587 37.4663 30.0004 37.4663ZM11.1113 45.8665C10.5899 45.8665 10.1668 46.2846 10.1668 46.7998V48.6666C10.1668 49.1818 10.5899 49.5999 11.1113 49.5999C11.6326 49.5999 12.0557 49.1818 12.0557 48.6666V46.7998C12.0557 46.2846 11.6326 45.8665 11.1113 45.8665ZM15.8336 45.8665C15.3122 45.8665 14.8891 46.2846 14.8891 46.7998V48.6666C14.8891 49.1818 15.3122 49.5999 15.8336 49.5999C16.3549 49.5999 16.778 49.1818 16.778 48.6666V46.7998C16.778 46.2846 16.3549 45.8665 15.8336 45.8665ZM20.5559 45.8665C20.0345 45.8665 19.6114 46.2846 19.6114 46.7998V48.6666C19.6114 49.1818 20.0345 49.5999 20.5559 49.5999C21.0772 49.5999 21.5003 49.1818 21.5003 48.6666V46.7998C21.5003 46.2846 21.0772 45.8665 20.5559 45.8665ZM25.2781 45.8665C24.7568 45.8665 24.3337 46.2846 24.3337 46.7998V48.6666C24.3337 49.1818 24.7568 49.5999 25.2781 49.5999C25.7995 49.5999 26.2226 49.1818 26.2226 48.6666V46.7998C26.2226 46.2846 25.7995 45.8665 25.2781 45.8665ZM30.0004 45.8665C29.4791 45.8665 29.056 46.2846 29.056 46.7998V48.6666C29.056 49.1818 29.4791 49.5999 30.0004 49.5999C30.5218 49.5999 30.9449 49.1818 30.9449 48.6666V46.7998C30.9449 46.2846 30.5218 45.8665 30.0004 45.8665ZM34.7227 45.8665C34.2014 45.8665 33.7783 46.2846 33.7783 46.7998V48.6666C33.7783 49.1818 34.2014 49.5999 34.7227 49.5999C35.2441 49.5999 35.6672 49.1818 35.6672 48.6666V46.7998C35.6672 46.2846 35.2441 45.8665 34.7227 45.8665ZM39.445 45.8665C38.9237 45.8665 38.5005 46.2846 38.5005 46.7998V48.6666C38.5005 49.1818 38.9237 49.5999 39.445 49.5999C39.9663 49.5999 40.3895 49.1818 40.3895 48.6666V46.7998C40.3895 46.2846 39.9663 45.8665 39.445 45.8665ZM44.1673 45.8665C43.646 45.8665 43.2228 46.2846 43.2228 46.7998V48.6666C43.2228 49.1818 43.646 49.5999 44.1673 49.5999C44.6886 49.5999 45.1117 49.1818 45.1117 48.6666V46.7998C45.1117 46.2846 44.6886 45.8665 44.1673 45.8665ZM48.8896 45.8665C48.3682 45.8665 47.9451 46.2846 47.9451 46.7998V48.6666C47.9451 49.1818 48.3682 49.5999 48.8896 49.5999C49.4109 49.5999 49.834 49.1818 49.834 48.6666V46.7998C49.834 46.2846 49.4109 45.8665 48.8896 45.8665Z" fill="#DFB044"/>
</svg>
