<svg width="60" height="60" viewBox="0 0 60 60" fill="none" xmlns="http://www.w3.org/2000/svg">
<path d="M11.8835 5.625C10.5176 5.625 9.35303 6.60278 9.11865 7.94678L3.81958 37.9541C3.77197 38.2214 3.75 38.4961 3.75 38.7671V51.5625C3.75 53.1116 5.01343 54.375 6.5625 54.375H53.4375C54.9866 54.375 56.25 53.1116 56.25 51.5625V38.7671C56.25 38.4961 56.228 38.2214 56.1768 37.9504L50.885 7.94678C50.647 6.60278 49.4824 5.625 48.1165 5.625H11.8835ZM11.8835 7.5H48.1165C48.5706 7.5 48.9587 7.82593 49.0393 8.27637L54.1956 37.5H5.80444L10.9607 8.27637C11.0413 7.82593 11.4294 7.5 11.8835 7.5ZM30 13.125C26.8982 13.125 24.375 15.6482 24.375 18.75V21.0938C24.375 21.9177 24.5508 22.6978 24.873 23.4009C21.8262 24.8254 19.4421 27.8247 18.7683 31.4722C18.6731 31.9775 19.0027 32.4646 19.519 32.5671C20.0244 32.655 20.5115 32.3254 20.6067 31.8091C21.1963 28.6597 23.2983 26.0925 25.9314 24.9756C26.9641 26.0522 28.407 26.7188 30 26.7188C31.593 26.7188 33.0359 26.0522 34.0686 24.9756C36.7017 26.0925 38.8037 28.6597 39.3933 31.8164C39.4775 32.2668 39.873 32.5781 40.3125 32.5781C40.3674 32.5781 40.426 32.5781 40.481 32.5671C40.9973 32.4756 41.3269 31.9775 41.2317 31.4722C40.5579 27.8247 38.1738 24.8254 35.127 23.4009C35.4492 22.6978 35.625 21.9177 35.625 21.0938V18.75C35.625 15.6482 33.1018 13.125 30 13.125ZM30 15C32.0728 15 33.75 16.6772 33.75 18.75V21.0938C33.75 21.6943 33.6108 22.2546 33.3472 22.7637C33.0103 23.4668 32.4463 24.0381 31.7542 24.4043C31.2268 24.6826 30.6372 24.8438 30 24.8438C29.3628 24.8438 28.7732 24.6826 28.2458 24.4043C27.5537 24.0381 26.9897 23.4668 26.6528 22.7637C26.3892 22.2546 26.25 21.6943 26.25 21.0938V18.75C26.25 16.6772 27.9272 15 30 15ZM5.625 39.375H54.375V51.5625C54.375 52.0789 53.9539 52.5 53.4375 52.5H6.5625C6.04614 52.5 5.625 52.0789 5.625 51.5625V39.375ZM47.8125 43.125C46.2634 43.125 45 44.3884 45 45.9375C45 47.4866 46.2634 48.75 47.8125 48.75C49.3616 48.75 50.625 47.4866 50.625 45.9375C50.625 44.3884 49.3616 43.125 47.8125 43.125ZM10.3125 44.0625C9.79248 44.0625 9.375 44.48 9.375 45V47.8125C9.375 48.3325 9.79248 48.75 10.3125 48.75H38.4375C38.9575 48.75 39.375 48.3325 39.375 47.8125V45C39.375 44.48 38.9575 44.0625 38.4375 44.0625C37.9175 44.0625 37.5 44.48 37.5 45V46.875H34.6875V45C34.6875 44.48 34.27 44.0625 33.75 44.0625C33.23 44.0625 32.8125 44.48 32.8125 45V46.875H30V45C30 44.48 29.5825 44.0625 29.0625 44.0625C28.5425 44.0625 28.125 44.48 28.125 45V46.875H25.3125V45C25.3125 44.48 24.895 44.0625 24.375 44.0625C23.855 44.0625 23.4375 44.48 23.4375 45V46.875H20.625V45C20.625 44.48 20.2075 44.0625 19.6875 44.0625C19.1675 44.0625 18.75 44.48 18.75 45V46.875H15.9375V45C15.9375 44.48 15.52 44.0625 15 44.0625C14.48 44.0625 14.0625 44.48 14.0625 45V46.875H11.25V45C11.25 44.48 10.8325 44.0625 10.3125 44.0625ZM47.8125 44.8132C48.4314 44.8132 48.9368 45.3186 48.9368 45.9375C48.9368 46.5564 48.4314 47.0618 47.8125 47.0618C47.1936 47.0618 46.6882 46.5564 46.6882 45.9375C46.6882 45.3186 47.1936 44.8132 47.8125 44.8132Z" fill="#DFB044"/>
</svg>
