<svg width="60" height="60" viewBox="0 0 60 60" fill="none" xmlns="http://www.w3.org/2000/svg">
<path d="M13.927 5.625C12.4951 5.625 11.2097 6.41968 10.5725 7.69775L6.11939 16.6003C5.79712 17.2485 5.625 17.9736 5.625 18.6951V28.125C5.625 29.2493 6.13403 30.249 6.92139 30.9375C6.13403 31.626 5.625 32.6257 5.625 33.75V39.375C5.625 40.4993 6.13403 41.499 6.92139 42.1875C6.13403 42.876 5.625 43.8757 5.625 45V50.625C5.625 52.6941 7.30591 54.375 9.375 54.375H50.625C52.6941 54.375 54.375 52.6941 54.375 50.625V45C54.375 43.8757 53.866 42.876 53.0786 42.1875C53.866 41.499 54.375 40.4993 54.375 39.375V33.75C54.375 32.6257 53.866 31.626 53.0786 30.9375C53.866 30.249 54.375 29.2493 54.375 28.125V18.6951C54.375 17.9736 54.2029 17.2485 53.8806 16.6003L49.4275 7.69775C48.7903 6.41968 47.5049 5.625 46.073 5.625H13.927ZM13.927 7.5H46.073C46.7871 7.5 47.4316 7.89917 47.7502 8.53638L52.2034 17.439C52.3975 17.8271 52.5 18.2629 52.5 18.6951V18.75H7.5V18.6951C7.5 18.2629 7.60254 17.8271 7.79663 17.439L12.2461 8.53638C12.5684 7.89917 13.2092 7.5 13.927 7.5ZM14.0625 9.375C13.5425 9.375 13.125 9.79248 13.125 10.3125C13.125 10.8325 13.5425 11.25 14.0625 11.25H38.4375C38.9575 11.25 39.375 10.8325 39.375 10.3125C39.375 9.79248 38.9575 9.375 38.4375 9.375H14.0625ZM42.1875 9.375C41.6675 9.375 41.25 9.79248 41.25 10.3125C41.25 10.8325 41.6675 11.25 42.1875 11.25H45.9375C46.4575 11.25 46.875 10.8325 46.875 10.3125C46.875 9.79248 46.4575 9.375 45.9375 9.375H42.1875ZM7.5 20.625H52.5V28.125C52.5 29.1577 51.6577 30 50.625 30H9.375C8.34229 30 7.5 29.1577 7.5 28.125V20.625ZM45.9375 22.5C44.3884 22.5 43.125 23.7634 43.125 25.3125C43.125 26.8616 44.3884 28.125 45.9375 28.125C47.4866 28.125 48.75 26.8616 48.75 25.3125C48.75 23.7634 47.4866 22.5 45.9375 22.5ZM12.1875 23.4375C11.6675 23.4375 11.25 23.855 11.25 24.375V26.25C11.25 26.77 11.6675 27.1875 12.1875 27.1875C12.7075 27.1875 13.125 26.77 13.125 26.25V24.375C13.125 23.855 12.7075 23.4375 12.1875 23.4375ZM16.875 23.4375C16.355 23.4375 15.9375 23.855 15.9375 24.375V26.25C15.9375 26.77 16.355 27.1875 16.875 27.1875C17.395 27.1875 17.8125 26.77 17.8125 26.25V24.375C17.8125 23.855 17.395 23.4375 16.875 23.4375ZM21.5625 23.4375C21.0425 23.4375 20.625 23.855 20.625 24.375V26.25C20.625 26.77 21.0425 27.1875 21.5625 27.1875C22.0825 27.1875 22.5 26.77 22.5 26.25V24.375C22.5 23.855 22.0825 23.4375 21.5625 23.4375ZM26.25 23.4375C25.73 23.4375 25.3125 23.855 25.3125 24.375V26.25C25.3125 26.77 25.73 27.1875 26.25 27.1875C26.77 27.1875 27.1875 26.77 27.1875 26.25V24.375C27.1875 23.855 26.77 23.4375 26.25 23.4375ZM30.9375 23.4375C30.4175 23.4375 30 23.855 30 24.375V26.25C30 26.77 30.4175 27.1875 30.9375 27.1875C31.4575 27.1875 31.875 26.77 31.875 26.25V24.375C31.875 23.855 31.4575 23.4375 30.9375 23.4375ZM45.9375 24.1809C46.5637 24.1809 47.0691 24.6899 47.0691 25.3125C47.0691 25.9387 46.5601 26.4441 45.9375 26.4441C45.3149 26.4441 44.8059 25.9387 44.8059 25.3125C44.8059 24.6863 45.3113 24.1809 45.9375 24.1809ZM34.6875 24.375C34.1675 24.375 33.75 24.7925 33.75 25.3125C33.75 25.8325 34.1675 26.25 34.6875 26.25H40.3125C40.8325 26.25 41.25 25.8325 41.25 25.3125C41.25 24.7925 40.8325 24.375 40.3125 24.375H34.6875ZM9.375 31.875H50.625C51.6577 31.875 52.5 32.7173 52.5 33.75V39.375C52.5 40.4077 51.6577 41.25 50.625 41.25H9.375C8.34229 41.25 7.5 40.4077 7.5 39.375V33.75C7.5 32.7173 8.34229 31.875 9.375 31.875ZM45.9375 33.75C44.3884 33.75 43.125 35.0134 43.125 36.5625C43.125 38.1116 44.3884 39.375 45.9375 39.375C47.4866 39.375 48.75 38.1116 48.75 36.5625C48.75 35.0134 47.4866 33.75 45.9375 33.75ZM12.1875 34.6875C11.6675 34.6875 11.25 35.105 11.25 35.625V37.5C11.25 38.02 11.6675 38.4375 12.1875 38.4375C12.7075 38.4375 13.125 38.02 13.125 37.5V35.625C13.125 35.105 12.7075 34.6875 12.1875 34.6875ZM16.875 34.6875C16.355 34.6875 15.9375 35.105 15.9375 35.625V37.5C15.9375 38.02 16.355 38.4375 16.875 38.4375C17.395 38.4375 17.8125 38.02 17.8125 37.5V35.625C17.8125 35.105 17.395 34.6875 16.875 34.6875ZM21.5625 34.6875C21.0425 34.6875 20.625 35.105 20.625 35.625V37.5C20.625 38.02 21.0425 38.4375 21.5625 38.4375C22.0825 38.4375 22.5 38.02 22.5 37.5V35.625C22.5 35.105 22.0825 34.6875 21.5625 34.6875ZM26.25 34.6875C25.73 34.6875 25.3125 35.105 25.3125 35.625V37.5C25.3125 38.02 25.73 38.4375 26.25 38.4375C26.77 38.4375 27.1875 38.02 27.1875 37.5V35.625C27.1875 35.105 26.77 34.6875 26.25 34.6875ZM30.9375 34.6875C30.4175 34.6875 30 35.105 30 35.625V37.5C30 38.02 30.4175 38.4375 30.9375 38.4375C31.4575 38.4375 31.875 38.02 31.875 37.5V35.625C31.875 35.105 31.4575 34.6875 30.9375 34.6875ZM45.9375 35.4309C46.5601 35.4309 47.0691 35.9399 47.0691 36.5625C47.0691 37.1887 46.5637 37.6941 45.9375 37.6941C45.3113 37.6941 44.8059 37.1851 44.8059 36.5625C44.8059 35.9363 45.3149 35.4309 45.9375 35.4309ZM34.6875 35.625C34.1675 35.625 33.75 36.0425 33.75 36.5625C33.75 37.0825 34.1675 37.5 34.6875 37.5H40.3125C40.8325 37.5 41.25 37.0825 41.25 36.5625C41.25 36.0425 40.8325 35.625 40.3125 35.625H34.6875ZM9.375 43.125H50.625C51.6577 43.125 52.5 43.9673 52.5 45V50.625C52.5 51.6577 51.6577 52.5 50.625 52.5H9.375C8.34229 52.5 7.5 51.6577 7.5 50.625V45C7.5 43.9673 8.34229 43.125 9.375 43.125ZM45.9375 45C44.3884 45 43.125 46.2634 43.125 47.8125C43.125 49.3616 44.3884 50.625 45.9375 50.625C47.4866 50.625 48.75 49.3616 48.75 47.8125C48.75 46.2634 47.4866 45 45.9375 45ZM12.1875 45.9375C11.6675 45.9375 11.25 46.355 11.25 46.875V48.75C11.25 49.27 11.6675 49.6875 12.1875 49.6875C12.7075 49.6875 13.125 49.27 13.125 48.75V46.875C13.125 46.355 12.7075 45.9375 12.1875 45.9375ZM16.875 45.9375C16.355 45.9375 15.9375 46.355 15.9375 46.875V48.75C15.9375 49.27 16.355 49.6875 16.875 49.6875C17.395 49.6875 17.8125 49.27 17.8125 48.75V46.875C17.8125 46.355 17.395 45.9375 16.875 45.9375ZM21.5625 45.9375C21.0425 45.9375 20.625 46.355 20.625 46.875V48.75C20.625 49.27 21.0425 49.6875 21.5625 49.6875C22.0825 49.6875 22.5 49.27 22.5 48.75V46.875C22.5 46.355 22.0825 45.9375 21.5625 45.9375ZM26.25 45.9375C25.73 45.9375 25.3125 46.355 25.3125 46.875V48.75C25.3125 49.27 25.73 49.6875 26.25 49.6875C26.77 49.6875 27.1875 49.27 27.1875 48.75V46.875C27.1875 46.355 26.77 45.9375 26.25 45.9375ZM30.9375 45.9375C30.4175 45.9375 30 46.355 30 46.875V48.75C30 49.27 30.4175 49.6875 30.9375 49.6875C31.4575 49.6875 31.875 49.27 31.875 48.75V46.875C31.875 46.355 31.4575 45.9375 30.9375 45.9375ZM45.9375 46.6406C46.5857 46.6406 47.1094 47.1643 47.1094 47.8125C47.1094 48.4607 46.5857 48.9844 45.9375 48.9844C45.2893 48.9844 44.7656 48.4607 44.7656 47.8125C44.7656 47.1643 45.2893 46.6406 45.9375 46.6406ZM34.6875 46.875C34.1675 46.875 33.75 47.2925 33.75 47.8125C33.75 48.3325 34.1675 48.75 34.6875 48.75H40.3125C40.8325 48.75 41.25 48.3325 41.25 47.8125C41.25 47.2925 40.8325 46.875 40.3125 46.875H34.6875Z" fill="#DFB044"/>
</svg>
