<svg width="60" height="60" viewBox="0 0 60 60" fill="none" xmlns="http://www.w3.org/2000/svg">
<path d="M36.6726 39.1671H38.339V40.8334H36.6726V39.1671Z" fill="#DFB044"/>
<path d="M40.0054 39.1671H41.6718V40.8334H40.0054V39.1671Z" fill="#DFB044"/>
<path d="M43.3381 39.1671H45.0045V40.8334H43.3381V39.1671Z" fill="#DFB044"/>
<path d="M36.6726 32.5009H38.339V34.1672H36.6726V32.5009Z" fill="#DFB044"/>
<path d="M40.0054 32.5009H41.6718V34.1672H40.0054V32.5009Z" fill="#DFB044"/>
<path d="M43.3381 32.5009H45.0045V34.1672H43.3381V32.5009Z" fill="#DFB044"/>
<path d="M36.6726 25.8346H38.339V27.501H36.6726V25.8346Z" fill="#DFB044"/>
<path d="M40.0054 25.8346H41.6718V27.501H40.0054V25.8346Z" fill="#DFB044"/>
<path d="M43.3381 25.8346H45.0045V27.501H43.3381V25.8346Z" fill="#DFB044"/>
<path d="M36.6726 19.1683H38.339V20.8347H36.6726V19.1683Z" fill="#DFB044"/>
<path d="M40.0054 19.1683H41.6718V20.8347H40.0054V19.1683Z" fill="#DFB044"/>
<path d="M43.3381 19.1683H45.0045V20.8347H43.3381V19.1683Z" fill="#DFB044"/>
<path d="M46.6709 39.1671H53.3364V40.8334H46.6709V39.1671Z" fill="#DFB044"/>
<path d="M46.6709 32.5009H53.3364V34.1672H46.6709V32.5009Z" fill="#DFB044"/>
<path d="M46.6709 25.8346H53.3364V27.501H46.6709V25.8346Z" fill="#DFB044"/>
<path d="M52.5864 15.8357C45.7768 4.97498 32.2037 0.497299 20.2697 5.17475C8.33525 9.85221 1.4183 22.3608 3.8003 34.9569C6.18189 47.553 17.1891 56.6711 30.0068 56.6666C39.1739 56.6349 47.6889 51.9204 52.5815 44.1674H56.6689V15.8357H52.5864ZM50.5957 15.8357H33.3395V32.6463L28.9238 31.3841L26.674 26.8885V24.1519L28.6638 22.5602L30.7277 14.3059L33.9722 12.5026H41.4709L45.4094 10.3144L45.3976 10.2937C47.4025 11.8658 49.1559 13.7346 50.5978 15.8357H50.5957ZM5.01103 30.0016C5.00696 23.848 7.28115 17.9112 11.3958 13.3359H14.7286L17.5089 15.4191V21.8636L16.0777 24.3696L12.7722 26.0219L10.8434 28.9185V33.7831L16.0093 37.2261L17.0451 39.6425L16.3885 41.9385L12.2974 44.1674H9.42719C6.54682 40.0054 5.00615 35.0631 5.01103 30.0016ZM30.0068 55.0001C26.4124 55.0021 22.8604 54.2242 19.5964 52.7195L22.7391 50.8337H28.4881L34.8961 48.4306L40.9384 52.4595C37.5348 54.1261 33.7964 54.9948 30.0068 55.0001ZM42.6015 51.5628L35.1125 46.5708L28.1899 49.1671H22.2741L17.9096 51.7862L17.9873 51.9143C15.1863 50.3706 12.705 48.3069 10.677 45.834H12.7197L17.7957 43.066L18.8055 39.5286L17.3417 36.112L12.5098 32.8888V29.4185L13.9137 27.3125L17.2742 25.6317L19.1753 22.3071V14.5858L15.2868 11.6693H13.0374C21.528 3.79707 34.3127 2.78639 43.9347 9.22684L41.0392 10.836H33.5405L29.2863 13.1992L27.1842 21.6105L25.0076 23.352V27.2816L27.7574 32.7858L33.3395 34.3804V44.1674H50.6018C48.5091 47.1893 45.778 49.7139 42.6015 51.5628ZM55.0025 42.5008H35.0059V37.5011H55.0025V42.5008ZM55.0025 35.8345H35.0059V30.8348H55.0025V35.8345ZM55.0025 29.1683H35.0059V24.1686H55.0025V29.1683ZM55.0025 22.502H35.0059V17.5023H55.0025V22.502Z" fill="#DFB044"/>
<path d="M46.6709 19.1683H53.3364V20.8347H46.6709V19.1683Z" fill="#DFB044"/>
</svg>
