<svg width="20" height="20" viewBox="0 0 20 20" fill="none" xmlns="http://www.w3.org/2000/svg">
<path d="M15.8333 16.6667H4.16666C3.94564 16.6667 3.73368 16.7545 3.5774 16.9108C3.42112 17.0671 3.33333 17.279 3.33333 17.5C3.33333 17.721 3.42112 17.933 3.5774 18.0893C3.73368 18.2456 3.94564 18.3334 4.16666 18.3334H15.8333C16.0543 18.3334 16.2663 18.2456 16.4226 18.0893C16.5789 17.933 16.6667 17.721 16.6667 17.5C16.6667 17.279 16.5789 17.0671 16.4226 16.9108C16.2663 16.7545 16.0543 16.6667 15.8333 16.6667ZM4.16666 15H4.24166L7.71666 14.6834C8.09732 14.6454 8.45335 14.4777 8.72499 14.2084L16.225 6.70836C16.5161 6.40084 16.6734 5.99045 16.6625 5.56714C16.6515 5.14383 16.4732 4.74212 16.1667 4.45003L13.8833 2.1667C13.5853 1.88678 13.1948 1.72616 12.7861 1.71541C12.3774 1.70465 11.979 1.8445 11.6667 2.10836L4.16666 9.60836C3.8973 9.88 3.72958 10.236 3.69166 10.6167L3.33333 14.0917C3.3221 14.2138 3.33794 14.3368 3.37971 14.452C3.42148 14.5673 3.48816 14.6719 3.57499 14.7584C3.65286 14.8356 3.74521 14.8967 3.84674 14.9382C3.94827 14.9796 4.05699 15.0007 4.16666 15ZM12.725 3.33336L15 5.60836L13.3333 7.23336L11.1 5.00003L12.725 3.33336Z" fill="#8D2B0B"/>
</svg>
