<svg width="20" height="20" viewBox="0 0 20 20" fill="none" xmlns="http://www.w3.org/2000/svg">
<path d="M10 10C8.89494 10 7.83513 9.56105 7.05373 8.77965C6.27233 7.99825 5.83334 6.93844 5.83334 5.83337C5.83334 4.7283 6.27233 3.66849 7.05373 2.88709C7.83513 2.10569 8.89494 1.6667 10 1.6667C11.1051 1.6667 12.1649 2.10569 12.9463 2.88709C13.7277 3.66849 14.1667 4.7283 14.1667 5.83337C14.1667 6.93844 13.7277 7.99825 12.9463 8.77965C12.1649 9.56105 11.1051 10 10 10Z" fill="#8D2B0B"/>
<path d="M17.5 16.6667V15.8334C17.5 14.7283 17.061 13.6685 16.2796 12.8871C15.4982 12.1057 14.4384 11.6667 13.3333 11.6667H6.66667C5.5616 11.6667 4.50179 12.1057 3.72039 12.8871C2.93899 13.6685 2.5 14.7283 2.5 15.8334V16.6667C2.5 17.5834 3.25 18.3334 4.16667 18.3334H15.8333C16.2754 18.3334 16.6993 18.1578 17.0118 17.8452C17.3244 17.5327 17.5 17.1087 17.5 16.6667Z" fill="#8D2B0B"/>
</svg>
