<svg width="20" height="20" viewBox="0 0 20 20" fill="none" xmlns="http://www.w3.org/2000/svg">
<path d="M8.33331 11.6667H11.6666V17.5H8.33331V11.6667Z" fill="#8D2B0B"/>
<path d="M17.0166 8.48333L10.5916 1.91666C10.5142 1.83856 10.422 1.77656 10.3205 1.73426C10.2189 1.69195 10.11 1.67017 9.99998 1.67017C9.88997 1.67017 9.78104 1.69195 9.67949 1.73426C9.57794 1.77656 9.48578 1.83856 9.40831 1.91666L2.98331 8.49166C2.82784 8.64839 2.70505 8.83444 2.62208 9.03901C2.53911 9.24357 2.4976 9.46259 2.49997 9.68333V16.6667C2.49933 17.0933 2.66229 17.5039 2.95529 17.8139C3.24829 18.124 3.64902 18.3099 4.07497 18.3333H6.66664V10.8333C6.66664 10.6123 6.75444 10.4004 6.91072 10.2441C7.067 10.0878 7.27896 10 7.49997 10H12.5C12.721 10 12.933 10.0878 13.0892 10.2441C13.2455 10.4004 13.3333 10.6123 13.3333 10.8333V18.3333H15.925C16.3509 18.3099 16.7517 18.124 17.0447 17.8139C17.3377 17.5039 17.5006 17.0933 17.5 16.6667V9.68333C17.5006 9.23578 17.3273 8.80548 17.0166 8.48333Z" fill="#8D2B0B"/>
</svg>
