<svg width="20" height="20" viewBox="0 0 20 20" fill="none" xmlns="http://www.w3.org/2000/svg">
<path d="M5.83333 3.33336H17.5C17.6428 3.33237 17.7834 3.36806 17.9084 3.43703C18.0334 3.50599 18.1386 3.60591 18.2139 3.72721C18.2891 3.8485 18.332 3.98711 18.3383 4.12973C18.3447 4.27235 18.3142 4.41421 18.25 4.5417L14.9167 11.2084C14.8468 11.3471 14.7395 11.4635 14.607 11.5445C14.4745 11.6254 14.322 11.6678 14.1667 11.6667H5.83333C5.61232 11.6667 5.40036 11.5789 5.24408 11.4226C5.0878 11.2663 5 11.0544 5 10.8334V4.1667C5 3.94568 5.0878 3.73372 5.24408 3.57744C5.40036 3.42116 5.61232 3.33336 5.83333 3.33336Z" fill="#8D2B0B"/>
<path d="M14.775 15.8334C14.922 16.0867 14.9996 16.3742 15 16.6671C15.0005 16.9599 14.9237 17.2477 14.7776 17.5015C14.6314 17.7553 14.421 17.9661 14.1674 18.1126C13.9139 18.2592 13.6262 18.3363 13.3334 18.3363C13.0405 18.3363 12.7528 18.2592 12.4993 18.1126C12.2457 17.9661 12.0353 17.7553 11.8891 17.5015C11.743 17.2477 11.6662 16.9599 11.6667 16.6671C11.6671 16.3742 11.7447 16.0867 11.8917 15.8334H7.27502C7.42224 16.0897 7.49866 16.3805 7.49644 16.676C7.49423 16.9716 7.41346 17.2612 7.26242 17.5153C7.11138 17.7693 6.8955 17.9786 6.63691 18.1217C6.37832 18.2649 6.08632 18.3367 5.79085 18.3297C5.49537 18.3228 5.20705 18.2375 4.95543 18.0824C4.70382 17.9274 4.49796 17.7082 4.35896 17.4473C4.21997 17.1865 4.15283 16.8934 4.16444 16.5981C4.17605 16.3028 4.26598 16.0158 4.42502 15.7667C3.89886 15.643 3.42696 15.3521 3.08005 14.9376C2.73314 14.5231 2.52991 14.0074 2.50081 13.4676C2.47171 12.9279 2.61832 12.3933 2.91865 11.9439C3.21899 11.4945 3.65688 11.1546 4.16669 10.975V3.33337H2.50002C2.27901 3.33337 2.06704 3.24557 1.91076 3.08929C1.75448 2.93301 1.66669 2.72105 1.66669 2.50004C1.66669 2.27902 1.75448 2.06706 1.91076 1.91078C2.06704 1.7545 2.27901 1.6667 2.50002 1.6667H5.00002C5.22103 1.6667 5.433 1.7545 5.58928 1.91078C5.74556 2.06706 5.83335 2.27902 5.83335 2.50004V10.8334H15C15.221 10.8334 15.433 10.9212 15.5893 11.0774C15.7456 11.2337 15.8334 11.4457 15.8334 11.6667C15.8334 11.8877 15.7456 12.0997 15.5893 12.256C15.433 12.4122 15.221 12.5 15 12.5H5.00002C4.77901 12.5 4.56705 12.5878 4.41076 12.7441C4.25448 12.9004 4.16669 13.1124 4.16669 13.3334C4.16669 13.5544 4.25448 13.7663 4.41076 13.9226C4.56705 14.0789 4.77901 14.1667 5.00002 14.1667H15C15.221 14.1667 15.433 14.2545 15.5893 14.4108C15.7456 14.5671 15.8334 14.779 15.8334 15C15.8334 15.2211 15.7456 15.433 15.5893 15.5893C15.433 15.7456 15.221 15.8334 15 15.8334H14.775Z" fill="#8D2B0B"/>
</svg>
