<svg width="20" height="20" viewBox="0 0 20 20" fill="none" xmlns="http://www.w3.org/2000/svg">
<path d="M10 2.50003C5.85938 2.50003 2.5 5.85941 2.5 10C2.5 14.1407 5.85938 17.5 10 17.5C14.1406 17.5 17.5 14.1407 17.5 10C17.5 5.85941 14.1406 2.50003 10 2.50003ZM9.76562 14.375C9.61111 14.375 9.46006 14.3292 9.33159 14.2434C9.20311 14.1575 9.10298 14.0355 9.04384 13.8928C8.98471 13.75 8.96924 13.5929 8.99939 13.4414C9.02953 13.2898 9.10394 13.1506 9.2132 13.0414C9.32246 12.9321 9.46166 12.8577 9.61321 12.8275C9.76476 12.7974 9.92184 12.8129 10.0646 12.872C10.2074 12.9311 10.3294 13.0313 10.4152 13.1597C10.5011 13.2882 10.5469 13.4393 10.5469 13.5938C10.5469 13.801 10.4646 13.9997 10.3181 14.1462C10.1715 14.2927 9.97283 14.375 9.76562 14.375ZM11.0719 10.3907C10.4387 10.8157 10.3516 11.2051 10.3516 11.5625C10.3516 11.7076 10.2939 11.8467 10.1914 11.9492C10.0888 12.0518 9.94973 12.1094 9.80469 12.1094C9.65965 12.1094 9.52055 12.0518 9.41799 11.9492C9.31543 11.8467 9.25781 11.7076 9.25781 11.5625C9.25781 10.7067 9.65156 10.0262 10.4617 9.48206C11.2148 8.97659 11.6406 8.65628 11.6406 7.95198C11.6406 7.47308 11.3672 7.10941 10.8012 6.84026C10.668 6.77698 10.3715 6.71527 10.0066 6.71956C9.54883 6.72542 9.19336 6.8348 8.91953 7.05511C8.40312 7.47073 8.35938 7.92308 8.35938 7.92972C8.35591 8.00153 8.33834 8.07197 8.30766 8.13699C8.27697 8.20202 8.23379 8.26036 8.18055 8.30869C8.12732 8.35703 8.06509 8.3944 7.99742 8.41869C7.92974 8.44297 7.85795 8.45369 7.78613 8.45023C7.71432 8.44676 7.64388 8.42919 7.57886 8.39851C7.51383 8.36783 7.45549 8.32464 7.40716 8.27141C7.35882 8.21817 7.32145 8.15595 7.29716 8.08827C7.27288 8.0206 7.26216 7.9488 7.26562 7.87698C7.26992 7.78206 7.33594 6.92698 8.2332 6.20511C8.69844 5.83089 9.29023 5.63636 9.99102 5.62777C10.4871 5.62191 10.9531 5.70589 11.2691 5.85511C12.2148 6.30237 12.7344 7.04808 12.7344 7.95198C12.7344 9.27347 11.8512 9.86683 11.0719 10.3907Z" fill="#8D2B0B"/>
</svg>
