<svg width="32" height="32" viewBox="0 0 32 32" fill="none" xmlns="http://www.w3.org/2000/svg">
<path d="M15.9086 3.55778C15.8738 3.56724 15.8405 3.58072 15.8082 3.59764C15.7841 3.60412 15.7601 3.61199 15.7374 3.62195L1.14653 12.5812C0.904243 12.7156 0.817219 13.0189 0.952717 13.2589C1.08822 13.4988 1.39516 13.5843 1.63745 13.4504C1.65004 13.4434 1.66274 13.436 1.67483 13.428L3.42011 12.3625V27.4488H1.91095C1.6329 27.4488 1.40822 27.6719 1.40822 27.9466C1.40822 28.2214 1.6329 28.4444 1.91095 28.4444H30.0892C30.3673 28.4444 30.592 28.2214 30.592 27.9466C30.592 27.6719 30.3673 27.4488 30.0892 27.4488H28.5791V12.3625L30.3253 13.4378C30.555 13.5921 30.8677 13.5325 31.0239 13.3055C31.18 13.0781 31.1207 12.7686 30.891 12.6143C30.8789 12.6063 30.8667 12.5984 30.8537 12.5909H30.8586L16.2667 3.63167C16.2425 3.62122 16.2166 3.61334 16.1909 3.60737C16.1612 3.58746 16.1293 3.57072 16.0955 3.55778C16.0638 3.5548 16.0308 3.5548 15.9991 3.55778H15.9086ZM16.0001 4.64184L27.5736 11.7451V27.4488H4.42753V11.7451L16.0001 4.64184ZM11.3624 11.0217C10.8637 11.0217 10.4593 11.421 10.4593 11.9133V13.116C10.4593 13.6088 10.8637 14.0085 11.3624 14.0085H11.9704V15.0041H11.2749C10.826 15.0041 10.4593 15.3665 10.4593 15.8101V17.1848C10.4593 17.6283 10.826 17.9908 11.2749 17.9908H15.4964V19.0574C14.792 19.2384 14.2403 19.7836 14.0571 20.4798H11.9704C11.6924 20.4798 11.4667 20.7028 11.4667 20.9776C11.4667 21.2523 11.6924 21.4754 11.9704 21.4754H14.0571C14.2824 22.3316 15.064 22.9687 16.0001 22.9687C16.9362 22.9687 17.7178 22.3316 17.9431 21.4754H20.0298C20.3078 21.4754 20.5335 21.2523 20.5335 20.9776C20.5335 20.7028 20.3078 20.4798 20.0298 20.4798H17.9431C17.7599 19.7836 17.2082 19.2384 16.5038 19.0574V17.9908H20.7253C21.1741 17.9908 21.5409 17.6283 21.5409 17.1848V15.8101C21.5409 15.3665 21.1741 15.0041 20.7253 15.0041H20.0298V14.0085H20.6378C21.1364 14.0085 21.5409 13.6092 21.5409 13.1169V11.9143C21.5409 11.4214 21.1369 11.0217 20.6388 11.0217H11.3624ZM11.4667 12.0173H20.5335V13.0129H11.4667V12.0173ZM12.9778 14.0085H19.0224V15.0041C18.7443 15.0041 18.5186 15.2271 18.5186 15.5019C18.5186 15.7766 18.7443 15.9996 19.0224 15.9996H20.0298H20.5335V16.9952H11.4667V15.9996H12.9778C13.2559 15.9996 13.4815 15.7766 13.4815 15.5019C13.4815 15.2271 13.2559 15.0041 12.9778 15.0041V14.0085ZM14.9927 15.0041C14.7146 15.0041 14.489 15.2271 14.489 15.5019C14.489 15.7766 14.7146 15.9996 14.9927 15.9996H17.0075C17.2856 15.9996 17.5112 15.7766 17.5112 15.5019C17.5112 15.2271 17.2856 15.0041 17.0075 15.0041H14.9927ZM16.0001 19.982C16.5557 19.982 17.0075 20.4285 17.0075 20.9776C17.0075 21.5266 16.5557 21.9731 16.0001 21.9731C15.4445 21.9731 14.9927 21.5266 14.9927 20.9776C14.9927 20.4285 15.4445 19.982 16.0001 19.982ZM5.92588 24.4621C5.64783 24.4621 5.42217 24.6851 5.42217 24.9599V25.9555C5.42217 26.2303 5.64783 26.4533 5.92588 26.4533C6.20393 26.4533 6.42959 26.2303 6.42959 25.9555V24.9599C6.42959 24.6851 6.20393 24.4621 5.92588 24.4621ZM8.44443 24.4621C8.16638 24.4621 7.94072 24.6851 7.94072 24.9599V25.9555C7.94072 26.2303 8.16638 26.4533 8.44443 26.4533C8.72248 26.4533 8.94814 26.2303 8.94814 25.9555V24.9599C8.94814 24.6851 8.72248 24.4621 8.44443 24.4621ZM10.963 24.4621C10.6849 24.4621 10.4593 24.6851 10.4593 24.9599V25.9555C10.4593 26.2303 10.6849 26.4533 10.963 26.4533C11.241 26.4533 11.4667 26.2303 11.4667 25.9555V24.9599C11.4667 24.6851 11.241 24.4621 10.963 24.4621ZM13.4815 24.4621C13.2035 24.4621 12.9778 24.6851 12.9778 24.9599V25.9555C12.9778 26.2303 13.2035 26.4533 13.4815 26.4533C13.7596 26.4533 13.9852 26.2303 13.9852 25.9555V24.9599C13.9852 24.6851 13.7596 24.4621 13.4815 24.4621ZM16.0001 24.4621C15.722 24.4621 15.4964 24.6851 15.4964 24.9599V25.9555C15.4964 26.2303 15.722 26.4533 16.0001 26.4533C16.2781 26.4533 16.5038 26.2303 16.5038 25.9555V24.9599C16.5038 24.6851 16.2781 24.4621 16.0001 24.4621ZM18.5186 24.4621C18.2406 24.4621 18.0149 24.6851 18.0149 24.9599V25.9555C18.0149 26.2303 18.2406 26.4533 18.5186 26.4533C18.7967 26.4533 19.0224 26.2303 19.0224 25.9555V24.9599C19.0224 24.6851 18.7967 24.4621 18.5186 24.4621ZM21.0372 24.4621C20.7591 24.4621 20.5335 24.6851 20.5335 24.9599V25.9555C20.5335 26.2303 20.7591 26.4533 21.0372 26.4533C21.3152 26.4533 21.5409 26.2303 21.5409 25.9555V24.9599C21.5409 24.6851 21.3152 24.4621 21.0372 24.4621ZM23.5557 24.4621C23.2777 24.4621 23.052 24.6851 23.052 24.9599V25.9555C23.052 26.2303 23.2777 26.4533 23.5557 26.4533C23.8338 26.4533 24.0595 26.2303 24.0595 25.9555V24.9599C24.0595 24.6851 23.8338 24.4621 23.5557 24.4621ZM26.0743 24.4621C25.7963 24.4621 25.5706 24.6851 25.5706 24.9599V25.9555C25.5706 26.2303 25.7963 26.4533 26.0743 26.4533C26.3524 26.4533 26.578 26.2303 26.578 25.9555V24.9599C26.578 24.6851 26.3524 24.4621 26.0743 24.4621Z" fill="#DFB044"/>
</svg>
