<svg width="32" height="32" viewBox="0 0 32 32" fill="none" xmlns="http://www.w3.org/2000/svg">
<path d="M6.33789 3C5.60938 3 4.98828 3.52148 4.86328 4.23828L2.03711 20.2422C2.01172 20.3848 2 20.5312 2 20.6758V27.5C2 28.3262 2.67383 29 3.5 29H28.5C29.3262 29 30 28.3262 30 27.5V20.6758C30 20.5312 29.9883 20.3848 29.9609 20.2402L27.1387 4.23828C27.0117 3.52148 26.3906 3 25.6621 3H6.33789ZM6.33789 4H25.6621C25.9043 4 26.1113 4.17383 26.1543 4.41406L28.9043 20H3.0957L5.8457 4.41406C5.88867 4.17383 6.0957 4 6.33789 4ZM16 7C14.3457 7 13 8.3457 13 10V11.25C13 11.6895 13.0938 12.1055 13.2656 12.4805C11.6406 13.2402 10.3691 14.8398 10.0098 16.7852C9.95898 17.0547 10.1348 17.3145 10.4102 17.3691C10.6797 17.416 10.9395 17.2402 10.9902 16.9648C11.3047 15.2852 12.4258 13.916 13.8301 13.3203C14.3809 13.8945 15.1504 14.25 16 14.25C16.8496 14.25 17.6191 13.8945 18.1699 13.3203C19.5742 13.916 20.6953 15.2852 21.0098 16.9688C21.0547 17.209 21.2656 17.375 21.5 17.375C21.5293 17.375 21.5605 17.375 21.5898 17.3691C21.8652 17.3203 22.041 17.0547 21.9902 16.7852C21.6309 14.8398 20.3594 13.2402 18.7344 12.4805C18.9062 12.1055 19 11.6895 19 11.25V10C19 8.3457 17.6543 7 16 7ZM16 8C17.1055 8 18 8.89453 18 10V11.25C18 11.5703 17.9258 11.8691 17.7852 12.1406C17.6055 12.5156 17.3047 12.8203 16.9355 13.0156C16.6543 13.1641 16.3398 13.25 16 13.25C15.6602 13.25 15.3457 13.1641 15.0645 13.0156C14.6953 12.8203 14.3945 12.5156 14.2148 12.1406C14.0742 11.8691 14 11.5703 14 11.25V10C14 8.89453 14.8945 8 16 8ZM3 21H29V27.5C29 27.7754 28.7754 28 28.5 28H3.5C3.22461 28 3 27.7754 3 27.5V21ZM25.5 23C24.6738 23 24 23.6738 24 24.5C24 25.3262 24.6738 26 25.5 26C26.3262 26 27 25.3262 27 24.5C27 23.6738 26.3262 23 25.5 23ZM5.5 23.5C5.22266 23.5 5 23.7227 5 24V25.5C5 25.7773 5.22266 26 5.5 26H20.5C20.7773 26 21 25.7773 21 25.5V24C21 23.7227 20.7773 23.5 20.5 23.5C20.2227 23.5 20 23.7227 20 24V25H18.5V24C18.5 23.7227 18.2773 23.5 18 23.5C17.7227 23.5 17.5 23.7227 17.5 24V25H16V24C16 23.7227 15.7773 23.5 15.5 23.5C15.2227 23.5 15 23.7227 15 24V25H13.5V24C13.5 23.7227 13.2773 23.5 13 23.5C12.7227 23.5 12.5 23.7227 12.5 24V25H11V24C11 23.7227 10.7773 23.5 10.5 23.5C10.2227 23.5 10 23.7227 10 24V25H8.5V24C8.5 23.7227 8.27734 23.5 8 23.5C7.72266 23.5 7.5 23.7227 7.5 24V25H6V24C6 23.7227 5.77734 23.5 5.5 23.5ZM25.5 23.9004C25.8301 23.9004 26.0996 24.1699 26.0996 24.5C26.0996 24.8301 25.8301 25.0996 25.5 25.0996C25.1699 25.0996 24.9004 24.8301 24.9004 24.5C24.9004 24.1699 25.1699 23.9004 25.5 23.9004Z" fill="#DFB044"/>
</svg>
