<svg width="32" height="32" viewBox="0 0 32 32" fill="none" xmlns="http://www.w3.org/2000/svg">
<path d="M7.42773 3C6.66406 3 5.97852 3.42383 5.63867 4.10547L3.26367 8.85352C3.0918 9.19922 3 9.58594 3 9.9707V15C3 15.5996 3.27148 16.1328 3.69141 16.5C3.27148 16.8672 3 17.4004 3 18V21C3 21.5996 3.27148 22.1328 3.69141 22.5C3.27148 22.8672 3 23.4004 3 24V27C3 28.1035 3.89648 29 5 29H27C28.1035 29 29 28.1035 29 27V24C29 23.4004 28.7285 22.8672 28.3086 22.5C28.7285 22.1328 29 21.5996 29 21V18C29 17.4004 28.7285 16.8672 28.3086 16.5C28.7285 16.1328 29 15.5996 29 15V9.9707C29 9.58594 28.9082 9.19922 28.7363 8.85352L26.3613 4.10547C26.0215 3.42383 25.3359 3 24.5723 3H7.42773ZM7.42773 4H24.5723C24.9531 4 25.2969 4.21289 25.4668 4.55273L27.8418 9.30078C27.9453 9.50781 28 9.74023 28 9.9707V10H4V9.9707C4 9.74023 4.05469 9.50781 4.1582 9.30078L6.53125 4.55273C6.70312 4.21289 7.04492 4 7.42773 4ZM7.5 5C7.22266 5 7 5.22266 7 5.5C7 5.77734 7.22266 6 7.5 6H20.5C20.7773 6 21 5.77734 21 5.5C21 5.22266 20.7773 5 20.5 5H7.5ZM22.5 5C22.2227 5 22 5.22266 22 5.5C22 5.77734 22.2227 6 22.5 6H24.5C24.7773 6 25 5.77734 25 5.5C25 5.22266 24.7773 5 24.5 5H22.5ZM4 11H28V15C28 15.5508 27.5508 16 27 16H5C4.44922 16 4 15.5508 4 15V11ZM24.5 12C23.6738 12 23 12.6738 23 13.5C23 14.3262 23.6738 15 24.5 15C25.3262 15 26 14.3262 26 13.5C26 12.6738 25.3262 12 24.5 12ZM6.5 12.5C6.22266 12.5 6 12.7227 6 13V14C6 14.2773 6.22266 14.5 6.5 14.5C6.77734 14.5 7 14.2773 7 14V13C7 12.7227 6.77734 12.5 6.5 12.5ZM9 12.5C8.72266 12.5 8.5 12.7227 8.5 13V14C8.5 14.2773 8.72266 14.5 9 14.5C9.27734 14.5 9.5 14.2773 9.5 14V13C9.5 12.7227 9.27734 12.5 9 12.5ZM11.5 12.5C11.2227 12.5 11 12.7227 11 13V14C11 14.2773 11.2227 14.5 11.5 14.5C11.7773 14.5 12 14.2773 12 14V13C12 12.7227 11.7773 12.5 11.5 12.5ZM14 12.5C13.7227 12.5 13.5 12.7227 13.5 13V14C13.5 14.2773 13.7227 14.5 14 14.5C14.2773 14.5 14.5 14.2773 14.5 14V13C14.5 12.7227 14.2773 12.5 14 12.5ZM16.5 12.5C16.2227 12.5 16 12.7227 16 13V14C16 14.2773 16.2227 14.5 16.5 14.5C16.7773 14.5 17 14.2773 17 14V13C17 12.7227 16.7773 12.5 16.5 12.5ZM24.5 12.8965C24.834 12.8965 25.1035 13.168 25.1035 13.5C25.1035 13.834 24.832 14.1035 24.5 14.1035C24.168 14.1035 23.8965 13.834 23.8965 13.5C23.8965 13.166 24.166 12.8965 24.5 12.8965ZM18.5 13C18.2227 13 18 13.2227 18 13.5C18 13.7773 18.2227 14 18.5 14H21.5C21.7773 14 22 13.7773 22 13.5C22 13.2227 21.7773 13 21.5 13H18.5ZM5 17H27C27.5508 17 28 17.4492 28 18V21C28 21.5508 27.5508 22 27 22H5C4.44922 22 4 21.5508 4 21V18C4 17.4492 4.44922 17 5 17ZM24.5 18C23.6738 18 23 18.6738 23 19.5C23 20.3262 23.6738 21 24.5 21C25.3262 21 26 20.3262 26 19.5C26 18.6738 25.3262 18 24.5 18ZM6.5 18.5C6.22266 18.5 6 18.7227 6 19V20C6 20.2773 6.22266 20.5 6.5 20.5C6.77734 20.5 7 20.2773 7 20V19C7 18.7227 6.77734 18.5 6.5 18.5ZM9 18.5C8.72266 18.5 8.5 18.7227 8.5 19V20C8.5 20.2773 8.72266 20.5 9 20.5C9.27734 20.5 9.5 20.2773 9.5 20V19C9.5 18.7227 9.27734 18.5 9 18.5ZM11.5 18.5C11.2227 18.5 11 18.7227 11 19V20C11 20.2773 11.2227 20.5 11.5 20.5C11.7773 20.5 12 20.2773 12 20V19C12 18.7227 11.7773 18.5 11.5 18.5ZM14 18.5C13.7227 18.5 13.5 18.7227 13.5 19V20C13.5 20.2773 13.7227 20.5 14 20.5C14.2773 20.5 14.5 20.2773 14.5 20V19C14.5 18.7227 14.2773 18.5 14 18.5ZM16.5 18.5C16.2227 18.5 16 18.7227 16 19V20C16 20.2773 16.2227 20.5 16.5 20.5C16.7773 20.5 17 20.2773 17 20V19C17 18.7227 16.7773 18.5 16.5 18.5ZM24.5 18.8965C24.832 18.8965 25.1035 19.168 25.1035 19.5C25.1035 19.834 24.834 20.1035 24.5 20.1035C24.166 20.1035 23.8965 19.832 23.8965 19.5C23.8965 19.166 24.168 18.8965 24.5 18.8965ZM18.5 19C18.2227 19 18 19.2227 18 19.5C18 19.7773 18.2227 20 18.5 20H21.5C21.7773 20 22 19.7773 22 19.5C22 19.2227 21.7773 19 21.5 19H18.5ZM5 23H27C27.5508 23 28 23.4492 28 24V27C28 27.5508 27.5508 28 27 28H5C4.44922 28 4 27.5508 4 27V24C4 23.4492 4.44922 23 5 23ZM24.5 24C23.6738 24 23 24.6738 23 25.5C23 26.3262 23.6738 27 24.5 27C25.3262 27 26 26.3262 26 25.5C26 24.6738 25.3262 24 24.5 24ZM6.5 24.5C6.22266 24.5 6 24.7227 6 25V26C6 26.2773 6.22266 26.5 6.5 26.5C6.77734 26.5 7 26.2773 7 26V25C7 24.7227 6.77734 24.5 6.5 24.5ZM9 24.5C8.72266 24.5 8.5 24.7227 8.5 25V26C8.5 26.2773 8.72266 26.5 9 26.5C9.27734 26.5 9.5 26.2773 9.5 26V25C9.5 24.7227 9.27734 24.5 9 24.5ZM11.5 24.5C11.2227 24.5 11 24.7227 11 25V26C11 26.2773 11.2227 26.5 11.5 26.5C11.7773 26.5 12 26.2773 12 26V25C12 24.7227 11.7773 24.5 11.5 24.5ZM14 24.5C13.7227 24.5 13.5 24.7227 13.5 25V26C13.5 26.2773 13.7227 26.5 14 26.5C14.2773 26.5 14.5 26.2773 14.5 26V25C14.5 24.7227 14.2773 24.5 14 24.5ZM16.5 24.5C16.2227 24.5 16 24.7227 16 25V26C16 26.2773 16.2227 26.5 16.5 26.5C16.7773 26.5 17 26.2773 17 26V25C17 24.7227 16.7773 24.5 16.5 24.5ZM24.5 24.875C24.8457 24.875 25.125 25.1543 25.125 25.5C25.125 25.8457 24.8457 26.125 24.5 26.125C24.1543 26.125 23.875 25.8457 23.875 25.5C23.875 25.1543 24.1543 24.875 24.5 24.875ZM18.5 25C18.2227 25 18 25.2227 18 25.5C18 25.7773 18.2227 26 18.5 26H21.5C21.7773 26 22 25.7773 22 25.5C22 25.2227 21.7773 25 21.5 25H18.5Z" fill="#DFB044"/>
</svg>
