<svg width="32" height="32" viewBox="0 0 32 32" fill="none" xmlns="http://www.w3.org/2000/svg">
<path d="M19.5588 20.8891H20.4476V21.7778H19.5588V20.8891Z" fill="#DFB044"/>
<path d="M21.3363 20.8891H22.225V21.7778H21.3363V20.8891Z" fill="#DFB044"/>
<path d="M23.1138 20.8891H24.0025V21.7778H23.1138V20.8891Z" fill="#DFB044"/>
<path d="M19.5588 17.3338H20.4476V18.2226H19.5588V17.3338Z" fill="#DFB044"/>
<path d="M21.3363 17.3338H22.225V18.2226H21.3363V17.3338Z" fill="#DFB044"/>
<path d="M23.1138 17.3338H24.0025V18.2226H23.1138V17.3338Z" fill="#DFB044"/>
<path d="M19.5588 13.7785H20.4476V14.6672H19.5588V13.7785Z" fill="#DFB044"/>
<path d="M21.3363 13.7785H22.225V14.6672H21.3363V13.7785Z" fill="#DFB044"/>
<path d="M23.1138 13.7785H24.0025V14.6672H23.1138V13.7785Z" fill="#DFB044"/>
<path d="M19.5588 10.2231H20.4476V11.1119H19.5588V10.2231Z" fill="#DFB044"/>
<path d="M21.3363 10.2231H22.225V11.1119H21.3363V10.2231Z" fill="#DFB044"/>
<path d="M23.1138 10.2231H24.0025V11.1119H23.1138V10.2231Z" fill="#DFB044"/>
<path d="M24.8912 20.8891H28.4462V21.7778H24.8912V20.8891Z" fill="#DFB044"/>
<path d="M24.8912 17.3338H28.4462V18.2226H24.8912V17.3338Z" fill="#DFB044"/>
<path d="M24.8912 13.7785H28.4462V14.6672H24.8912V13.7785Z" fill="#DFB044"/>
<path d="M28.0462 8.44575C24.4144 2.65334 17.1754 0.265245 10.8106 2.75989C4.44557 5.25453 0.756522 11.9258 2.02692 18.6437C3.29711 25.3616 9.16764 30.2246 16.0037 30.2222C20.8929 30.2053 25.4342 27.6909 28.0436 23.556H30.2235V8.44575H28.0462ZM26.9845 8.44575H17.7812V17.4114L15.4261 16.7382L14.2262 14.3406V12.881L15.2875 12.0321L16.3882 7.62982L18.1186 6.66808H22.1179L24.2185 5.50104L24.2122 5.48998C25.2814 6.32847 26.2166 7.32515 26.9856 8.44575H26.9845ZM2.67265 16.0009C2.67048 12.7189 3.88338 9.55267 6.07788 7.11249H7.85536L9.33818 8.22354V11.6606L8.57485 12.9971L6.81192 13.8784L5.78323 15.4232V18.0177L8.5384 19.8539L9.09083 21.1427L8.74062 22.3672L6.5587 23.556H5.02793C3.49173 21.3363 2.67004 18.7003 2.67265 16.0009ZM16.0037 29.3334C14.0867 29.3345 12.1923 28.9196 10.4515 28.1171L12.1276 27.1113H15.1937L18.6113 25.8297L21.8339 27.9784C20.0187 28.8673 18.0249 29.3306 16.0037 29.3334ZM22.7209 27.5002L18.7268 24.8378L15.0347 26.2225H11.8796L9.5519 27.6193L9.59334 27.6877C8.09946 26.8644 6.77611 25.7637 5.69448 24.4448H6.78393L9.49115 22.9685L10.0297 21.0819L9.249 19.2598L6.67197 17.5407V15.6899L7.42075 14.5667L9.21298 13.6703L10.2269 11.8971V7.77912L8.15305 6.22366H6.95338C11.4817 2.02512 18.3002 1.48609 23.4319 4.921L21.8877 5.77924H17.8884L15.6194 7.03958L14.4983 11.5256L13.3375 12.4544V14.5502L14.804 17.4858L17.7812 18.3362V23.556H26.9877C25.8716 25.1676 24.415 26.5141 22.7209 27.5002ZM29.3348 22.6671H18.6699V20.0006H29.3348V22.6671ZM29.3348 19.1118H18.6699V16.4453H29.3348V19.1118ZM29.3348 15.5564H18.6699V12.8899H29.3348V15.5564ZM29.3348 12.0011H18.6699V9.33458H29.3348V12.0011Z" fill="#DFB044"/>
<path d="M24.8912 10.2231H28.4462V11.1119H24.8912V10.2231Z" fill="#DFB044"/>
</svg>
