<svg width="28" height="28" viewBox="0 0 28 28" fill="none" xmlns="http://www.w3.org/2000/svg">
<path d="M20.2997 25.6667C15.5365 25.6605 10.9702 23.7656 7.60214 20.3975C4.23408 17.0295 2.33918 12.4632 2.33301 7.7C2.33301 6.27667 2.89842 4.91164 3.90487 3.90519C4.91131 2.89875 6.27635 2.33333 7.69967 2.33333C8.00107 2.33104 8.30197 2.35839 8.59801 2.415C8.8842 2.45735 9.16555 2.52769 9.43801 2.625C9.62963 2.69223 9.80039 2.80832 9.93339 2.96178C10.0664 3.11524 10.157 3.30077 10.1963 3.5L11.7947 10.5C11.8378 10.69 11.8326 10.8878 11.7796 11.0753C11.7266 11.2627 11.6275 11.434 11.4913 11.5733C11.3397 11.7367 11.328 11.7483 9.89301 12.495C11.0422 15.016 13.0584 17.0405 15.5747 18.2C16.333 16.7533 16.3447 16.7417 16.508 16.59C16.6474 16.4538 16.8186 16.3547 17.0061 16.3018C17.1936 16.2488 17.3913 16.2436 17.5813 16.2867L24.5813 17.885C24.7742 17.9297 24.9525 18.0228 25.0994 18.1555C25.2464 18.2882 25.3572 18.456 25.4213 18.6433C25.5198 18.9202 25.594 19.2052 25.643 19.495C25.69 19.7882 25.7134 20.0847 25.713 20.3817C25.6915 21.7989 25.1102 23.1501 24.096 24.1403C23.0818 25.1304 21.717 25.6792 20.2997 25.6667ZM7.69967 4.66666C6.89613 4.66974 6.12637 4.99031 5.55818 5.5585C4.98998 6.1267 4.66941 6.89645 4.66634 7.7C4.66943 11.8453 6.3175 15.8199 9.24865 18.751C12.1798 21.6822 16.1544 23.3302 20.2997 23.3333C21.1032 23.3303 21.873 23.0097 22.4412 22.4415C23.0094 21.8733 23.3299 21.1035 23.333 20.3V19.915L17.9197 18.6667L17.5813 19.3083C17.0563 20.3233 16.6713 21.0583 15.6913 20.6617C13.758 19.9697 12.0032 18.8557 10.5542 17.4007C9.10524 15.9457 7.9986 14.1862 7.31467 12.25C6.89467 11.34 7.68801 10.92 8.69134 10.395L9.33301 10.08L8.08467 4.66666H7.69967Z" fill="#2333A4"/>
</svg>
