<svg width="28" height="28" viewBox="0 0 28 28" fill="none" xmlns="http://www.w3.org/2000/svg">
<path d="M17.6627 13.7812C17.1956 13.4813 16.6886 13.2485 16.1566 13.0897C15.8302 12.991 15.4688 12.8944 15.0944 12.8014C14.7688 12.7106 14.3812 12.6174 13.9019 12.512C13.331 12.3924 12.7708 12.2271 12.2265 12.0176C11.9461 11.9085 11.6986 11.7287 11.5082 11.4958C11.3692 11.3053 11.3033 11.0711 11.3225 10.8361C11.3218 10.584 11.4057 10.3389 11.5606 10.14C11.7779 9.88505 12.0599 9.69338 12.3769 9.58511C12.9109 9.4017 13.4736 9.3164 14.038 9.33333C14.474 9.32635 14.9086 9.38394 15.3277 9.50423C15.606 9.58214 15.8682 9.70908 16.1019 9.87907C16.2529 9.98671 16.3817 10.1225 16.4813 10.279C16.5535 10.4144 16.6518 10.5341 16.7705 10.6315C16.8892 10.7288 17.0259 10.8017 17.1728 10.8461C17.3197 10.8905 17.4739 10.9054 17.6266 10.8901C17.7793 10.8748 17.9275 10.8294 18.0627 10.7567C18.1978 10.684 18.3173 10.5854 18.4142 10.4664C18.5112 10.3474 18.5837 10.2105 18.6276 10.0634C18.6715 9.91636 18.686 9.76209 18.6702 9.60944C18.6544 9.45678 18.6086 9.30875 18.5355 9.17383C18.2893 8.73863 17.9569 8.3583 17.5585 8.05616C17.0985 7.70279 16.5767 7.43813 16.0199 7.27572C15.3767 7.08555 14.7087 6.99262 14.038 7C13.1858 6.98189 12.3376 7.12053 11.5355 7.40902C10.8098 7.67244 10.1721 8.13333 9.69431 8.73975C9.23707 9.34301 8.98943 10.0791 8.98907 10.8361C8.97017 11.5897 9.2089 12.3272 9.66583 12.9268C10.1069 13.4824 10.6851 13.9135 11.3435 14.1777C11.841 14.3691 12.3504 14.5281 12.8684 14.6536C12.8782 14.6568 12.8847 14.6647 12.8947 14.6676C13.118 14.7348 13.4752 14.8248 13.9913 14.9365C14.1924 14.9797 14.3819 15.0274 14.5713 15.0747C14.5896 15.0802 14.6162 15.086 14.6339 15.0915L14.6549 15.0946C14.9447 15.1685 15.2232 15.2448 15.4781 15.3227C15.7922 15.4144 16.0921 15.5494 16.369 15.7238C16.5413 15.8323 16.686 15.9793 16.7917 16.1533C16.8946 16.3655 16.9422 16.6003 16.9302 16.8358C16.9465 17.1407 16.8585 17.4421 16.6806 17.6903C16.4403 18.0028 16.1153 18.2397 15.7441 18.3728C15.1916 18.586 14.6019 18.6859 14.0101 18.6667C13.3251 18.6932 12.6436 18.5557 12.0225 18.2656C11.7359 18.1129 11.4897 17.8942 11.3042 17.6276C11.1741 17.4569 11.0928 17.2541 11.0689 17.0409C11.0689 16.7314 10.946 16.4347 10.7272 16.2159C10.5084 15.9971 10.2117 15.8742 9.90223 15.8742C9.59281 15.8742 9.29607 15.9971 9.07727 16.2159C8.85848 16.4347 8.73557 16.7314 8.73557 17.0409C8.75513 17.7288 8.98121 18.3949 9.38442 18.9526C9.78743 19.5334 10.3244 20.0086 10.9498 20.3381C11.9015 20.8026 12.9515 21.0297 14.0101 21C14.9095 21.0216 15.804 20.8608 16.6396 20.5272C17.4163 20.2293 18.0907 19.7139 18.5821 19.0426C19.0491 18.3881 19.2883 17.5984 19.2629 16.7948C19.2738 16.1718 19.123 15.5567 18.8254 15.0094C18.538 14.5156 18.1401 14.0952 17.6627 13.7812ZM26.0886 15.9733C26.4035 14.0557 26.2573 12.0906 25.662 10.2406C25.0668 8.39071 24.0396 6.70911 22.6654 5.33496C21.2913 3.9608 19.6097 2.9336 17.7597 2.33834C15.9098 1.74308 13.9447 1.59686 12.0271 1.91178C10.6115 1.23309 9.02009 1.01054 7.47261 1.27485C5.92513 1.53916 4.49785 2.2773 3.38776 3.38738C2.27768 4.49746 1.53954 5.92475 1.27523 7.47223C1.01092 9.01971 1.23347 10.6111 1.91216 12.0267C1.59724 13.9443 1.74346 15.9094 2.33872 17.7594C2.93399 19.6093 3.96119 21.2909 5.33534 22.665C6.70949 24.0392 8.39109 25.0664 10.241 25.6617C12.091 26.2569 14.056 26.4031 15.9737 26.0882C17.3893 26.7669 18.9807 26.9895 20.5282 26.7251C22.0756 26.4608 23.5029 25.7227 24.613 24.6126C25.7231 23.5025 26.4612 22.0753 26.7255 20.5278C26.9898 18.9803 26.7673 17.3889 26.0886 15.9733ZM19.2504 24.5C18.3654 24.4997 17.4948 24.2759 16.7194 23.8494C16.4787 23.7166 16.199 23.6726 15.9293 23.7253C14.4914 24.0121 13.0078 23.9762 11.5855 23.6202C10.1632 23.2642 8.83764 22.5969 7.70445 21.6665C6.57126 20.7362 5.65868 19.5659 5.03256 18.2402C4.40643 16.9144 4.08235 15.4662 4.08372 14C4.08492 13.352 4.14902 12.7056 4.27512 12.07C4.3278 11.8005 4.28404 11.521 4.15151 11.2805C3.60315 10.2843 3.39314 9.13687 3.55308 8.01099C3.71302 6.8851 4.23425 5.84159 5.03837 5.03747C5.84248 4.23335 6.88598 3.71211 8.01186 3.55216C9.13775 3.39221 10.2851 3.60221 11.2814 4.15056C11.5219 4.28379 11.8017 4.32777 12.0715 4.27474C13.5094 3.98793 14.993 4.02382 16.4153 4.37983C17.8376 4.73584 19.1631 5.40309 20.2963 6.33345C21.4295 7.26381 22.3421 8.43408 22.9682 9.75985C23.5943 11.0856 23.9184 12.5338 23.917 14C23.9158 14.648 23.8517 15.2944 23.7256 15.93C23.673 16.1996 23.7167 16.479 23.8493 16.7196C24.2895 17.5188 24.5137 18.419 24.4998 19.3314C24.486 20.2437 24.2345 21.1367 23.7702 21.9222C23.3059 22.7077 22.6448 23.3586 21.8522 23.8106C21.0596 24.2627 20.1628 24.5003 19.2504 24.5Z" fill="#2333A4"/>
</svg>
