<svg width="28" height="28" viewBox="0 0 28 28" fill="none" xmlns="http://www.w3.org/2000/svg">
<path d="M25.6663 14C25.6663 12.4679 25.3646 10.9508 24.7783 9.53536C24.192 8.1199 23.3326 6.83377 22.2493 5.75042C21.1659 4.66707 19.8798 3.80771 18.4643 3.22141C17.0489 2.6351 15.5318 2.33334 13.9997 2.33334C10.9055 2.33334 7.93802 3.5625 5.7501 5.75042C3.56217 7.93835 2.33301 10.9058 2.33301 14C2.33301 17.0942 3.56217 20.0617 5.7501 22.2496C7.93802 24.4375 10.9055 25.6667 13.9997 25.6667C17.0939 25.6667 20.0613 24.4375 22.2493 22.2496C24.4372 20.0617 25.6663 17.0942 25.6663 14ZM23.2513 12.8333H19.833C19.6406 10.0895 18.7005 7.45075 17.1147 5.20334C18.7439 5.78196 20.1804 6.80175 21.2639 8.14899C22.3475 9.49622 23.0355 11.1179 23.2513 12.8333ZM10.593 15.1667H17.4997C17.2011 18.049 15.9726 20.7559 13.9997 22.8783C12.0281 20.7648 10.8277 18.0475 10.593 15.1667ZM10.593 12.8333C10.8647 9.96547 12.0602 7.26334 13.9997 5.13334C15.9885 7.24048 17.2198 9.94938 17.4997 12.8333H10.593ZM11.013 5.16834C9.41882 7.4282 8.46361 10.0762 8.24801 12.8333H4.74801C4.9684 11.0968 5.67272 9.45715 6.78054 8.10177C7.88835 6.7464 9.35501 5.72989 11.013 5.16834ZM4.74801 15.1667H8.24801C8.44015 17.9215 9.38887 20.5698 10.9897 22.82C9.33765 22.2557 7.87699 21.2394 6.77365 19.8865C5.67032 18.5336 4.96853 16.8984 4.74801 15.1667ZM17.0563 22.8083C18.6528 20.5575 19.6121 17.9174 19.833 15.1667H23.2747C23.054 16.8936 22.3548 18.5244 21.2559 19.8748C20.1571 21.2252 18.7024 22.2413 17.0563 22.8083Z" fill="#2333A4"/>
</svg>
