<svg width="20" height="20" viewBox="0 0 20 20" fill="none" xmlns="http://www.w3.org/2000/svg">
<path d="M14.6818 4.97333L15.8926 3.7625L17.071 4.94083L15.8601 6.15167C17.0566 7.64931 17.6342 9.54823 17.4744 11.4584C17.3145 13.3687 16.4293 15.1452 15.0005 16.4231C13.5718 17.701 11.7079 18.3834 9.79178 18.3301C7.87564 18.2767 6.05264 17.4917 4.69719 16.1363C3.34174 14.7808 2.55674 12.9578 2.5034 11.0417C2.45005 9.12553 3.13242 7.26168 4.41036 5.83293C5.6883 4.40417 7.46481 3.51896 9.37502 3.3591C11.2852 3.19924 13.1842 3.77686 14.6818 4.97333ZM10.0001 16.6667C10.7662 16.6667 11.5247 16.5158 12.2325 16.2226C12.9402 15.9295 13.5832 15.4998 14.1249 14.9581C14.6666 14.4164 15.0963 13.7734 15.3894 13.0657C15.6826 12.3579 15.8335 11.5994 15.8335 10.8333C15.8335 10.0673 15.6826 9.30875 15.3894 8.60101C15.0963 7.89328 14.6666 7.25022 14.1249 6.70854C13.5832 6.16687 12.9402 5.73719 12.2325 5.44404C11.5247 5.15088 10.7662 5 10.0001 5C8.45303 5 6.9693 5.61458 5.87534 6.70854C4.78138 7.80251 4.1668 9.28624 4.1668 10.8333C4.1668 12.3804 4.78138 13.8642 5.87534 14.9581C6.9693 16.0521 8.45303 16.6667 10.0001 16.6667ZM9.1668 6.66667H10.8335V11.6667H9.1668V6.66667ZM6.6668 0.833334H13.3335V2.5H6.6668V0.833334Z" fill="#00C063"/>
</svg>
