<svg width="20" height="20" viewBox="0 0 20 20" fill="none" xmlns="http://www.w3.org/2000/svg">
<path d="M10.0144 0C4.49691 0 0.0244141 4.4725 0.0244141 9.98917C0.0244141 14.2217 2.65608 17.8367 6.37275 19.2908C6.28525 18.5 6.20691 17.2883 6.40691 16.425C6.58941 15.6442 7.57858 11.4608 7.57858 11.4608C7.57858 11.4608 7.27941 10.8608 7.27941 9.97667C7.27941 8.59083 8.08525 7.55083 9.08608 7.55083C9.93941 7.55083 10.3511 8.19167 10.3511 8.9575C10.3511 9.815 9.80691 11.0967 9.52441 12.2842C9.28691 13.2783 10.0244 14.0883 11.0036 14.0883C12.7769 14.0883 14.1436 12.2175 14.1436 9.51583C14.1436 7.13167 12.4244 5.45833 9.97025 5.45833C7.12858 5.45833 5.46275 7.59333 5.46275 9.79083C5.46275 10.6517 5.79108 11.5767 6.20358 12.075C6.28608 12.175 6.29691 12.2625 6.27441 12.3625C6.19941 12.675 6.03025 13.3617 5.99608 13.4983C5.95191 13.6858 5.85275 13.7242 5.66191 13.6358C4.41608 13.0608 3.63441 11.2375 3.63441 9.76417C3.63441 6.6175 5.92441 3.72083 10.2344 3.72083C13.6994 3.72083 16.3944 6.19333 16.3944 9.49C16.3944 12.9358 14.2219 15.7083 11.2002 15.7083C10.1886 15.7083 9.23858 15.1842 8.90191 14.5592L8.27775 16.9325C8.05358 17.8033 7.44108 18.8925 7.02941 19.5542C7.96525 19.8417 8.95108 20 9.98775 20C15.4936 20 19.9752 15.5292 19.9752 10.0108C19.9752 4.49167 15.4936 0.0216667 9.98775 0.0216667L10.0144 0Z" fill="white"/>
</svg>
