<svg width="20" height="20" viewBox="0 0 20 20" fill="none" xmlns="http://www.w3.org/2000/svg">
<g clip-path="url(#clip0)">
<path d="M19.9617 3.8075C19.2242 4.13167 18.4367 4.3525 17.6075 4.45334C18.4525 3.94417 19.1025 3.14167 19.41 2.18417C18.6175 2.64667 17.7392 2.98334 16.8042 3.17084C16.0575 2.37167 14.9933 1.87167 13.8117 1.87167C11.5475 1.87167 9.71167 3.7075 9.71167 5.96917C9.71167 6.29417 9.74917 6.60667 9.8175 6.90584C6.40917 6.745 3.38833 5.10834 1.36667 2.63417C1.01083 3.23584 0.811667 3.93501 0.811667 4.69667C0.811667 6.12167 1.53667 7.37417 2.635 8.11C1.9625 8.08834 1.33 7.90334 0.778333 7.59667V7.6475C0.778333 9.635 2.18917 11.2925 4.06667 11.67C3.7225 11.7625 3.35917 11.8125 2.98667 11.8125C2.725 11.8125 2.47417 11.7875 2.22333 11.7408C2.74917 13.3683 4.26083 14.555 6.06 14.5883C4.66 15.6875 2.88583 16.3425 0.975 16.3425C0.65 16.3425 0.325833 16.3233 0 16.2867C1.82417 17.4483 3.97333 18.1275 6.2975 18.1275C13.8425 18.1275 17.9633 11.8808 17.9633 6.4725C17.9633 6.29834 17.9633 6.1225 17.9508 5.9475C18.7517 5.37334 19.4508 4.64751 20.0008 3.82417L19.9617 3.8075Z" fill="white"/>
</g>
<defs>
<clipPath id="clip0">
<rect width="20" height="20" fill="white"/>
</clipPath>
</defs>
</svg>
