<svg width="20" height="20" viewBox="0 0 20 20" fill="none" xmlns="http://www.w3.org/2000/svg">
<path d="M9.49847 0.00162884C7.89431 0.0232955 4.44264 0.286629 2.51181 2.0558C1.07847 3.4808 0.57764 5.58163 0.519307 8.1833C0.469307 10.775 0.410974 15.6416 5.10264 16.9675V18.9841C5.10264 18.9841 5.07097 19.7925 5.60431 19.9591C6.26264 20.1675 6.63764 19.5433 7.26264 18.8766L8.42931 17.56C11.6376 17.8266 14.096 17.2108 14.3793 17.1191C15.0293 16.9108 18.6968 16.4433 19.2968 11.5758C19.9135 6.54996 18.9968 3.3833 17.3468 1.94996L17.3385 1.9483C16.8385 1.48996 14.8385 0.0316288 10.3635 0.0149622C10.3635 0.0149622 10.0335 -0.00587116 9.49847 0.00162884ZM9.55431 1.4158C10.0085 1.4133 10.2876 1.43246 10.2876 1.43246C14.071 1.4408 15.8801 2.58246 16.3051 2.9658C17.6968 4.15663 18.4118 7.01246 17.8885 11.2091C17.3885 15.2758 14.4135 15.5341 13.8635 15.7091C13.6301 15.7841 11.4635 16.3175 8.73681 16.1425C8.73681 16.1425 6.70431 18.5933 6.07097 19.2266C5.97097 19.335 5.85431 19.3683 5.77931 19.3516C5.67097 19.3266 5.63764 19.1933 5.64597 19.01L5.66264 15.6608C1.68681 14.5608 1.92014 10.4091 1.96181 8.24246C2.01181 6.0758 2.42014 4.29913 3.62847 3.09913C5.25931 1.62413 8.19097 1.42413 9.55347 1.4158H9.55431ZM9.85431 3.58246C9.82152 3.58235 9.78903 3.58872 9.7587 3.60119C9.72837 3.61366 9.70081 3.632 9.67758 3.65515C9.65436 3.67829 9.63593 3.7058 9.62335 3.73608C9.61078 3.76637 9.60431 3.79884 9.60431 3.83163C9.60431 3.89793 9.63065 3.96152 9.67753 4.00841C9.72441 4.05529 9.788 4.08163 9.85431 4.08163C10.4738 4.06981 11.0896 4.18081 11.666 4.40823C12.2424 4.63565 12.7681 4.97498 13.2126 5.40663C14.121 6.28996 14.5635 7.4733 14.5801 9.0233C14.5801 9.05613 14.5866 9.08864 14.5992 9.11897C14.6117 9.1493 14.6301 9.17686 14.6534 9.20007C14.6766 9.22329 14.7041 9.2417 14.7345 9.25426C14.7648 9.26683 14.7973 9.2733 14.8301 9.2733V9.2658C14.8964 9.2658 14.96 9.23946 15.0069 9.19257C15.0538 9.14569 15.0801 9.0821 15.0801 9.0158C15.1111 8.28687 14.9933 7.55927 14.734 6.87733C14.4746 6.19538 14.0792 5.57335 13.5718 5.04913C12.5801 4.08246 11.3285 3.58246 9.85347 3.58246H9.85431ZM6.55931 4.15746C6.38209 4.13221 6.20153 4.16744 6.04681 4.25746H6.03681C5.69514 4.45746 5.38014 4.70746 5.08014 5.0408C4.85514 5.30746 4.72931 5.5733 4.69597 5.83163C4.67637 5.98314 4.6906 6.13711 4.73764 6.28246L4.75431 6.2908C5.01116 7.04592 5.34632 7.77209 5.75431 8.45746C6.28315 9.41731 6.93289 10.3054 7.68764 11.1L7.71264 11.1333L7.74597 11.1583L7.77097 11.1833L7.79597 11.2083C8.59366 11.965 9.4841 12.6174 10.446 13.15C11.546 13.75 12.2143 14.0333 12.6143 14.15V14.1583C12.731 14.1916 12.8376 14.2083 12.946 14.2083C13.2874 14.1834 13.6107 14.0449 13.8643 13.815C14.1893 13.5233 14.4476 13.2 14.6393 12.8583V12.85C14.831 12.4916 14.7643 12.1491 14.4893 11.9158C13.9351 11.431 13.335 11.0012 12.6976 10.6325C12.2726 10.3991 11.8393 10.5408 11.6643 10.7741L11.2893 11.2483C11.0976 11.4816 10.7476 11.4483 10.7476 11.4483L10.7376 11.4566C8.13764 10.79 7.44597 8.15746 7.44597 8.15746C7.44597 8.15746 7.41264 7.79913 7.65431 7.6158L8.12097 7.2408C8.34597 7.05746 8.50431 6.62413 8.26264 6.19913C7.89443 5.56141 7.4646 4.96132 6.97931 4.40746C6.87374 4.27654 6.72472 4.18784 6.55931 4.15746ZM10.2868 4.89913C10.2205 4.89935 10.157 4.9259 10.1103 4.97294C10.0635 5.01998 10.0374 5.08366 10.0376 5.14996C10.0379 5.21627 10.0644 5.27977 10.1115 5.3265C10.1585 5.37322 10.2222 5.39935 10.2885 5.39913C11.1224 5.4136 11.9166 5.75825 12.4968 6.35746C12.7586 6.64622 12.9598 6.98452 13.0886 7.35237C13.2174 7.72021 13.2712 8.11015 13.2468 8.49913C13.247 8.56529 13.2735 8.62866 13.3203 8.67537C13.3672 8.72207 13.4306 8.7483 13.4968 8.7483L13.5051 8.7583C13.538 8.7583 13.5706 8.7518 13.601 8.73919C13.6314 8.72657 13.659 8.70808 13.6822 8.68478C13.7054 8.66148 13.7238 8.63382 13.7364 8.60339C13.7489 8.57296 13.7552 8.54036 13.7551 8.50746C13.7801 7.5158 13.4718 6.68246 12.8635 6.0158C12.2551 5.34913 11.4051 4.97413 10.3218 4.89913C10.3102 4.89831 10.2985 4.89831 10.2868 4.89913ZM10.6951 6.2483C10.6617 6.24731 10.6284 6.25292 10.5971 6.2648C10.5659 6.27669 10.5373 6.29461 10.5129 6.31756C10.4886 6.3405 10.469 6.36801 10.4553 6.39853C10.4416 6.42904 10.434 6.46195 10.4331 6.49538C10.4321 6.52881 10.4377 6.56211 10.4496 6.59338C10.4614 6.62464 10.4794 6.65326 10.5023 6.67759C10.5253 6.70193 10.5528 6.72151 10.5833 6.73521C10.6138 6.74892 10.6467 6.75648 10.6801 6.75746C11.5051 6.79913 11.9051 7.2158 11.9551 8.07413C11.9573 8.13898 11.9846 8.20045 12.0312 8.24554C12.0779 8.29064 12.1403 8.31583 12.2051 8.3158H12.2135C12.247 8.31475 12.2801 8.30695 12.3106 8.29286C12.3411 8.27878 12.3684 8.25869 12.391 8.2338C12.4135 8.20891 12.4308 8.17973 12.4418 8.148C12.4529 8.11627 12.4574 8.08264 12.4551 8.04913C12.3968 6.93246 11.7885 6.30663 10.7051 6.2483C10.7018 6.24823 10.6985 6.24823 10.6951 6.2483Z" fill="white"/>
</svg>
