<svg width="20" height="20" viewBox="0 0 20 20" fill="none" xmlns="http://www.w3.org/2000/svg">
<g clip-path="url(#clip0)">
<path d="M14.5604 11.985C14.3129 11.8609 13.0954 11.2625 12.8687 11.1792C12.6412 11.0967 12.4762 11.0559 12.3104 11.3042C12.1462 11.5517 11.6712 12.1092 11.527 12.2742C11.3829 12.44 11.2379 12.46 10.9904 12.3367C10.7429 12.2117 9.94452 11.9509 8.99868 11.1075C8.26285 10.4509 7.76535 9.64003 7.62118 9.3917C7.47702 9.1442 7.60618 9.01003 7.72952 8.8867C7.84118 8.77587 7.97785 8.59753 8.10118 8.45337C8.22535 8.30837 8.26618 8.20504 8.34952 8.0392C8.43202 7.8742 8.39118 7.73003 8.32868 7.60587C8.26618 7.4817 7.77118 6.26253 7.56535 5.7667C7.36368 5.2842 7.15952 5.35003 7.00785 5.3417C6.86369 5.33503 6.69868 5.33337 6.53285 5.33337C6.36785 5.33337 6.09952 5.39503 5.87285 5.64337C5.64618 5.89087 5.00618 6.49003 5.00618 7.7092C5.00618 8.92754 5.89368 10.105 6.01702 10.2709C6.14118 10.4359 7.76368 12.9375 10.2479 14.01C10.8387 14.265 11.2995 14.4175 11.6595 14.5309C12.2529 14.72 12.7929 14.6934 13.2187 14.6292C13.6945 14.5584 14.6837 14.03 14.8904 13.4517C15.097 12.8734 15.097 12.3775 15.0345 12.2742C14.9729 12.1709 14.8079 12.1092 14.5595 11.985H14.5604ZM10.042 18.1542H10.0387C8.56349 18.1543 7.11542 17.7577 5.84618 17.0059L5.54535 16.8275L2.42785 17.6459L3.25952 14.6059L3.06368 14.2942C2.23905 12.9811 1.8028 11.4614 1.80535 9.91087C1.80618 5.3692 5.50202 1.6742 10.0454 1.6742C12.2454 1.6742 14.3137 2.53253 15.8687 4.0892C16.6359 4.85305 17.244 5.76147 17.6579 6.7619C18.0717 7.76233 18.283 8.8349 18.2795 9.91753C18.277 14.4592 14.582 18.1542 10.042 18.1542ZM17.0529 2.9067C16.1347 1.98247 15.0422 1.24965 13.8388 0.750701C12.6353 0.251754 11.3448 -0.00339687 10.042 3.4148e-05C4.57952 3.4148e-05 0.133685 4.44587 0.131185 9.91004C0.131185 11.6567 0.587018 13.3617 1.45452 14.8642L0.0478516 20L5.30202 18.6217C6.75501 19.4133 8.38321 19.8282 10.0379 19.8284H10.042C15.5037 19.8284 19.9504 15.3825 19.9529 9.91753C19.9569 8.61526 19.7027 7.32512 19.2049 6.12173C18.7071 4.91834 17.9757 3.82559 17.0529 2.9067Z" fill="white"/>
</g>
<defs>
<clipPath id="clip0">
<rect width="20" height="20" fill="white"/>
</clipPath>
</defs>
</svg>
