<svg width="468" height="567" viewBox="0 0 468 567" fill="none" xmlns="http://www.w3.org/2000/svg">
<ellipse cx="4.10526" cy="20.5439" rx="4.10526" ry="4.10908" fill="#2333A4"/>
<ellipse cx="4.10526" cy="36.9786" rx="4.10526" ry="4.10908" fill="#2333A4"/>
<ellipse cx="53.3686" cy="4.10908" rx="4.10526" ry="4.10908" fill="#2333A4"/>
<ellipse cx="53.3686" cy="20.5439" rx="4.10526" ry="4.10908" fill="#2333A4"/>
<ellipse cx="53.3686" cy="36.9786" rx="4.10526" ry="4.10908" fill="#2333A4"/>
<ellipse cx="53.3686" cy="53.4135" rx="4.10526" ry="4.10908" fill="#2333A4"/>
<ellipse cx="53.3686" cy="69.8482" rx="4.10526" ry="4.10908" fill="#2333A4"/>
<ellipse cx="102.632" cy="4.10908" rx="4.10526" ry="4.10908" fill="#2333A4"/>
<ellipse cx="102.632" cy="20.5439" rx="4.10526" ry="4.10908" fill="#2333A4"/>
<ellipse cx="102.632" cy="36.9786" rx="4.10526" ry="4.10908" fill="#2333A4"/>
<ellipse cx="102.632" cy="53.4135" rx="4.10526" ry="4.10908" fill="#2333A4"/>
<ellipse cx="102.632" cy="69.8482" rx="4.10526" ry="4.10908" fill="#2333A4"/>
<ellipse cx="102.632" cy="86.2831" rx="4.10526" ry="4.10908" fill="#2333A4"/>
<ellipse cx="102.632" cy="102.718" rx="4.10526" ry="4.10908" fill="#2333A4"/>
<ellipse cx="102.632" cy="119.153" rx="4.10526" ry="4.10908" fill="#2333A4"/>
<ellipse cx="102.632" cy="135.587" rx="4.10526" ry="4.10908" fill="#2333A4"/>
<ellipse cx="102.632" cy="152.022" rx="4.10526" ry="4.10908" fill="#2333A4"/>
<ellipse cx="102.632" cy="168.457" rx="4.10526" ry="4.10908" fill="#2333A4"/>
<ellipse cx="151.895" cy="4.10908" rx="4.10526" ry="4.10908" fill="#2333A4"/>
<ellipse cx="151.895" cy="20.5439" rx="4.10526" ry="4.10908" fill="#2333A4"/>
<ellipse cx="151.895" cy="36.9786" rx="4.10526" ry="4.10908" fill="#2333A4"/>
<ellipse cx="151.895" cy="53.4135" rx="4.10526" ry="4.10908" fill="#2333A4"/>
<ellipse cx="151.895" cy="69.8482" rx="4.10526" ry="4.10908" fill="#2333A4"/>
<ellipse cx="151.895" cy="86.2831" rx="4.10526" ry="4.10908" fill="#2333A4"/>
<ellipse cx="151.895" cy="102.718" rx="4.10526" ry="4.10908" fill="#2333A4"/>
<ellipse cx="151.895" cy="119.153" rx="4.10526" ry="4.10908" fill="#2333A4"/>
<ellipse cx="151.895" cy="135.587" rx="4.10526" ry="4.10908" fill="#2333A4"/>
<ellipse cx="151.895" cy="152.022" rx="4.10526" ry="4.10908" fill="#2333A4"/>
<ellipse cx="151.895" cy="168.457" rx="4.10526" ry="4.10908" fill="#2333A4"/>
<ellipse cx="151.895" cy="184.892" rx="4.10526" ry="4.10908" fill="#2333A4"/>
<ellipse cx="151.895" cy="201.326" rx="4.10526" ry="4.10908" fill="#2333A4"/>
<ellipse cx="151.895" cy="217.761" rx="4.10526" ry="4.10908" fill="#2333A4"/>
<ellipse cx="151.895" cy="234.196" rx="4.10526" ry="4.10908" fill="#2333A4"/>
<ellipse cx="151.895" cy="250.631" rx="4.10526" ry="4.10908" fill="#2333A4"/>
<ellipse cx="201.158" cy="36.9786" rx="4.10526" ry="4.10908" fill="#2333A4"/>
<ellipse cx="201.158" cy="53.4135" rx="4.10526" ry="4.10908" fill="#2333A4"/>
<ellipse cx="201.158" cy="69.8482" rx="4.10526" ry="4.10908" fill="#2333A4"/>
<ellipse cx="201.158" cy="86.2831" rx="4.10526" ry="4.10908" fill="#2333A4"/>
<ellipse cx="201.158" cy="102.718" rx="4.10526" ry="4.10908" fill="#2333A4"/>
<ellipse cx="201.158" cy="119.153" rx="4.10526" ry="4.10908" fill="#2333A4"/>
<ellipse cx="201.158" cy="135.587" rx="4.10526" ry="4.10908" fill="#2333A4"/>
<ellipse cx="201.158" cy="152.022" rx="4.10526" ry="4.10908" fill="#2333A4"/>
<ellipse cx="201.158" cy="168.457" rx="4.10526" ry="4.10908" fill="#2333A4"/>
<ellipse cx="201.158" cy="184.892" rx="4.10526" ry="4.10908" fill="#2333A4"/>
<ellipse cx="201.158" cy="201.326" rx="4.10526" ry="4.10908" fill="#2333A4"/>
<ellipse cx="201.158" cy="217.761" rx="4.10526" ry="4.10908" fill="#2333A4"/>
<ellipse cx="201.158" cy="234.196" rx="4.10526" ry="4.10908" fill="#2333A4"/>
<ellipse cx="201.158" cy="250.631" rx="4.10526" ry="4.10908" fill="#2333A4"/>
<ellipse cx="201.158" cy="267.065" rx="4.10526" ry="4.10908" fill="#2333A4"/>
<ellipse cx="201.158" cy="283.5" rx="4.10526" ry="4.10908" fill="#2333A4"/>
<ellipse cx="201.158" cy="299.935" rx="4.10526" ry="4.10908" fill="#2333A4"/>
<ellipse cx="201.158" cy="316.37" rx="4.10526" ry="4.10908" fill="#2333A4"/>
<ellipse cx="201.158" cy="431.413" rx="4.10526" ry="4.10908" fill="#2333A4"/>
<ellipse cx="201.158" cy="447.848" rx="4.10526" ry="4.10908" fill="#2333A4"/>
<ellipse cx="201.158" cy="464.283" rx="4.10526" ry="4.10908" fill="#2333A4"/>
<ellipse cx="201.158" cy="480.718" rx="4.10526" ry="4.10908" fill="#2333A4"/>
<ellipse cx="201.158" cy="497.153" rx="4.10526" ry="4.10908" fill="#2333A4"/>
<ellipse cx="201.158" cy="513.587" rx="4.10526" ry="4.10908" fill="#2333A4"/>
<ellipse cx="201.158" cy="530.022" rx="4.10526" ry="4.10908" fill="#2333A4"/>
<ellipse cx="201.158" cy="546.457" rx="4.10526" ry="4.10908" fill="#2333A4"/>
<ellipse cx="201.158" cy="562.892" rx="4.10526" ry="4.10908" fill="#2333A4"/>
<ellipse cx="250.421" cy="69.8482" rx="4.10526" ry="4.10908" fill="#2333A4"/>
<ellipse cx="250.421" cy="86.2831" rx="4.10526" ry="4.10908" fill="#2333A4"/>
<ellipse cx="250.421" cy="102.718" rx="4.10526" ry="4.10908" fill="#2333A4"/>
<ellipse cx="250.421" cy="119.153" rx="4.10526" ry="4.10908" fill="#2333A4"/>
<ellipse cx="250.421" cy="135.587" rx="4.10526" ry="4.10908" fill="#2333A4"/>
<ellipse cx="250.421" cy="152.022" rx="4.10526" ry="4.10908" fill="#2333A4"/>
<ellipse cx="250.421" cy="168.457" rx="4.10526" ry="4.10908" fill="#2333A4"/>
<ellipse cx="250.421" cy="184.892" rx="4.10526" ry="4.10908" fill="#2333A4"/>
<ellipse cx="250.421" cy="201.326" rx="4.10526" ry="4.10908" fill="#2333A4"/>
<ellipse cx="250.421" cy="217.761" rx="4.10526" ry="4.10908" fill="#2333A4"/>
<ellipse cx="250.421" cy="234.196" rx="4.10526" ry="4.10908" fill="#2333A4"/>
<ellipse cx="250.421" cy="250.631" rx="4.10526" ry="4.10908" fill="#2333A4"/>
<ellipse cx="250.421" cy="267.065" rx="4.10526" ry="4.10908" fill="#2333A4"/>
<ellipse cx="250.421" cy="283.5" rx="4.10526" ry="4.10908" fill="#2333A4"/>
<ellipse cx="250.421" cy="299.935" rx="4.10526" ry="4.10908" fill="#2333A4"/>
<ellipse cx="250.421" cy="316.37" rx="4.10526" ry="4.10908" fill="#2333A4"/>
<ellipse cx="250.421" cy="332.805" rx="4.10526" ry="4.10908" fill="#2333A4"/>
<ellipse cx="250.421" cy="349.24" rx="4.10526" ry="4.10908" fill="#2333A4"/>
<ellipse cx="250.421" cy="365.674" rx="4.10526" ry="4.10908" fill="#2333A4"/>
<ellipse cx="250.421" cy="382.109" rx="4.10526" ry="4.10908" fill="#2333A4"/>
<ellipse cx="250.421" cy="398.544" rx="4.10526" ry="4.10908" fill="#2333A4"/>
<ellipse cx="250.421" cy="414.979" rx="4.10526" ry="4.10908" fill="#2333A4"/>
<ellipse cx="250.421" cy="431.413" rx="4.10526" ry="4.10908" fill="#2333A4"/>
<ellipse cx="250.421" cy="447.848" rx="4.10526" ry="4.10908" fill="#2333A4"/>
<ellipse cx="250.421" cy="464.283" rx="4.10526" ry="4.10908" fill="#2333A4"/>
<ellipse cx="250.421" cy="480.718" rx="4.10526" ry="4.10908" fill="#2333A4"/>
<ellipse cx="250.421" cy="497.153" rx="4.10526" ry="4.10908" fill="#2333A4"/>
<ellipse cx="250.421" cy="513.587" rx="4.10526" ry="4.10908" fill="#2333A4"/>
<ellipse cx="250.421" cy="530.022" rx="4.10526" ry="4.10908" fill="#2333A4"/>
<ellipse cx="250.421" cy="546.457" rx="4.10526" ry="4.10908" fill="#2333A4"/>
<ellipse cx="250.421" cy="562.892" rx="4.10526" ry="4.10908" fill="#2333A4"/>
<ellipse cx="299.684" cy="86.2831" rx="4.10526" ry="4.10908" fill="#2333A4"/>
<ellipse cx="299.684" cy="102.718" rx="4.10526" ry="4.10908" fill="#2333A4"/>
<ellipse cx="299.684" cy="119.153" rx="4.10526" ry="4.10908" fill="#2333A4"/>
<ellipse cx="299.684" cy="135.587" rx="4.10526" ry="4.10908" fill="#2333A4"/>
<ellipse cx="299.684" cy="152.022" rx="4.10526" ry="4.10908" fill="#2333A4"/>
<ellipse cx="299.684" cy="168.457" rx="4.10526" ry="4.10908" fill="#2333A4"/>
<ellipse cx="299.684" cy="184.892" rx="4.10526" ry="4.10908" fill="#2333A4"/>
<ellipse cx="299.684" cy="201.326" rx="4.10526" ry="4.10908" fill="#2333A4"/>
<ellipse cx="299.684" cy="217.761" rx="4.10526" ry="4.10908" fill="#2333A4"/>
<ellipse cx="299.684" cy="234.196" rx="4.10526" ry="4.10908" fill="#2333A4"/>
<ellipse cx="299.684" cy="250.631" rx="4.10526" ry="4.10908" fill="#2333A4"/>
<ellipse cx="299.684" cy="267.065" rx="4.10526" ry="4.10908" fill="#2333A4"/>
<ellipse cx="299.684" cy="283.5" rx="4.10526" ry="4.10908" fill="#2333A4"/>
<ellipse cx="299.684" cy="299.935" rx="4.10526" ry="4.10908" fill="#2333A4"/>
<ellipse cx="299.684" cy="316.37" rx="4.10526" ry="4.10908" fill="#2333A4"/>
<ellipse cx="299.684" cy="332.805" rx="4.10526" ry="4.10908" fill="#2333A4"/>
<ellipse cx="299.684" cy="349.24" rx="4.10526" ry="4.10908" fill="#2333A4"/>
<ellipse cx="299.684" cy="365.674" rx="4.10526" ry="4.10908" fill="#2333A4"/>
<ellipse cx="299.684" cy="382.109" rx="4.10526" ry="4.10908" fill="#2333A4"/>
<ellipse cx="299.684" cy="398.544" rx="4.10526" ry="4.10908" fill="#2333A4"/>
<ellipse cx="299.684" cy="414.979" rx="4.10526" ry="4.10908" fill="#2333A4"/>
<ellipse cx="299.684" cy="431.413" rx="4.10526" ry="4.10908" fill="#2333A4"/>
<ellipse cx="299.684" cy="447.848" rx="4.10526" ry="4.10908" fill="#2333A4"/>
<ellipse cx="299.684" cy="464.283" rx="4.10526" ry="4.10908" fill="#2333A4"/>
<ellipse cx="299.684" cy="480.718" rx="4.10526" ry="4.10908" fill="#2333A4"/>
<ellipse cx="348.948" cy="119.153" rx="4.10526" ry="4.10908" fill="#2333A4"/>
<ellipse cx="348.948" cy="135.587" rx="4.10526" ry="4.10908" fill="#2333A4"/>
<ellipse cx="348.948" cy="201.326" rx="4.10526" ry="4.10908" fill="#2333A4"/>
<ellipse cx="348.948" cy="217.761" rx="4.10526" ry="4.10908" fill="#2333A4"/>
<ellipse cx="348.948" cy="234.196" rx="4.10526" ry="4.10908" fill="#2333A4"/>
<ellipse cx="348.948" cy="250.631" rx="4.10526" ry="4.10908" fill="#2333A4"/>
<ellipse cx="348.948" cy="267.065" rx="4.10526" ry="4.10908" fill="#2333A4"/>
<ellipse cx="348.948" cy="283.5" rx="4.10526" ry="4.10908" fill="#2333A4"/>
<ellipse cx="348.948" cy="299.935" rx="4.10526" ry="4.10908" fill="#2333A4"/>
<ellipse cx="348.948" cy="316.37" rx="4.10526" ry="4.10908" fill="#2333A4"/>
<ellipse cx="348.948" cy="332.805" rx="4.10526" ry="4.10908" fill="#2333A4"/>
<ellipse cx="348.948" cy="349.24" rx="4.10526" ry="4.10908" fill="#2333A4"/>
<ellipse cx="348.948" cy="365.674" rx="4.10526" ry="4.10908" fill="#2333A4"/>
<ellipse cx="348.948" cy="382.109" rx="4.10526" ry="4.10908" fill="#2333A4"/>
<ellipse cx="348.948" cy="398.544" rx="4.10526" ry="4.10908" fill="#2333A4"/>
<ellipse cx="398.21" cy="299.935" rx="4.10526" ry="4.10908" fill="#2333A4"/>
<ellipse cx="398.21" cy="316.37" rx="4.10526" ry="4.10908" fill="#2333A4"/>
<ellipse cx="398.21" cy="332.805" rx="4.10526" ry="4.10908" fill="#2333A4"/>
<ellipse cx="398.21" cy="349.24" rx="4.10526" ry="4.10908" fill="#2333A4"/>
<ellipse cx="398.21" cy="365.674" rx="4.10526" ry="4.10908" fill="#2333A4"/>
<ellipse cx="398.21" cy="382.109" rx="4.10526" ry="4.10908" fill="#2333A4"/>
<ellipse cx="398.21" cy="398.544" rx="4.10526" ry="4.10908" fill="#2333A4"/>
<ellipse cx="447.474" cy="382.109" rx="4.10526" ry="4.10908" fill="#2333A4"/>
<ellipse cx="447.474" cy="398.544" rx="4.10526" ry="4.10908" fill="#2333A4"/>
<ellipse cx="20.5263" cy="20.5439" rx="4.10526" ry="4.10908" fill="#2333A4"/>
<ellipse cx="20.5263" cy="36.9786" rx="4.10526" ry="4.10908" fill="#2333A4"/>
<ellipse cx="69.7893" cy="20.5439" rx="4.10526" ry="4.10908" fill="#2333A4"/>
<ellipse cx="69.7893" cy="36.9786" rx="4.10526" ry="4.10908" fill="#2333A4"/>
<ellipse cx="69.7893" cy="53.4135" rx="4.10526" ry="4.10908" fill="#2333A4"/>
<ellipse cx="69.7893" cy="69.8482" rx="4.10526" ry="4.10908" fill="#2333A4"/>
<ellipse cx="69.7893" cy="86.2831" rx="4.10526" ry="4.10908" fill="#2333A4"/>
<ellipse cx="69.7893" cy="102.718" rx="4.10526" ry="4.10908" fill="#2333A4"/>
<ellipse cx="119.053" cy="4.10908" rx="4.10526" ry="4.10908" fill="#2333A4"/>
<ellipse cx="119.053" cy="20.5439" rx="4.10526" ry="4.10908" fill="#2333A4"/>
<ellipse cx="119.053" cy="36.9786" rx="4.10526" ry="4.10908" fill="#2333A4"/>
<ellipse cx="119.053" cy="53.4135" rx="4.10526" ry="4.10908" fill="#2333A4"/>
<ellipse cx="119.053" cy="69.8482" rx="4.10526" ry="4.10908" fill="#2333A4"/>
<ellipse cx="119.053" cy="86.2831" rx="4.10526" ry="4.10908" fill="#2333A4"/>
<ellipse cx="119.053" cy="102.718" rx="4.10526" ry="4.10908" fill="#2333A4"/>
<ellipse cx="119.053" cy="119.153" rx="4.10526" ry="4.10908" fill="#2333A4"/>
<ellipse cx="119.053" cy="135.587" rx="4.10526" ry="4.10908" fill="#2333A4"/>
<ellipse cx="119.053" cy="152.022" rx="4.10526" ry="4.10908" fill="#2333A4"/>
<ellipse cx="119.053" cy="168.457" rx="4.10526" ry="4.10908" fill="#2333A4"/>
<ellipse cx="119.053" cy="184.892" rx="4.10526" ry="4.10908" fill="#2333A4"/>
<ellipse cx="168.316" cy="20.5439" rx="4.10526" ry="4.10908" fill="#2333A4"/>
<ellipse cx="168.316" cy="36.9786" rx="4.10526" ry="4.10908" fill="#2333A4"/>
<ellipse cx="168.316" cy="53.4135" rx="4.10526" ry="4.10908" fill="#2333A4"/>
<ellipse cx="168.316" cy="69.8482" rx="4.10526" ry="4.10908" fill="#2333A4"/>
<ellipse cx="168.316" cy="86.2831" rx="4.10526" ry="4.10908" fill="#2333A4"/>
<ellipse cx="168.316" cy="102.718" rx="4.10526" ry="4.10908" fill="#2333A4"/>
<ellipse cx="168.316" cy="119.153" rx="4.10526" ry="4.10908" fill="#2333A4"/>
<ellipse cx="168.316" cy="135.587" rx="4.10526" ry="4.10908" fill="#2333A4"/>
<ellipse cx="168.316" cy="152.022" rx="4.10526" ry="4.10908" fill="#2333A4"/>
<ellipse cx="168.316" cy="168.457" rx="4.10526" ry="4.10908" fill="#2333A4"/>
<ellipse cx="168.316" cy="184.892" rx="4.10526" ry="4.10908" fill="#2333A4"/>
<ellipse cx="168.316" cy="201.326" rx="4.10526" ry="4.10908" fill="#2333A4"/>
<ellipse cx="168.316" cy="217.761" rx="4.10526" ry="4.10908" fill="#2333A4"/>
<ellipse cx="168.316" cy="234.196" rx="4.10526" ry="4.10908" fill="#2333A4"/>
<ellipse cx="168.316" cy="250.631" rx="4.10526" ry="4.10908" fill="#2333A4"/>
<ellipse cx="168.316" cy="267.065" rx="4.10526" ry="4.10908" fill="#2333A4"/>
<ellipse cx="217.579" cy="53.4135" rx="4.10526" ry="4.10908" fill="#2333A4"/>
<ellipse cx="217.579" cy="69.8482" rx="4.10526" ry="4.10908" fill="#2333A4"/>
<ellipse cx="217.579" cy="86.2831" rx="4.10526" ry="4.10908" fill="#2333A4"/>
<ellipse cx="217.579" cy="102.718" rx="4.10526" ry="4.10908" fill="#2333A4"/>
<ellipse cx="217.579" cy="119.153" rx="4.10526" ry="4.10908" fill="#2333A4"/>
<ellipse cx="217.579" cy="135.587" rx="4.10526" ry="4.10908" fill="#2333A4"/>
<ellipse cx="217.579" cy="152.022" rx="4.10526" ry="4.10908" fill="#2333A4"/>
<ellipse cx="217.579" cy="168.457" rx="4.10526" ry="4.10908" fill="#2333A4"/>
<ellipse cx="217.579" cy="184.892" rx="4.10526" ry="4.10908" fill="#2333A4"/>
<ellipse cx="217.579" cy="201.326" rx="4.10526" ry="4.10908" fill="#2333A4"/>
<ellipse cx="217.579" cy="217.761" rx="4.10526" ry="4.10908" fill="#2333A4"/>
<ellipse cx="217.579" cy="234.196" rx="4.10526" ry="4.10908" fill="#2333A4"/>
<ellipse cx="217.579" cy="250.631" rx="4.10526" ry="4.10908" fill="#2333A4"/>
<ellipse cx="217.579" cy="267.065" rx="4.10526" ry="4.10908" fill="#2333A4"/>
<ellipse cx="217.579" cy="283.5" rx="4.10526" ry="4.10908" fill="#2333A4"/>
<ellipse cx="217.579" cy="299.935" rx="4.10526" ry="4.10908" fill="#2333A4"/>
<ellipse cx="217.579" cy="316.37" rx="4.10526" ry="4.10908" fill="#2333A4"/>
<ellipse cx="217.579" cy="332.805" rx="4.10526" ry="4.10908" fill="#2333A4"/>
<ellipse cx="217.579" cy="349.24" rx="4.10526" ry="4.10908" fill="#2333A4"/>
<ellipse cx="217.579" cy="365.674" rx="4.10526" ry="4.10908" fill="#2333A4"/>
<ellipse cx="217.579" cy="382.109" rx="4.10526" ry="4.10908" fill="#2333A4"/>
<ellipse cx="217.579" cy="398.544" rx="4.10526" ry="4.10908" fill="#2333A4"/>
<ellipse cx="217.579" cy="414.979" rx="4.10526" ry="4.10908" fill="#2333A4"/>
<ellipse cx="217.579" cy="431.413" rx="4.10526" ry="4.10908" fill="#2333A4"/>
<ellipse cx="217.579" cy="447.848" rx="4.10526" ry="4.10908" fill="#2333A4"/>
<ellipse cx="217.579" cy="464.283" rx="4.10526" ry="4.10908" fill="#2333A4"/>
<ellipse cx="217.579" cy="480.718" rx="4.10526" ry="4.10908" fill="#2333A4"/>
<ellipse cx="217.579" cy="497.153" rx="4.10526" ry="4.10908" fill="#2333A4"/>
<ellipse cx="217.579" cy="513.587" rx="4.10526" ry="4.10908" fill="#2333A4"/>
<ellipse cx="217.579" cy="530.022" rx="4.10526" ry="4.10908" fill="#2333A4"/>
<ellipse cx="217.579" cy="546.457" rx="4.10526" ry="4.10908" fill="#2333A4"/>
<ellipse cx="217.579" cy="562.892" rx="4.10526" ry="4.10908" fill="#2333A4"/>
<ellipse cx="266.842" cy="69.8482" rx="4.10526" ry="4.10908" fill="#2333A4"/>
<ellipse cx="266.842" cy="86.2831" rx="4.10526" ry="4.10908" fill="#2333A4"/>
<ellipse cx="266.842" cy="102.718" rx="4.10526" ry="4.10908" fill="#2333A4"/>
<ellipse cx="266.842" cy="119.153" rx="4.10526" ry="4.10908" fill="#2333A4"/>
<ellipse cx="266.842" cy="135.587" rx="4.10526" ry="4.10908" fill="#2333A4"/>
<ellipse cx="266.842" cy="152.022" rx="4.10526" ry="4.10908" fill="#2333A4"/>
<ellipse cx="266.842" cy="168.457" rx="4.10526" ry="4.10908" fill="#2333A4"/>
<ellipse cx="266.842" cy="184.892" rx="4.10526" ry="4.10908" fill="#2333A4"/>
<ellipse cx="266.842" cy="201.326" rx="4.10526" ry="4.10908" fill="#2333A4"/>
<ellipse cx="266.842" cy="217.761" rx="4.10526" ry="4.10908" fill="#2333A4"/>
<ellipse cx="266.842" cy="234.196" rx="4.10526" ry="4.10908" fill="#2333A4"/>
<ellipse cx="266.842" cy="250.631" rx="4.10526" ry="4.10908" fill="#2333A4"/>
<ellipse cx="266.842" cy="267.065" rx="4.10526" ry="4.10908" fill="#2333A4"/>
<ellipse cx="266.842" cy="283.5" rx="4.10526" ry="4.10908" fill="#2333A4"/>
<ellipse cx="266.842" cy="299.935" rx="4.10526" ry="4.10908" fill="#2333A4"/>
<ellipse cx="266.842" cy="316.37" rx="4.10526" ry="4.10908" fill="#2333A4"/>
<ellipse cx="266.842" cy="332.805" rx="4.10526" ry="4.10908" fill="#2333A4"/>
<ellipse cx="266.842" cy="349.24" rx="4.10526" ry="4.10908" fill="#2333A4"/>
<ellipse cx="266.842" cy="365.674" rx="4.10526" ry="4.10908" fill="#2333A4"/>
<ellipse cx="266.842" cy="382.109" rx="4.10526" ry="4.10908" fill="#2333A4"/>
<ellipse cx="266.842" cy="398.544" rx="4.10526" ry="4.10908" fill="#2333A4"/>
<ellipse cx="266.842" cy="414.979" rx="4.10526" ry="4.10908" fill="#2333A4"/>
<ellipse cx="266.842" cy="431.413" rx="4.10526" ry="4.10908" fill="#2333A4"/>
<ellipse cx="266.842" cy="447.848" rx="4.10526" ry="4.10908" fill="#2333A4"/>
<ellipse cx="266.842" cy="464.283" rx="4.10526" ry="4.10908" fill="#2333A4"/>
<ellipse cx="266.842" cy="480.718" rx="4.10526" ry="4.10908" fill="#2333A4"/>
<ellipse cx="266.842" cy="497.153" rx="4.10526" ry="4.10908" fill="#2333A4"/>
<ellipse cx="266.842" cy="513.587" rx="4.10526" ry="4.10908" fill="#2333A4"/>
<ellipse cx="316.105" cy="102.718" rx="4.10526" ry="4.10908" fill="#2333A4"/>
<ellipse cx="316.105" cy="119.153" rx="4.10526" ry="4.10908" fill="#2333A4"/>
<ellipse cx="316.105" cy="135.587" rx="4.10526" ry="4.10908" fill="#2333A4"/>
<ellipse cx="316.105" cy="152.022" rx="4.10526" ry="4.10908" fill="#2333A4"/>
<ellipse cx="316.105" cy="168.457" rx="4.10526" ry="4.10908" fill="#2333A4"/>
<ellipse cx="316.105" cy="184.892" rx="4.10526" ry="4.10908" fill="#2333A4"/>
<ellipse cx="316.105" cy="201.326" rx="4.10526" ry="4.10908" fill="#2333A4"/>
<ellipse cx="316.105" cy="217.761" rx="4.10526" ry="4.10908" fill="#2333A4"/>
<ellipse cx="316.105" cy="234.196" rx="4.10526" ry="4.10908" fill="#2333A4"/>
<ellipse cx="316.105" cy="250.631" rx="4.10526" ry="4.10908" fill="#2333A4"/>
<ellipse cx="316.105" cy="267.065" rx="4.10526" ry="4.10908" fill="#2333A4"/>
<ellipse cx="316.105" cy="283.5" rx="4.10526" ry="4.10908" fill="#2333A4"/>
<ellipse cx="316.105" cy="299.935" rx="4.10526" ry="4.10908" fill="#2333A4"/>
<ellipse cx="316.105" cy="316.37" rx="4.10526" ry="4.10908" fill="#2333A4"/>
<ellipse cx="316.105" cy="332.805" rx="4.10526" ry="4.10908" fill="#2333A4"/>
<ellipse cx="316.105" cy="349.24" rx="4.10526" ry="4.10908" fill="#2333A4"/>
<ellipse cx="316.105" cy="365.674" rx="4.10526" ry="4.10908" fill="#2333A4"/>
<ellipse cx="316.105" cy="382.109" rx="4.10526" ry="4.10908" fill="#2333A4"/>
<ellipse cx="316.105" cy="414.979" rx="4.10526" ry="4.10908" fill="#2333A4"/>
<ellipse cx="316.105" cy="447.848" rx="4.10526" ry="4.10908" fill="#2333A4"/>
<ellipse cx="316.105" cy="464.283" rx="4.10526" ry="4.10908" fill="#2333A4"/>
<ellipse cx="365.369" cy="217.761" rx="4.10526" ry="4.10908" fill="#2333A4"/>
<ellipse cx="365.369" cy="234.196" rx="4.10526" ry="4.10908" fill="#2333A4"/>
<ellipse cx="365.369" cy="250.631" rx="4.10526" ry="4.10908" fill="#2333A4"/>
<ellipse cx="365.369" cy="267.065" rx="4.10526" ry="4.10908" fill="#2333A4"/>
<ellipse cx="365.369" cy="283.5" rx="4.10526" ry="4.10908" fill="#2333A4"/>
<ellipse cx="365.369" cy="299.935" rx="4.10526" ry="4.10908" fill="#2333A4"/>
<ellipse cx="365.369" cy="316.37" rx="4.10526" ry="4.10908" fill="#2333A4"/>
<ellipse cx="365.369" cy="332.805" rx="4.10526" ry="4.10908" fill="#2333A4"/>
<ellipse cx="365.369" cy="349.24" rx="4.10526" ry="4.10908" fill="#2333A4"/>
<ellipse cx="365.369" cy="365.674" rx="4.10526" ry="4.10908" fill="#2333A4"/>
<ellipse cx="365.369" cy="382.109" rx="4.10526" ry="4.10908" fill="#2333A4"/>
<ellipse cx="365.369" cy="398.544" rx="4.10526" ry="4.10908" fill="#2333A4"/>
<ellipse cx="414.631" cy="316.37" rx="4.10526" ry="4.10908" fill="#2333A4"/>
<ellipse cx="414.631" cy="332.805" rx="4.10526" ry="4.10908" fill="#2333A4"/>
<ellipse cx="414.631" cy="349.24" rx="4.10526" ry="4.10908" fill="#2333A4"/>
<ellipse cx="414.631" cy="365.674" rx="4.10526" ry="4.10908" fill="#2333A4"/>
<ellipse cx="414.631" cy="382.109" rx="4.10526" ry="4.10908" fill="#2333A4"/>
<ellipse cx="414.631" cy="398.544" rx="4.10526" ry="4.10908" fill="#2333A4"/>
<ellipse cx="463.895" cy="398.544" rx="4.10526" ry="4.10908" fill="#2333A4"/>
<ellipse cx="36.9475" cy="20.5439" rx="4.10526" ry="4.10908" fill="#2333A4"/>
<ellipse cx="36.9475" cy="36.9786" rx="4.10526" ry="4.10908" fill="#2333A4"/>
<ellipse cx="36.9475" cy="53.4135" rx="4.10526" ry="4.10908" fill="#2333A4"/>
<ellipse cx="86.2104" cy="4.10908" rx="4.10526" ry="4.10908" fill="#2333A4"/>
<ellipse cx="86.2104" cy="20.5439" rx="4.10526" ry="4.10908" fill="#2333A4"/>
<ellipse cx="86.2104" cy="36.9786" rx="4.10526" ry="4.10908" fill="#2333A4"/>
<ellipse cx="86.2104" cy="53.4135" rx="4.10526" ry="4.10908" fill="#2333A4"/>
<ellipse cx="86.2104" cy="69.8482" rx="4.10526" ry="4.10908" fill="#2333A4"/>
<ellipse cx="86.2104" cy="86.2831" rx="4.10526" ry="4.10908" fill="#2333A4"/>
<ellipse cx="86.2104" cy="102.718" rx="4.10526" ry="4.10908" fill="#2333A4"/>
<ellipse cx="86.2104" cy="119.153" rx="4.10526" ry="4.10908" fill="#2333A4"/>
<ellipse cx="86.2104" cy="135.587" rx="4.10526" ry="4.10908" fill="#2333A4"/>
<ellipse cx="86.2104" cy="152.022" rx="4.10526" ry="4.10908" fill="#2333A4"/>
<ellipse cx="135.474" cy="4.10908" rx="4.10526" ry="4.10908" fill="#2333A4"/>
<ellipse cx="135.474" cy="20.5439" rx="4.10526" ry="4.10908" fill="#2333A4"/>
<ellipse cx="135.474" cy="36.9786" rx="4.10526" ry="4.10908" fill="#2333A4"/>
<ellipse cx="135.474" cy="53.4135" rx="4.10526" ry="4.10908" fill="#2333A4"/>
<ellipse cx="135.474" cy="69.8482" rx="4.10526" ry="4.10908" fill="#2333A4"/>
<ellipse cx="135.474" cy="86.2831" rx="4.10526" ry="4.10908" fill="#2333A4"/>
<ellipse cx="135.474" cy="102.718" rx="4.10526" ry="4.10908" fill="#2333A4"/>
<ellipse cx="135.474" cy="119.153" rx="4.10526" ry="4.10908" fill="#2333A4"/>
<ellipse cx="135.474" cy="135.587" rx="4.10526" ry="4.10908" fill="#2333A4"/>
<ellipse cx="135.474" cy="152.022" rx="4.10526" ry="4.10908" fill="#2333A4"/>
<ellipse cx="135.474" cy="168.457" rx="4.10526" ry="4.10908" fill="#2333A4"/>
<ellipse cx="135.474" cy="184.892" rx="4.10526" ry="4.10908" fill="#2333A4"/>
<ellipse cx="135.474" cy="201.326" rx="4.10526" ry="4.10908" fill="#2333A4"/>
<ellipse cx="135.474" cy="217.761" rx="4.10526" ry="4.10908" fill="#2333A4"/>
<ellipse cx="184.737" cy="36.9786" rx="4.10526" ry="4.10908" fill="#2333A4"/>
<ellipse cx="184.737" cy="53.4135" rx="4.10526" ry="4.10908" fill="#2333A4"/>
<ellipse cx="184.737" cy="69.8482" rx="4.10526" ry="4.10908" fill="#2333A4"/>
<ellipse cx="184.737" cy="86.2831" rx="4.10526" ry="4.10908" fill="#2333A4"/>
<ellipse cx="184.737" cy="102.718" rx="4.10526" ry="4.10908" fill="#2333A4"/>
<ellipse cx="184.737" cy="119.153" rx="4.10526" ry="4.10908" fill="#2333A4"/>
<ellipse cx="184.737" cy="135.587" rx="4.10526" ry="4.10908" fill="#2333A4"/>
<ellipse cx="184.737" cy="152.022" rx="4.10526" ry="4.10908" fill="#2333A4"/>
<ellipse cx="184.737" cy="168.457" rx="4.10526" ry="4.10908" fill="#2333A4"/>
<ellipse cx="184.737" cy="184.892" rx="4.10526" ry="4.10908" fill="#2333A4"/>
<ellipse cx="184.737" cy="201.326" rx="4.10526" ry="4.10908" fill="#2333A4"/>
<ellipse cx="184.737" cy="217.761" rx="4.10526" ry="4.10908" fill="#2333A4"/>
<ellipse cx="184.737" cy="234.196" rx="4.10526" ry="4.10908" fill="#2333A4"/>
<ellipse cx="184.737" cy="250.631" rx="4.10526" ry="4.10908" fill="#2333A4"/>
<ellipse cx="184.737" cy="267.065" rx="4.10526" ry="4.10908" fill="#2333A4"/>
<ellipse cx="184.737" cy="283.5" rx="4.10526" ry="4.10908" fill="#2333A4"/>
<ellipse cx="234" cy="69.8482" rx="4.10526" ry="4.10908" fill="#2333A4"/>
<ellipse cx="234" cy="86.2831" rx="4.10526" ry="4.10908" fill="#2333A4"/>
<ellipse cx="234" cy="102.718" rx="4.10526" ry="4.10908" fill="#2333A4"/>
<ellipse cx="234" cy="119.153" rx="4.10526" ry="4.10908" fill="#2333A4"/>
<ellipse cx="234" cy="135.587" rx="4.10526" ry="4.10908" fill="#2333A4"/>
<ellipse cx="234" cy="152.022" rx="4.10526" ry="4.10908" fill="#2333A4"/>
<ellipse cx="234" cy="168.457" rx="4.10526" ry="4.10908" fill="#2333A4"/>
<ellipse cx="234" cy="184.892" rx="4.10526" ry="4.10908" fill="#2333A4"/>
<ellipse cx="234" cy="201.326" rx="4.10526" ry="4.10908" fill="#2333A4"/>
<ellipse cx="234" cy="217.761" rx="4.10526" ry="4.10908" fill="#2333A4"/>
<ellipse cx="234" cy="234.196" rx="4.10526" ry="4.10908" fill="#2333A4"/>
<ellipse cx="234" cy="250.631" rx="4.10526" ry="4.10908" fill="#2333A4"/>
<ellipse cx="234" cy="267.065" rx="4.10526" ry="4.10908" fill="#2333A4"/>
<ellipse cx="234" cy="283.5" rx="4.10526" ry="4.10908" fill="#2333A4"/>
<ellipse cx="234" cy="299.935" rx="4.10526" ry="4.10908" fill="#2333A4"/>
<ellipse cx="234" cy="316.37" rx="4.10526" ry="4.10908" fill="#2333A4"/>
<ellipse cx="234" cy="332.805" rx="4.10526" ry="4.10908" fill="#2333A4"/>
<ellipse cx="234" cy="349.24" rx="4.10526" ry="4.10908" fill="#2333A4"/>
<ellipse cx="234" cy="365.674" rx="4.10526" ry="4.10908" fill="#2333A4"/>
<ellipse cx="234" cy="382.109" rx="4.10526" ry="4.10908" fill="#2333A4"/>
<ellipse cx="234" cy="398.544" rx="4.10526" ry="4.10908" fill="#2333A4"/>
<ellipse cx="234" cy="414.979" rx="4.10526" ry="4.10908" fill="#2333A4"/>
<ellipse cx="234" cy="431.413" rx="4.10526" ry="4.10908" fill="#2333A4"/>
<ellipse cx="234" cy="447.848" rx="4.10526" ry="4.10908" fill="#2333A4"/>
<ellipse cx="234" cy="464.283" rx="4.10526" ry="4.10908" fill="#2333A4"/>
<ellipse cx="234" cy="480.718" rx="4.10526" ry="4.10908" fill="#2333A4"/>
<ellipse cx="234" cy="497.153" rx="4.10526" ry="4.10908" fill="#2333A4"/>
<ellipse cx="234" cy="513.587" rx="4.10526" ry="4.10908" fill="#2333A4"/>
<ellipse cx="234" cy="530.022" rx="4.10526" ry="4.10908" fill="#2333A4"/>
<ellipse cx="234" cy="546.457" rx="4.10526" ry="4.10908" fill="#2333A4"/>
<ellipse cx="234" cy="562.892" rx="4.10526" ry="4.10908" fill="#2333A4"/>
<ellipse cx="283.263" cy="69.8482" rx="4.10526" ry="4.10908" fill="#2333A4"/>
<ellipse cx="283.263" cy="86.2831" rx="4.10526" ry="4.10908" fill="#2333A4"/>
<ellipse cx="283.263" cy="102.718" rx="4.10526" ry="4.10908" fill="#2333A4"/>
<ellipse cx="283.263" cy="119.153" rx="4.10526" ry="4.10908" fill="#2333A4"/>
<ellipse cx="283.263" cy="135.587" rx="4.10526" ry="4.10908" fill="#2333A4"/>
<ellipse cx="283.263" cy="152.022" rx="4.10526" ry="4.10908" fill="#2333A4"/>
<ellipse cx="283.263" cy="168.457" rx="4.10526" ry="4.10908" fill="#2333A4"/>
<ellipse cx="283.263" cy="184.892" rx="4.10526" ry="4.10908" fill="#2333A4"/>
<ellipse cx="283.263" cy="201.326" rx="4.10526" ry="4.10908" fill="#2333A4"/>
<ellipse cx="283.263" cy="217.761" rx="4.10526" ry="4.10908" fill="#2333A4"/>
<ellipse cx="283.263" cy="234.196" rx="4.10526" ry="4.10908" fill="#2333A4"/>
<ellipse cx="283.263" cy="250.631" rx="4.10526" ry="4.10908" fill="#2333A4"/>
<ellipse cx="283.263" cy="267.065" rx="4.10526" ry="4.10908" fill="#2333A4"/>
<ellipse cx="283.263" cy="283.5" rx="4.10526" ry="4.10908" fill="#2333A4"/>
<ellipse cx="283.263" cy="299.935" rx="4.10526" ry="4.10908" fill="#2333A4"/>
<ellipse cx="283.263" cy="316.37" rx="4.10526" ry="4.10908" fill="#2333A4"/>
<ellipse cx="283.263" cy="332.805" rx="4.10526" ry="4.10908" fill="#2333A4"/>
<ellipse cx="283.263" cy="349.24" rx="4.10526" ry="4.10908" fill="#2333A4"/>
<ellipse cx="283.263" cy="365.674" rx="4.10526" ry="4.10908" fill="#2333A4"/>
<ellipse cx="283.263" cy="382.109" rx="4.10526" ry="4.10908" fill="#2333A4"/>
<ellipse cx="283.263" cy="398.544" rx="4.10526" ry="4.10908" fill="#2333A4"/>
<ellipse cx="283.263" cy="414.979" rx="4.10526" ry="4.10908" fill="#2333A4"/>
<ellipse cx="283.263" cy="431.413" rx="4.10526" ry="4.10908" fill="#2333A4"/>
<ellipse cx="283.263" cy="447.848" rx="4.10526" ry="4.10908" fill="#2333A4"/>
<ellipse cx="283.263" cy="464.283" rx="4.10526" ry="4.10908" fill="#2333A4"/>
<ellipse cx="283.263" cy="480.718" rx="4.10526" ry="4.10908" fill="#2333A4"/>
<ellipse cx="283.263" cy="497.153" rx="4.10526" ry="4.10908" fill="#2333A4"/>
<ellipse cx="332.526" cy="102.718" rx="4.10526" ry="4.10908" fill="#2333A4"/>
<ellipse cx="332.526" cy="119.153" rx="4.10526" ry="4.10908" fill="#2333A4"/>
<ellipse cx="332.526" cy="135.587" rx="4.10526" ry="4.10908" fill="#2333A4"/>
<ellipse cx="332.526" cy="152.022" rx="4.10526" ry="4.10908" fill="#2333A4"/>
<ellipse cx="332.526" cy="168.457" rx="4.10526" ry="4.10908" fill="#2333A4"/>
<ellipse cx="332.526" cy="184.892" rx="4.10526" ry="4.10908" fill="#2333A4"/>
<ellipse cx="332.526" cy="201.326" rx="4.10526" ry="4.10908" fill="#2333A4"/>
<ellipse cx="332.526" cy="217.761" rx="4.10526" ry="4.10908" fill="#2333A4"/>
<ellipse cx="332.526" cy="234.196" rx="4.10526" ry="4.10908" fill="#2333A4"/>
<ellipse cx="332.526" cy="250.631" rx="4.10526" ry="4.10908" fill="#2333A4"/>
<ellipse cx="332.526" cy="267.065" rx="4.10526" ry="4.10908" fill="#2333A4"/>
<ellipse cx="332.526" cy="283.5" rx="4.10526" ry="4.10908" fill="#2333A4"/>
<ellipse cx="332.526" cy="299.935" rx="4.10526" ry="4.10908" fill="#2333A4"/>
<ellipse cx="332.526" cy="316.37" rx="4.10526" ry="4.10908" fill="#2333A4"/>
<ellipse cx="332.526" cy="332.805" rx="4.10526" ry="4.10908" fill="#2333A4"/>
<ellipse cx="332.526" cy="349.24" rx="4.10526" ry="4.10908" fill="#2333A4"/>
<ellipse cx="332.526" cy="365.674" rx="4.10526" ry="4.10908" fill="#2333A4"/>
<ellipse cx="332.526" cy="382.109" rx="4.10526" ry="4.10908" fill="#2333A4"/>
<ellipse cx="381.79" cy="217.761" rx="4.10526" ry="4.10908" fill="#2333A4"/>
<ellipse cx="381.79" cy="234.196" rx="4.10526" ry="4.10908" fill="#2333A4"/>
<ellipse cx="381.79" cy="250.631" rx="4.10526" ry="4.10908" fill="#2333A4"/>
<ellipse cx="381.79" cy="267.065" rx="4.10526" ry="4.10908" fill="#2333A4"/>
<ellipse cx="381.79" cy="283.5" rx="4.10526" ry="4.10908" fill="#2333A4"/>
<ellipse cx="381.79" cy="299.935" rx="4.10526" ry="4.10908" fill="#2333A4"/>
<ellipse cx="381.79" cy="316.37" rx="4.10526" ry="4.10908" fill="#2333A4"/>
<ellipse cx="381.79" cy="332.805" rx="4.10526" ry="4.10908" fill="#2333A4"/>
<ellipse cx="381.79" cy="349.24" rx="4.10526" ry="4.10908" fill="#2333A4"/>
<ellipse cx="381.79" cy="365.674" rx="4.10526" ry="4.10908" fill="#2333A4"/>
<ellipse cx="381.79" cy="382.109" rx="4.10526" ry="4.10908" fill="#2333A4"/>
<ellipse cx="381.79" cy="398.544" rx="4.10526" ry="4.10908" fill="#2333A4"/>
<ellipse cx="431.053" cy="316.37" rx="4.10526" ry="4.10908" fill="#2333A4"/>
<ellipse cx="431.053" cy="332.805" rx="4.10526" ry="4.10908" fill="#2333A4"/>
<ellipse cx="431.053" cy="349.24" rx="4.10526" ry="4.10908" fill="#2333A4"/>
<ellipse cx="431.053" cy="365.674" rx="4.10526" ry="4.10908" fill="#2333A4"/>
<ellipse cx="431.053" cy="382.109" rx="4.10526" ry="4.10908" fill="#2333A4"/>
<ellipse cx="431.053" cy="398.544" rx="4.10526" ry="4.10908" fill="#2333A4"/>
</svg>
